%TF.GenerationSoftware,KiCad,Pcbnew,6.0.0+dfsg1-2*%
%TF.CreationDate,2022-01-11T21:19:37+02:00*%
%TF.ProjectId,campanero-lima,63616d70-616e-4657-926f-2d6c696d612e,rev?*%
%TF.SameCoordinates,Original*%
%TF.FileFunction,Copper,L1,Top*%
%TF.FilePolarity,Positive*%
%FSLAX46Y46*%
G04 Gerber Fmt 4.6, Leading zero omitted, Abs format (unit mm)*
G04 Created by KiCad (PCBNEW 6.0.0+dfsg1-2) date 2022-01-11 21:19:37*
%MOMM*%
%LPD*%
G01*
G04 APERTURE LIST*
%TA.AperFunction,ComponentPad*%
%ADD10C,1.600000*%
%TD*%
%TA.AperFunction,ComponentPad*%
%ADD11O,1.600000X1.600000*%
%TD*%
%TA.AperFunction,ComponentPad*%
%ADD12R,1.600000X1.600000*%
%TD*%
%TA.AperFunction,ComponentPad*%
%ADD13R,2.200000X2.200000*%
%TD*%
%TA.AperFunction,ComponentPad*%
%ADD14O,2.200000X2.200000*%
%TD*%
%TA.AperFunction,ComponentPad*%
%ADD15R,1.930400X1.930400*%
%TD*%
%TA.AperFunction,ComponentPad*%
%ADD16O,1.930400X1.930400*%
%TD*%
%TA.AperFunction,SMDPad,CuDef*%
%ADD17R,1.060000X0.650000*%
%TD*%
%TA.AperFunction,SMDPad,CuDef*%
%ADD18R,0.800000X0.900000*%
%TD*%
%TA.AperFunction,Conductor*%
%ADD19C,0.381000*%
%TD*%
G04 APERTURE END LIST*
D10*
%TO.P,C2,1*%
%TO.N,Net-(R4-Pad1)*%
X125603000Y-97028000D03*
%TO.P,C2,2*%
%TO.N,Net-(R5-Pad2)*%
X120603000Y-97028000D03*
%TD*%
%TO.P,R7,1*%
%TO.N,OUT*%
X128524000Y-105029000D03*
D11*
%TO.P,R7,2*%
%TO.N,GND*%
X128524000Y-97409000D03*
%TD*%
D12*
%TO.P,C5,1*%
%TO.N,VCC*%
X122682000Y-104521000D03*
D10*
%TO.P,C5,2*%
%TO.N,GND*%
X122682000Y-102021000D03*
%TD*%
%TO.P,R4,1*%
%TO.N,Net-(R4-Pad1)*%
X126365000Y-107188000D03*
D11*
%TO.P,R4,2*%
%TO.N,GND*%
X126365000Y-114808000D03*
%TD*%
D13*
%TO.P,D1,1,K*%
%TO.N,VCC*%
X110109000Y-86106000D03*
D14*
%TO.P,D1,2,A*%
%TO.N,+9V*%
X120269000Y-86106000D03*
%TD*%
D10*
%TO.P,R2,1*%
%TO.N,VCC*%
X118110000Y-101219000D03*
D11*
%TO.P,R2,2*%
%TO.N,Net-(R2-Pad2)*%
X110490000Y-101219000D03*
%TD*%
D10*
%TO.P,C3,1*%
%TO.N,Net-(R6-Pad2)*%
X115824000Y-90551000D03*
%TO.P,C3,2*%
%TO.N,GND*%
X110824000Y-90551000D03*
%TD*%
D15*
%TO.P,J3,1,Pin_1*%
%TO.N,IN*%
X115824000Y-114681000D03*
D16*
%TO.P,J3,2,Pin_2*%
%TO.N,GND*%
X118364000Y-114681000D03*
%TO.P,J3,3,Pin_3*%
%TO.N,Net-(J3-Pad3)*%
X120904000Y-114681000D03*
%TO.P,J3,4,Pin_4*%
%TO.N,OUT*%
X123444000Y-114681000D03*
%TD*%
D10*
%TO.P,C1,1*%
%TO.N,IN*%
X113030000Y-110490000D03*
%TO.P,C1,2*%
%TO.N,Net-(C1-Pad2)*%
X118030000Y-110490000D03*
%TD*%
%TO.P,R6,1*%
%TO.N,VCC*%
X110490000Y-98171000D03*
D11*
%TO.P,R6,2*%
%TO.N,Net-(R6-Pad2)*%
X118110000Y-98171000D03*
%TD*%
D15*
%TO.P,J1,1,Pin_1*%
%TO.N,+9V*%
X123063000Y-85852000D03*
D16*
%TO.P,J1,2,Pin_2*%
%TO.N,GND*%
X125603000Y-85852000D03*
%TD*%
D17*
%TO.P,U5,1,Flag*%
%TO.N,Net-(U5-Pad1)*%
X120226000Y-92390000D03*
%TO.P,U5,2,GND*%
%TO.N,GND*%
X120226000Y-91440000D03*
%TO.P,U5,3,OUT*%
%TO.N,Net-(C4-Pad1)*%
X120226000Y-90490000D03*
%TO.P,U5,4,Vs+*%
%TO.N,Net-(R5-Pad2)*%
X118026000Y-90490000D03*
%TO.P,U5,5,Vs-*%
%TO.N,Net-(R6-Pad2)*%
X118026000Y-92390000D03*
%TD*%
D15*
%TO.P,J2,1,Pin_1*%
%TO.N,+9V*%
X110490000Y-114681000D03*
D16*
%TO.P,J2,2,Pin_2*%
%TO.N,GND*%
X113030000Y-114681000D03*
%TD*%
D10*
%TO.P,R5,1*%
%TO.N,VCC*%
X110490000Y-94996000D03*
D11*
%TO.P,R5,2*%
%TO.N,Net-(R5-Pad2)*%
X118110000Y-94996000D03*
%TD*%
D10*
%TO.P,R1,1*%
%TO.N,IN*%
X110490000Y-107315000D03*
D11*
%TO.P,R1,2*%
%TO.N,GND*%
X118110000Y-107315000D03*
%TD*%
D10*
%TO.P,C4,1*%
%TO.N,Net-(C4-Pad1)*%
X122936000Y-91313000D03*
%TO.P,C4,2*%
%TO.N,OUT*%
X127936000Y-91313000D03*
%TD*%
D18*
%TO.P,Q1,1,D*%
%TO.N,VCC*%
X120335000Y-109458000D03*
%TO.P,Q1,2,S*%
%TO.N,Net-(R4-Pad1)*%
X122235000Y-109458000D03*
%TO.P,Q1,3,G*%
%TO.N,Net-(C1-Pad2)*%
X121285000Y-107458000D03*
%TD*%
D10*
%TO.P,R3,1*%
%TO.N,Net-(R2-Pad2)*%
X110490000Y-104267000D03*
D11*
%TO.P,R3,2*%
%TO.N,GND*%
X118110000Y-104267000D03*
%TD*%
D19*
%TO.N,Net-(C1-Pad2)*%
X118030000Y-110360734D02*
X120932734Y-107458000D01*
X118030000Y-110490000D02*
X118030000Y-110360734D01*
X120932734Y-107458000D02*
X121285000Y-107458000D01*
%TO.N,IN*%
X113030000Y-110490000D02*
X113030000Y-109855000D01*
X115824000Y-113284000D02*
X113030000Y-110490000D01*
X113030000Y-109855000D02*
X110490000Y-107315000D01*
X115824000Y-114681000D02*
X115824000Y-113284000D01*
%TO.N,Net-(R5-Pad2)*%
X118946510Y-94159490D02*
X118946510Y-91410510D01*
X118946510Y-91410510D02*
X118026000Y-90490000D01*
X118110000Y-94996000D02*
X118946510Y-94159490D01*
%TO.N,Net-(R4-Pad1)*%
X125603000Y-106426000D02*
X125603000Y-97028000D01*
X126365000Y-107188000D02*
X125603000Y-106426000D01*
X124095000Y-109458000D02*
X122235000Y-109458000D01*
X126365000Y-107188000D02*
X124095000Y-109458000D01*
%TO.N,Net-(R6-Pad2)*%
X117663000Y-92390000D02*
X115824000Y-90551000D01*
X115824000Y-95885000D02*
X115824000Y-90170000D01*
X118110000Y-98171000D02*
X115824000Y-95885000D01*
X118026000Y-92390000D02*
X117663000Y-92390000D01*
%TO.N,OUT*%
X127936000Y-92694998D02*
X127333499Y-93297499D01*
X127333499Y-103838499D02*
X127333499Y-93297499D01*
X128524000Y-105029000D02*
X127333499Y-103838499D01*
X128524000Y-109601000D02*
X128524000Y-105029000D01*
X127936000Y-91313000D02*
X127936000Y-92694998D01*
X123444000Y-114681000D02*
X128524000Y-109601000D01*
%TO.N,Net-(C4-Pad1)*%
X121986000Y-90490000D02*
X120226000Y-90490000D01*
X122809000Y-91313000D02*
X121986000Y-90490000D01*
%TO.N,VCC*%
X121412000Y-104521000D02*
X118110000Y-101219000D01*
X120687266Y-109458000D02*
X122682000Y-107463266D01*
X120335000Y-109458000D02*
X120687266Y-109458000D01*
X122682000Y-104521000D02*
X121412000Y-104521000D01*
X115062000Y-98171000D02*
X118110000Y-101219000D01*
X122682000Y-107463266D02*
X122682000Y-104521000D01*
X110490000Y-94996000D02*
X110490000Y-98171000D01*
X110490000Y-98171000D02*
X115062000Y-98171000D01*
%TO.N,+9V*%
X120269000Y-86106000D02*
X113507058Y-86106000D01*
X122809000Y-86106000D02*
X123063000Y-85852000D01*
X120269000Y-86106000D02*
X122809000Y-86106000D01*
X113507058Y-86106000D02*
X109172499Y-90440559D01*
X109172499Y-113363499D02*
X110490000Y-114681000D01*
X109172499Y-90440559D02*
X109172499Y-113363499D01*
%TO.N,Net-(R2-Pad2)*%
X110490000Y-104267000D02*
X110490000Y-101219000D01*
%TD*%
%TA.AperFunction,Conductor*%
%TO.N,GND*%
G36*
X129585032Y-105922632D02*
G01*
X129641868Y-105965179D01*
X129666679Y-106031699D01*
X129667000Y-106040688D01*
X129667000Y-115444000D01*
X129646998Y-115512121D01*
X129593342Y-115558614D01*
X129541000Y-115570000D01*
X127650672Y-115570000D01*
X127582551Y-115549998D01*
X127536058Y-115496342D01*
X127525954Y-115426068D01*
X127536477Y-115390750D01*
X127596490Y-115262053D01*
X127600236Y-115251761D01*
X127646394Y-115079497D01*
X127646058Y-115065401D01*
X127638116Y-115062000D01*
X126237000Y-115062000D01*
X126168879Y-115041998D01*
X126122386Y-114988342D01*
X126111000Y-114936000D01*
X126111000Y-114535885D01*
X126619000Y-114535885D01*
X126623475Y-114551124D01*
X126624865Y-114552329D01*
X126632548Y-114554000D01*
X127632967Y-114554000D01*
X127646498Y-114550027D01*
X127647727Y-114541478D01*
X127600236Y-114364239D01*
X127596490Y-114353947D01*
X127504414Y-114156489D01*
X127498931Y-114146993D01*
X127373972Y-113968533D01*
X127366916Y-113960125D01*
X127212875Y-113806084D01*
X127204467Y-113799028D01*
X127026007Y-113674069D01*
X127016511Y-113668586D01*
X126819053Y-113576510D01*
X126808761Y-113572764D01*
X126636497Y-113526606D01*
X126622401Y-113526942D01*
X126619000Y-113534884D01*
X126619000Y-114535885D01*
X126111000Y-114535885D01*
X126111000Y-113540033D01*
X126107027Y-113526502D01*
X126098478Y-113525273D01*
X125921239Y-113572764D01*
X125910947Y-113576510D01*
X125857944Y-113601226D01*
X125787753Y-113611887D01*
X125722940Y-113582907D01*
X125684083Y-113523488D01*
X125683520Y-113452493D01*
X125715599Y-113397936D01*
X128998038Y-110115497D01*
X129004304Y-110109643D01*
X129041549Y-110077152D01*
X129047274Y-110072158D01*
X129083494Y-110020622D01*
X129087427Y-110015326D01*
X129121606Y-109971737D01*
X129121608Y-109971734D01*
X129126292Y-109965760D01*
X129129418Y-109958836D01*
X129131256Y-109955801D01*
X129138500Y-109943102D01*
X129140188Y-109939954D01*
X129144556Y-109933739D01*
X129167438Y-109875050D01*
X129169978Y-109869005D01*
X129195913Y-109811565D01*
X129197298Y-109804092D01*
X129198369Y-109800674D01*
X129202354Y-109786685D01*
X129203251Y-109783193D01*
X129206012Y-109776111D01*
X129214233Y-109713670D01*
X129215265Y-109707157D01*
X129225361Y-109652682D01*
X129225361Y-109652680D01*
X129226745Y-109645213D01*
X129223209Y-109583887D01*
X129223000Y-109576635D01*
X129223000Y-106202530D01*
X129243002Y-106134409D01*
X129276729Y-106099317D01*
X129363789Y-106038357D01*
X129363792Y-106038355D01*
X129368300Y-106035198D01*
X129451905Y-105951593D01*
X129514217Y-105917567D01*
X129585032Y-105922632D01*
G37*
%TD.AperFunction*%
%TA.AperFunction,Conductor*%
G36*
X110038302Y-108548139D02*
G01*
X110040757Y-108549284D01*
X110166463Y-108582967D01*
X110256598Y-108607119D01*
X110256600Y-108607119D01*
X110261913Y-108608543D01*
X110490000Y-108628498D01*
X110495475Y-108628019D01*
X110712614Y-108609022D01*
X110712616Y-108609022D01*
X110718087Y-108608543D01*
X110719660Y-108608122D01*
X110789031Y-108615859D01*
X110829445Y-108642980D01*
X111871035Y-109684570D01*
X111905061Y-109746882D01*
X111899996Y-109817697D01*
X111893061Y-109832417D01*
X111892477Y-109833251D01*
X111795716Y-110040757D01*
X111794294Y-110046065D01*
X111794293Y-110046067D01*
X111764490Y-110157292D01*
X111736457Y-110261913D01*
X111716502Y-110490000D01*
X111736457Y-110718087D01*
X111737881Y-110723400D01*
X111737881Y-110723402D01*
X111766296Y-110829445D01*
X111795716Y-110939243D01*
X111798039Y-110944224D01*
X111798039Y-110944225D01*
X111890151Y-111141762D01*
X111890154Y-111141767D01*
X111892477Y-111146749D01*
X112023802Y-111334300D01*
X112185700Y-111496198D01*
X112190208Y-111499355D01*
X112190211Y-111499357D01*
X112268389Y-111554098D01*
X112373251Y-111627523D01*
X112378233Y-111629846D01*
X112378238Y-111629849D01*
X112575775Y-111721961D01*
X112580757Y-111724284D01*
X112586065Y-111725706D01*
X112586067Y-111725707D01*
X112796598Y-111782119D01*
X112796600Y-111782119D01*
X112801913Y-111783543D01*
X113030000Y-111803498D01*
X113258087Y-111783543D01*
X113259659Y-111783122D01*
X113329028Y-111790858D01*
X113369444Y-111817980D01*
X114626338Y-113074874D01*
X114660364Y-113137186D01*
X114655299Y-113208001D01*
X114612752Y-113264837D01*
X114612373Y-113265081D01*
X114612095Y-113265185D01*
X114495539Y-113352539D01*
X114408185Y-113469095D01*
X114357055Y-113605484D01*
X114356202Y-113613339D01*
X114353796Y-113635483D01*
X114326554Y-113701045D01*
X114268190Y-113741470D01*
X114197236Y-113743925D01*
X114135339Y-113706673D01*
X114041641Y-113603699D01*
X114034108Y-113596674D01*
X113852104Y-113452936D01*
X113843532Y-113447240D01*
X113640492Y-113335156D01*
X113631095Y-113330933D01*
X113412480Y-113253518D01*
X113402530Y-113250889D01*
X113301836Y-113232953D01*
X113288540Y-113234412D01*
X113284000Y-113248968D01*
X113284000Y-114809000D01*
X113263998Y-114877121D01*
X113210342Y-114923614D01*
X113158000Y-114935000D01*
X112902000Y-114935000D01*
X112833879Y-114914998D01*
X112787386Y-114861342D01*
X112776000Y-114809000D01*
X112776000Y-113247555D01*
X112772082Y-113234211D01*
X112757806Y-113232224D01*
X112692532Y-113242213D01*
X112682504Y-113244602D01*
X112462073Y-113316650D01*
X112452564Y-113320647D01*
X112246865Y-113427727D01*
X112238140Y-113433221D01*
X112102881Y-113534777D01*
X112036396Y-113559683D01*
X111967001Y-113544691D01*
X111916727Y-113494560D01*
X111909246Y-113478247D01*
X111908967Y-113477503D01*
X111905815Y-113469095D01*
X111818461Y-113352539D01*
X111701905Y-113265185D01*
X111565516Y-113214055D01*
X111503334Y-113207300D01*
X110057025Y-113207300D01*
X109988904Y-113187298D01*
X109967930Y-113170395D01*
X109908404Y-113110869D01*
X109874378Y-113048557D01*
X109871499Y-113021774D01*
X109871499Y-108667116D01*
X109891501Y-108598995D01*
X109945157Y-108552502D01*
X110015431Y-108542398D01*
X110038302Y-108548139D01*
G37*
%TD.AperFunction*%
%TA.AperFunction,Conductor*%
G36*
X114788396Y-98890002D02*
G01*
X114809370Y-98906905D01*
X116782020Y-100879555D01*
X116816046Y-100941867D01*
X116816980Y-100988961D01*
X116816457Y-100990913D01*
X116815978Y-100996384D01*
X116815978Y-100996386D01*
X116797004Y-101213264D01*
X116796502Y-101219000D01*
X116816457Y-101447087D01*
X116817881Y-101452400D01*
X116817881Y-101452402D01*
X116848574Y-101566947D01*
X116875716Y-101668243D01*
X116878039Y-101673224D01*
X116878039Y-101673225D01*
X116970151Y-101870762D01*
X116970154Y-101870767D01*
X116972477Y-101875749D01*
X117103802Y-102063300D01*
X117265700Y-102225198D01*
X117270208Y-102228355D01*
X117270211Y-102228357D01*
X117291865Y-102243519D01*
X117453251Y-102356523D01*
X117458233Y-102358846D01*
X117458238Y-102358849D01*
X117655775Y-102450961D01*
X117660757Y-102453284D01*
X117666065Y-102454706D01*
X117666067Y-102454707D01*
X117876598Y-102511119D01*
X117876600Y-102511119D01*
X117881913Y-102512543D01*
X118110000Y-102532498D01*
X118115475Y-102532019D01*
X118332614Y-102513022D01*
X118332616Y-102513022D01*
X118338087Y-102512543D01*
X118339660Y-102512122D01*
X118409031Y-102519859D01*
X118449445Y-102546980D01*
X118759401Y-102856936D01*
X118793427Y-102919248D01*
X118788362Y-102990063D01*
X118745815Y-103046899D01*
X118679295Y-103071710D01*
X118617056Y-103060226D01*
X118564053Y-103035510D01*
X118553761Y-103031764D01*
X118381497Y-102985606D01*
X118367401Y-102985942D01*
X118364000Y-102993884D01*
X118364000Y-103994885D01*
X118368475Y-104010124D01*
X118369865Y-104011329D01*
X118377548Y-104013000D01*
X119377967Y-104013000D01*
X119391498Y-104009027D01*
X119392727Y-104000478D01*
X119345236Y-103823239D01*
X119341490Y-103812947D01*
X119316774Y-103759944D01*
X119306113Y-103689753D01*
X119335093Y-103624940D01*
X119394512Y-103586083D01*
X119465507Y-103585520D01*
X119520064Y-103617599D01*
X120897503Y-104995038D01*
X120903356Y-105001303D01*
X120940842Y-105044274D01*
X120947056Y-105048641D01*
X120992378Y-105080494D01*
X120997674Y-105084427D01*
X121041263Y-105118606D01*
X121041266Y-105118608D01*
X121047240Y-105123292D01*
X121054164Y-105126418D01*
X121057199Y-105128256D01*
X121069898Y-105135500D01*
X121073046Y-105137188D01*
X121079261Y-105141556D01*
X121137950Y-105164438D01*
X121143995Y-105166978D01*
X121201435Y-105192913D01*
X121208908Y-105194298D01*
X121212326Y-105195369D01*
X121226315Y-105199354D01*
X121229806Y-105200250D01*
X121236889Y-105203012D01*
X121263945Y-105206574D01*
X121328873Y-105235296D01*
X121367965Y-105294560D01*
X121373500Y-105331496D01*
X121373500Y-105369134D01*
X121380255Y-105431316D01*
X121431385Y-105567705D01*
X121518739Y-105684261D01*
X121635295Y-105771615D01*
X121771684Y-105822745D01*
X121833866Y-105829500D01*
X121857000Y-105829500D01*
X121925121Y-105849502D01*
X121971614Y-105903158D01*
X121983000Y-105955500D01*
X121983000Y-106394816D01*
X121962998Y-106462937D01*
X121909342Y-106509430D01*
X121839068Y-106519534D01*
X121812772Y-106512798D01*
X121802721Y-106509030D01*
X121802714Y-106509028D01*
X121795316Y-106506255D01*
X121733134Y-106499500D01*
X120836866Y-106499500D01*
X120774684Y-106506255D01*
X120638295Y-106557385D01*
X120521739Y-106644739D01*
X120434385Y-106761295D01*
X120383255Y-106897684D01*
X120376500Y-106959866D01*
X120376500Y-106973509D01*
X120356498Y-107041630D01*
X120339595Y-107062604D01*
X119568595Y-107833604D01*
X119506283Y-107867630D01*
X119435468Y-107862565D01*
X119378632Y-107820018D01*
X119353821Y-107753498D01*
X119357793Y-107711898D01*
X119391394Y-107586497D01*
X119391058Y-107572401D01*
X119383116Y-107569000D01*
X118382115Y-107569000D01*
X118366876Y-107573475D01*
X118365671Y-107574865D01*
X118364000Y-107582548D01*
X118364000Y-108582967D01*
X118367973Y-108596498D01*
X118376522Y-108597727D01*
X118506898Y-108562793D01*
X118577875Y-108564483D01*
X118636670Y-108604277D01*
X118664618Y-108669542D01*
X118652844Y-108739555D01*
X118628604Y-108773595D01*
X118251500Y-109150699D01*
X118189188Y-109184725D01*
X118151424Y-109187125D01*
X118035476Y-109176981D01*
X118035475Y-109176981D01*
X118030000Y-109176502D01*
X117801913Y-109196457D01*
X117796600Y-109197881D01*
X117796598Y-109197881D01*
X117586067Y-109254293D01*
X117586065Y-109254294D01*
X117580757Y-109255716D01*
X117575776Y-109258039D01*
X117575775Y-109258039D01*
X117378238Y-109350151D01*
X117378233Y-109350154D01*
X117373251Y-109352477D01*
X117268389Y-109425902D01*
X117190211Y-109480643D01*
X117190208Y-109480645D01*
X117185700Y-109483802D01*
X117023802Y-109645700D01*
X116892477Y-109833251D01*
X116890154Y-109838233D01*
X116890151Y-109838238D01*
X116803655Y-110023731D01*
X116795716Y-110040757D01*
X116794294Y-110046065D01*
X116794293Y-110046067D01*
X116764490Y-110157292D01*
X116736457Y-110261913D01*
X116716502Y-110490000D01*
X116736457Y-110718087D01*
X116737881Y-110723400D01*
X116737881Y-110723402D01*
X116766296Y-110829445D01*
X116795716Y-110939243D01*
X116798039Y-110944224D01*
X116798039Y-110944225D01*
X116890151Y-111141762D01*
X116890154Y-111141767D01*
X116892477Y-111146749D01*
X117023802Y-111334300D01*
X117185700Y-111496198D01*
X117190208Y-111499355D01*
X117190211Y-111499357D01*
X117268389Y-111554098D01*
X117373251Y-111627523D01*
X117378233Y-111629846D01*
X117378238Y-111629849D01*
X117575775Y-111721961D01*
X117580757Y-111724284D01*
X117586065Y-111725706D01*
X117586067Y-111725707D01*
X117796598Y-111782119D01*
X117796600Y-111782119D01*
X117801913Y-111783543D01*
X118030000Y-111803498D01*
X118258087Y-111783543D01*
X118263400Y-111782119D01*
X118263402Y-111782119D01*
X118473933Y-111725707D01*
X118473935Y-111725706D01*
X118479243Y-111724284D01*
X118484225Y-111721961D01*
X118681762Y-111629849D01*
X118681767Y-111629846D01*
X118686749Y-111627523D01*
X118791611Y-111554098D01*
X118869789Y-111499357D01*
X118869792Y-111499355D01*
X118874300Y-111496198D01*
X119036198Y-111334300D01*
X119167523Y-111146749D01*
X119169846Y-111141767D01*
X119169849Y-111141762D01*
X119261961Y-110944225D01*
X119261961Y-110944224D01*
X119264284Y-110939243D01*
X119293705Y-110829445D01*
X119322119Y-110723402D01*
X119322119Y-110723400D01*
X119323543Y-110718087D01*
X119343498Y-110490000D01*
X119330154Y-110337476D01*
X119344143Y-110267871D01*
X119393543Y-110216878D01*
X119462669Y-110200688D01*
X119529574Y-110224441D01*
X119556501Y-110250929D01*
X119571739Y-110271261D01*
X119688295Y-110358615D01*
X119824684Y-110409745D01*
X119886866Y-110416500D01*
X120783134Y-110416500D01*
X120845316Y-110409745D01*
X120981705Y-110358615D01*
X121098261Y-110271261D01*
X121180770Y-110161170D01*
X121184174Y-110156628D01*
X121241033Y-110114113D01*
X121311852Y-110109087D01*
X121374145Y-110143147D01*
X121385826Y-110156628D01*
X121389230Y-110161170D01*
X121471739Y-110271261D01*
X121588295Y-110358615D01*
X121724684Y-110409745D01*
X121786866Y-110416500D01*
X122683134Y-110416500D01*
X122745316Y-110409745D01*
X122881705Y-110358615D01*
X122998261Y-110271261D01*
X123046096Y-110207435D01*
X123102955Y-110164920D01*
X123146922Y-110157000D01*
X124066401Y-110157000D01*
X124074971Y-110157292D01*
X124124277Y-110160654D01*
X124124281Y-110160654D01*
X124131852Y-110161170D01*
X124139328Y-110159865D01*
X124139332Y-110159865D01*
X124193924Y-110150337D01*
X124200449Y-110149374D01*
X124255418Y-110142722D01*
X124255420Y-110142721D01*
X124262960Y-110141809D01*
X124270062Y-110139125D01*
X124273500Y-110138281D01*
X124287623Y-110134417D01*
X124291034Y-110133387D01*
X124298517Y-110132081D01*
X124339450Y-110114113D01*
X124356198Y-110106761D01*
X124362304Y-110104270D01*
X124414117Y-110084691D01*
X124414118Y-110084690D01*
X124421222Y-110082006D01*
X124427477Y-110077707D01*
X124430618Y-110076065D01*
X124443372Y-110068967D01*
X124446478Y-110067130D01*
X124453433Y-110064077D01*
X124459460Y-110059452D01*
X124459464Y-110059450D01*
X124503402Y-110025735D01*
X124508720Y-110021871D01*
X124560652Y-109986179D01*
X124601535Y-109940293D01*
X124606498Y-109935037D01*
X126025556Y-108515980D01*
X126087868Y-108481954D01*
X126134962Y-108481020D01*
X126136913Y-108481543D01*
X126365000Y-108501498D01*
X126593087Y-108481543D01*
X126598400Y-108480119D01*
X126598402Y-108480119D01*
X126808933Y-108423707D01*
X126808935Y-108423706D01*
X126814243Y-108422284D01*
X126819225Y-108419961D01*
X127016762Y-108327849D01*
X127016767Y-108327846D01*
X127021749Y-108325523D01*
X127126611Y-108252098D01*
X127204789Y-108197357D01*
X127204792Y-108197355D01*
X127209300Y-108194198D01*
X127371198Y-108032300D01*
X127502523Y-107844749D01*
X127504846Y-107839767D01*
X127504849Y-107839762D01*
X127584805Y-107668294D01*
X127631722Y-107615009D01*
X127699999Y-107595548D01*
X127767959Y-107616090D01*
X127814025Y-107670112D01*
X127825000Y-107721544D01*
X127825000Y-109259275D01*
X127804998Y-109327396D01*
X127788095Y-109348370D01*
X123922047Y-113214418D01*
X123859735Y-113248444D01*
X123810856Y-113249370D01*
X123718690Y-113232953D01*
X123583163Y-113208812D01*
X123489625Y-113207669D01*
X123346018Y-113205914D01*
X123346016Y-113205914D01*
X123340848Y-113205851D01*
X123101303Y-113242507D01*
X122870961Y-113317794D01*
X122656009Y-113429691D01*
X122651876Y-113432794D01*
X122651873Y-113432796D01*
X122482875Y-113559683D01*
X122462218Y-113575193D01*
X122294795Y-113750392D01*
X122279234Y-113773204D01*
X122224324Y-113818205D01*
X122153799Y-113826376D01*
X122090052Y-113795122D01*
X122076987Y-113780893D01*
X122075599Y-113778747D01*
X122070555Y-113773203D01*
X121915981Y-113603329D01*
X121912506Y-113599510D01*
X121722328Y-113449317D01*
X121629252Y-113397936D01*
X121514705Y-113334702D01*
X121514702Y-113334701D01*
X121510174Y-113332201D01*
X121374662Y-113284214D01*
X121286613Y-113253034D01*
X121286610Y-113253033D01*
X121281741Y-113251309D01*
X121276652Y-113250402D01*
X121276650Y-113250402D01*
X121174598Y-113232224D01*
X121043163Y-113208812D01*
X120949625Y-113207669D01*
X120806018Y-113205914D01*
X120806016Y-113205914D01*
X120800848Y-113205851D01*
X120561303Y-113242507D01*
X120330961Y-113317794D01*
X120116009Y-113429691D01*
X120111876Y-113432794D01*
X120111873Y-113432796D01*
X119942875Y-113559683D01*
X119922218Y-113575193D01*
X119754795Y-113750392D01*
X119751884Y-113754660D01*
X119751878Y-113754667D01*
X119738935Y-113773640D01*
X119684023Y-113818642D01*
X119613498Y-113826812D01*
X119549751Y-113795556D01*
X119535021Y-113779515D01*
X119531718Y-113775227D01*
X119375641Y-113603700D01*
X119368108Y-113596674D01*
X119186104Y-113452936D01*
X119177532Y-113447240D01*
X118974492Y-113335156D01*
X118965095Y-113330933D01*
X118746480Y-113253518D01*
X118736530Y-113250889D01*
X118635836Y-113232953D01*
X118622540Y-113234412D01*
X118618000Y-113248968D01*
X118618000Y-114809000D01*
X118597998Y-114877121D01*
X118544342Y-114923614D01*
X118492000Y-114935000D01*
X118236000Y-114935000D01*
X118167879Y-114914998D01*
X118121386Y-114861342D01*
X118110000Y-114809000D01*
X118110000Y-113247555D01*
X118106082Y-113234211D01*
X118091806Y-113232224D01*
X118026532Y-113242213D01*
X118016504Y-113244602D01*
X117796073Y-113316650D01*
X117786564Y-113320647D01*
X117580865Y-113427727D01*
X117572140Y-113433221D01*
X117436881Y-113534777D01*
X117370396Y-113559683D01*
X117301001Y-113544691D01*
X117250727Y-113494560D01*
X117243246Y-113478247D01*
X117242967Y-113477503D01*
X117239815Y-113469095D01*
X117152461Y-113352539D01*
X117035905Y-113265185D01*
X116899516Y-113214055D01*
X116837334Y-113207300D01*
X116628081Y-113207300D01*
X116559960Y-113187298D01*
X116513467Y-113133642D01*
X116508056Y-113118077D01*
X116507809Y-113116040D01*
X116505123Y-113108932D01*
X116504266Y-113105443D01*
X116500430Y-113091421D01*
X116499389Y-113087973D01*
X116498082Y-113080483D01*
X116472763Y-113022805D01*
X116470270Y-113016697D01*
X116450692Y-112964886D01*
X116450692Y-112964885D01*
X116448006Y-112957778D01*
X116443700Y-112951512D01*
X116442050Y-112948357D01*
X116434931Y-112935565D01*
X116433131Y-112932521D01*
X116430078Y-112925567D01*
X116391740Y-112875604D01*
X116387862Y-112870267D01*
X116356481Y-112824607D01*
X116356479Y-112824605D01*
X116352179Y-112818348D01*
X116306311Y-112777481D01*
X116301036Y-112772501D01*
X114357980Y-110829445D01*
X114323954Y-110767133D01*
X114323020Y-110720039D01*
X114323543Y-110718087D01*
X114324023Y-110712607D01*
X114343019Y-110495475D01*
X114343498Y-110490000D01*
X114323543Y-110261913D01*
X114295510Y-110157292D01*
X114265707Y-110046067D01*
X114265706Y-110046065D01*
X114264284Y-110040757D01*
X114256345Y-110023731D01*
X114169849Y-109838238D01*
X114169846Y-109838233D01*
X114167523Y-109833251D01*
X114036198Y-109645700D01*
X113874300Y-109483802D01*
X113869792Y-109480645D01*
X113869789Y-109480643D01*
X113791611Y-109425902D01*
X113686749Y-109352477D01*
X113681767Y-109350154D01*
X113681762Y-109350151D01*
X113484225Y-109258039D01*
X113484224Y-109258039D01*
X113479243Y-109255716D01*
X113473938Y-109254295D01*
X113473931Y-109254292D01*
X113429904Y-109242496D01*
X113373419Y-109209884D01*
X111817980Y-107654444D01*
X111783954Y-107592132D01*
X111783744Y-107581522D01*
X116827273Y-107581522D01*
X116874764Y-107758761D01*
X116878510Y-107769053D01*
X116970586Y-107966511D01*
X116976069Y-107976007D01*
X117101028Y-108154467D01*
X117108084Y-108162875D01*
X117262125Y-108316916D01*
X117270533Y-108323972D01*
X117448993Y-108448931D01*
X117458489Y-108454414D01*
X117655947Y-108546490D01*
X117666239Y-108550236D01*
X117838503Y-108596394D01*
X117852599Y-108596058D01*
X117856000Y-108588116D01*
X117856000Y-107587115D01*
X117851525Y-107571876D01*
X117850135Y-107570671D01*
X117842452Y-107569000D01*
X116842033Y-107569000D01*
X116828502Y-107572973D01*
X116827273Y-107581522D01*
X111783744Y-107581522D01*
X111783020Y-107545038D01*
X111783543Y-107543087D01*
X111803498Y-107315000D01*
X111783543Y-107086913D01*
X111782119Y-107081598D01*
X111771911Y-107043503D01*
X116828606Y-107043503D01*
X116828942Y-107057599D01*
X116836884Y-107061000D01*
X117837885Y-107061000D01*
X117853124Y-107056525D01*
X117854329Y-107055135D01*
X117856000Y-107047452D01*
X117856000Y-107042885D01*
X118364000Y-107042885D01*
X118368475Y-107058124D01*
X118369865Y-107059329D01*
X118377548Y-107061000D01*
X119377967Y-107061000D01*
X119391498Y-107057027D01*
X119392727Y-107048478D01*
X119345236Y-106871239D01*
X119341490Y-106860947D01*
X119249414Y-106663489D01*
X119243931Y-106653993D01*
X119118972Y-106475533D01*
X119111916Y-106467125D01*
X118957875Y-106313084D01*
X118949467Y-106306028D01*
X118771007Y-106181069D01*
X118761511Y-106175586D01*
X118564053Y-106083510D01*
X118553761Y-106079764D01*
X118381497Y-106033606D01*
X118367401Y-106033942D01*
X118364000Y-106041884D01*
X118364000Y-107042885D01*
X117856000Y-107042885D01*
X117856000Y-106047033D01*
X117852027Y-106033502D01*
X117843478Y-106032273D01*
X117666239Y-106079764D01*
X117655947Y-106083510D01*
X117458489Y-106175586D01*
X117448993Y-106181069D01*
X117270533Y-106306028D01*
X117262125Y-106313084D01*
X117108084Y-106467125D01*
X117101028Y-106475533D01*
X116976069Y-106653993D01*
X116970586Y-106663489D01*
X116878510Y-106860947D01*
X116874764Y-106871239D01*
X116828606Y-107043503D01*
X111771911Y-107043503D01*
X111725707Y-106871067D01*
X111725706Y-106871065D01*
X111724284Y-106865757D01*
X111689175Y-106790464D01*
X111629849Y-106663238D01*
X111629846Y-106663233D01*
X111627523Y-106658251D01*
X111530392Y-106519534D01*
X111499357Y-106475211D01*
X111499355Y-106475208D01*
X111496198Y-106470700D01*
X111334300Y-106308802D01*
X111329792Y-106305645D01*
X111329789Y-106305643D01*
X111158491Y-106185699D01*
X111146749Y-106177477D01*
X111141767Y-106175154D01*
X111141762Y-106175151D01*
X110944225Y-106083039D01*
X110944224Y-106083039D01*
X110939243Y-106080716D01*
X110933935Y-106079294D01*
X110933933Y-106079293D01*
X110723402Y-106022881D01*
X110723400Y-106022881D01*
X110718087Y-106021457D01*
X110490000Y-106001502D01*
X110261913Y-106021457D01*
X110256600Y-106022881D01*
X110256598Y-106022881D01*
X110210631Y-106035198D01*
X110040757Y-106080716D01*
X110039368Y-106081364D01*
X109969738Y-106085788D01*
X109907698Y-106051268D01*
X109874169Y-105988688D01*
X109871499Y-105962884D01*
X109871499Y-105619116D01*
X109891501Y-105550995D01*
X109945157Y-105504502D01*
X110015431Y-105494398D01*
X110038302Y-105500139D01*
X110040757Y-105501284D01*
X110166463Y-105534967D01*
X110256598Y-105559119D01*
X110256600Y-105559119D01*
X110261913Y-105560543D01*
X110490000Y-105580498D01*
X110718087Y-105560543D01*
X110723400Y-105559119D01*
X110723402Y-105559119D01*
X110933933Y-105502707D01*
X110933935Y-105502706D01*
X110939243Y-105501284D01*
X110988655Y-105478243D01*
X111141762Y-105406849D01*
X111141767Y-105406846D01*
X111146749Y-105404523D01*
X111303792Y-105294560D01*
X111329789Y-105276357D01*
X111329792Y-105276355D01*
X111334300Y-105273198D01*
X111496198Y-105111300D01*
X111540073Y-105048641D01*
X111573218Y-105001304D01*
X111627523Y-104923749D01*
X111629846Y-104918767D01*
X111629849Y-104918762D01*
X111721961Y-104721225D01*
X111721961Y-104721224D01*
X111724284Y-104716243D01*
X111772970Y-104534548D01*
X111773245Y-104533522D01*
X116827273Y-104533522D01*
X116874764Y-104710761D01*
X116878510Y-104721053D01*
X116970586Y-104918511D01*
X116976069Y-104928007D01*
X117101028Y-105106467D01*
X117108084Y-105114875D01*
X117262125Y-105268916D01*
X117270533Y-105275972D01*
X117448993Y-105400931D01*
X117458489Y-105406414D01*
X117655947Y-105498490D01*
X117666239Y-105502236D01*
X117838503Y-105548394D01*
X117852599Y-105548058D01*
X117856000Y-105540116D01*
X117856000Y-105534967D01*
X118364000Y-105534967D01*
X118367973Y-105548498D01*
X118376522Y-105549727D01*
X118553761Y-105502236D01*
X118564053Y-105498490D01*
X118761511Y-105406414D01*
X118771007Y-105400931D01*
X118949467Y-105275972D01*
X118957875Y-105268916D01*
X119111916Y-105114875D01*
X119118972Y-105106467D01*
X119243931Y-104928007D01*
X119249414Y-104918511D01*
X119341490Y-104721053D01*
X119345236Y-104710761D01*
X119391394Y-104538497D01*
X119391058Y-104524401D01*
X119383116Y-104521000D01*
X118382115Y-104521000D01*
X118366876Y-104525475D01*
X118365671Y-104526865D01*
X118364000Y-104534548D01*
X118364000Y-105534967D01*
X117856000Y-105534967D01*
X117856000Y-104539115D01*
X117851525Y-104523876D01*
X117850135Y-104522671D01*
X117842452Y-104521000D01*
X116842033Y-104521000D01*
X116828502Y-104524973D01*
X116827273Y-104533522D01*
X111773245Y-104533522D01*
X111782119Y-104500402D01*
X111782119Y-104500400D01*
X111783543Y-104495087D01*
X111803498Y-104267000D01*
X111783543Y-104038913D01*
X111782119Y-104033598D01*
X111771911Y-103995503D01*
X116828606Y-103995503D01*
X116828942Y-104009599D01*
X116836884Y-104013000D01*
X117837885Y-104013000D01*
X117853124Y-104008525D01*
X117854329Y-104007135D01*
X117856000Y-103999452D01*
X117856000Y-102999033D01*
X117852027Y-102985502D01*
X117843478Y-102984273D01*
X117666239Y-103031764D01*
X117655947Y-103035510D01*
X117458489Y-103127586D01*
X117448993Y-103133069D01*
X117270533Y-103258028D01*
X117262125Y-103265084D01*
X117108084Y-103419125D01*
X117101028Y-103427533D01*
X116976069Y-103605993D01*
X116970586Y-103615489D01*
X116878510Y-103812947D01*
X116874764Y-103823239D01*
X116828606Y-103995503D01*
X111771911Y-103995503D01*
X111725707Y-103823067D01*
X111725706Y-103823065D01*
X111724284Y-103817757D01*
X111686571Y-103736881D01*
X111629849Y-103615238D01*
X111629846Y-103615233D01*
X111627523Y-103610251D01*
X111496198Y-103422700D01*
X111334300Y-103260802D01*
X111329792Y-103257645D01*
X111329789Y-103257643D01*
X111242729Y-103196683D01*
X111198401Y-103141226D01*
X111189000Y-103093470D01*
X111189000Y-102392530D01*
X111209002Y-102324409D01*
X111242729Y-102289317D01*
X111329789Y-102228357D01*
X111329792Y-102228355D01*
X111334300Y-102225198D01*
X111496198Y-102063300D01*
X111627523Y-101875749D01*
X111629846Y-101870767D01*
X111629849Y-101870762D01*
X111721961Y-101673225D01*
X111721961Y-101673224D01*
X111724284Y-101668243D01*
X111751427Y-101566947D01*
X111782119Y-101452402D01*
X111782119Y-101452400D01*
X111783543Y-101447087D01*
X111803498Y-101219000D01*
X111783543Y-100990913D01*
X111770401Y-100941867D01*
X111725707Y-100775067D01*
X111725706Y-100775065D01*
X111724284Y-100769757D01*
X111705454Y-100729375D01*
X111629849Y-100567238D01*
X111629846Y-100567233D01*
X111627523Y-100562251D01*
X111496198Y-100374700D01*
X111334300Y-100212802D01*
X111329792Y-100209645D01*
X111329789Y-100209643D01*
X111251611Y-100154902D01*
X111146749Y-100081477D01*
X111141767Y-100079154D01*
X111141762Y-100079151D01*
X110944225Y-99987039D01*
X110944224Y-99987039D01*
X110939243Y-99984716D01*
X110933935Y-99983294D01*
X110933933Y-99983293D01*
X110723402Y-99926881D01*
X110723400Y-99926881D01*
X110718087Y-99925457D01*
X110490000Y-99905502D01*
X110261913Y-99925457D01*
X110256600Y-99926881D01*
X110256598Y-99926881D01*
X110201249Y-99941712D01*
X110040757Y-99984716D01*
X110039368Y-99985364D01*
X109969738Y-99989788D01*
X109907698Y-99955268D01*
X109874169Y-99892688D01*
X109871499Y-99866884D01*
X109871499Y-99523116D01*
X109891501Y-99454995D01*
X109945157Y-99408502D01*
X110015431Y-99398398D01*
X110038302Y-99404139D01*
X110040757Y-99405284D01*
X110191297Y-99445621D01*
X110256598Y-99463119D01*
X110256600Y-99463119D01*
X110261913Y-99464543D01*
X110490000Y-99484498D01*
X110718087Y-99464543D01*
X110723400Y-99463119D01*
X110723402Y-99463119D01*
X110933933Y-99406707D01*
X110933935Y-99406706D01*
X110939243Y-99405284D01*
X110954010Y-99398398D01*
X111141762Y-99310849D01*
X111141767Y-99310846D01*
X111146749Y-99308523D01*
X111251611Y-99235098D01*
X111329789Y-99180357D01*
X111329792Y-99180355D01*
X111334300Y-99177198D01*
X111496198Y-99015300D01*
X111560317Y-98923729D01*
X111615774Y-98879401D01*
X111663530Y-98870000D01*
X114720275Y-98870000D01*
X114788396Y-98890002D01*
G37*
%TD.AperFunction*%
%TA.AperFunction,Conductor*%
G36*
X129609121Y-84983002D02*
G01*
X129655614Y-85036658D01*
X129667000Y-85089000D01*
X129667000Y-96398019D01*
X129646998Y-96466140D01*
X129593342Y-96512633D01*
X129523068Y-96522737D01*
X129458488Y-96493243D01*
X129451905Y-96487114D01*
X129371875Y-96407084D01*
X129363467Y-96400028D01*
X129185007Y-96275069D01*
X129175511Y-96269586D01*
X128978053Y-96177510D01*
X128967761Y-96173764D01*
X128795497Y-96127606D01*
X128781401Y-96127942D01*
X128778000Y-96135884D01*
X128778000Y-98676967D01*
X128781973Y-98690498D01*
X128790522Y-98691727D01*
X128967761Y-98644236D01*
X128978053Y-98640490D01*
X129175511Y-98548414D01*
X129185007Y-98542931D01*
X129363467Y-98417972D01*
X129371875Y-98410916D01*
X129451905Y-98330886D01*
X129514217Y-98296860D01*
X129585032Y-98301925D01*
X129641868Y-98344472D01*
X129666679Y-98410992D01*
X129667000Y-98419981D01*
X129667000Y-104017312D01*
X129646998Y-104085433D01*
X129593342Y-104131926D01*
X129523068Y-104142030D01*
X129458488Y-104112536D01*
X129451905Y-104106407D01*
X129368300Y-104022802D01*
X129363792Y-104019645D01*
X129363789Y-104019643D01*
X129250985Y-103940657D01*
X129180749Y-103891477D01*
X129175767Y-103889154D01*
X129175762Y-103889151D01*
X128978225Y-103797039D01*
X128978224Y-103797039D01*
X128973243Y-103794716D01*
X128967935Y-103793294D01*
X128967933Y-103793293D01*
X128757402Y-103736881D01*
X128757400Y-103736881D01*
X128752087Y-103735457D01*
X128524000Y-103715502D01*
X128518525Y-103715981D01*
X128301386Y-103734978D01*
X128301384Y-103734978D01*
X128295913Y-103735457D01*
X128294340Y-103735878D01*
X128224969Y-103728141D01*
X128184555Y-103701020D01*
X128069404Y-103585869D01*
X128035378Y-103523557D01*
X128032499Y-103496774D01*
X128032499Y-98795651D01*
X128052501Y-98727530D01*
X128106157Y-98681037D01*
X128176431Y-98670933D01*
X128191109Y-98673944D01*
X128252502Y-98690394D01*
X128266599Y-98690058D01*
X128270000Y-98682116D01*
X128270000Y-96141033D01*
X128266027Y-96127502D01*
X128257478Y-96126273D01*
X128191109Y-96144056D01*
X128120133Y-96142366D01*
X128061337Y-96102571D01*
X128033390Y-96037307D01*
X128032499Y-96022349D01*
X128032499Y-93639224D01*
X128052501Y-93571103D01*
X128069404Y-93550129D01*
X128410038Y-93209495D01*
X128416304Y-93203641D01*
X128430403Y-93191342D01*
X128459274Y-93166156D01*
X128495494Y-93114620D01*
X128499427Y-93109324D01*
X128533606Y-93065735D01*
X128533608Y-93065732D01*
X128538292Y-93059758D01*
X128541418Y-93052834D01*
X128543256Y-93049799D01*
X128550500Y-93037100D01*
X128552188Y-93033952D01*
X128556556Y-93027737D01*
X128579438Y-92969048D01*
X128581978Y-92963003D01*
X128607913Y-92905563D01*
X128609298Y-92898090D01*
X128610369Y-92894672D01*
X128614354Y-92880683D01*
X128615251Y-92877191D01*
X128618012Y-92870109D01*
X128622956Y-92832555D01*
X128626233Y-92807668D01*
X128627265Y-92801155D01*
X128637361Y-92746680D01*
X128637361Y-92746678D01*
X128638745Y-92739211D01*
X128635209Y-92677885D01*
X128635000Y-92670633D01*
X128635000Y-92486530D01*
X128655002Y-92418409D01*
X128688729Y-92383317D01*
X128775789Y-92322357D01*
X128775792Y-92322355D01*
X128780300Y-92319198D01*
X128942198Y-92157300D01*
X129073523Y-91969749D01*
X129075846Y-91964767D01*
X129075849Y-91964762D01*
X129167961Y-91767225D01*
X129167961Y-91767224D01*
X129170284Y-91762243D01*
X129193930Y-91673998D01*
X129228119Y-91546402D01*
X129228119Y-91546400D01*
X129229543Y-91541087D01*
X129249498Y-91313000D01*
X129229543Y-91084913D01*
X129208191Y-91005225D01*
X129171707Y-90869067D01*
X129171706Y-90869065D01*
X129170284Y-90863757D01*
X129167961Y-90858775D01*
X129075849Y-90661238D01*
X129075846Y-90661233D01*
X129073523Y-90656251D01*
X128942198Y-90468700D01*
X128780300Y-90306802D01*
X128775792Y-90303645D01*
X128775789Y-90303643D01*
X128697611Y-90248902D01*
X128592749Y-90175477D01*
X128587767Y-90173154D01*
X128587762Y-90173151D01*
X128390225Y-90081039D01*
X128390224Y-90081039D01*
X128385243Y-90078716D01*
X128379935Y-90077294D01*
X128379933Y-90077293D01*
X128169402Y-90020881D01*
X128169400Y-90020881D01*
X128164087Y-90019457D01*
X127936000Y-89999502D01*
X127707913Y-90019457D01*
X127702600Y-90020881D01*
X127702598Y-90020881D01*
X127492067Y-90077293D01*
X127492065Y-90077294D01*
X127486757Y-90078716D01*
X127481776Y-90081039D01*
X127481775Y-90081039D01*
X127284238Y-90173151D01*
X127284233Y-90173154D01*
X127279251Y-90175477D01*
X127174389Y-90248902D01*
X127096211Y-90303643D01*
X127096208Y-90303645D01*
X127091700Y-90306802D01*
X126929802Y-90468700D01*
X126798477Y-90656251D01*
X126796154Y-90661233D01*
X126796151Y-90661238D01*
X126704039Y-90858775D01*
X126701716Y-90863757D01*
X126700294Y-90869065D01*
X126700293Y-90869067D01*
X126663809Y-91005225D01*
X126642457Y-91084913D01*
X126622502Y-91313000D01*
X126642457Y-91541087D01*
X126643881Y-91546400D01*
X126643881Y-91546402D01*
X126678071Y-91673998D01*
X126701716Y-91762243D01*
X126704039Y-91767224D01*
X126704039Y-91767225D01*
X126796151Y-91964762D01*
X126796154Y-91964767D01*
X126798477Y-91969749D01*
X126929802Y-92157300D01*
X127091700Y-92319198D01*
X127096212Y-92322357D01*
X127096217Y-92322361D01*
X127104896Y-92328439D01*
X127149223Y-92383897D01*
X127156531Y-92454516D01*
X127121718Y-92520745D01*
X126859461Y-92783002D01*
X126853196Y-92788855D01*
X126810225Y-92826341D01*
X126784759Y-92862575D01*
X126774005Y-92877877D01*
X126770072Y-92883173D01*
X126735893Y-92926762D01*
X126735891Y-92926765D01*
X126731207Y-92932739D01*
X126728081Y-92939663D01*
X126726243Y-92942698D01*
X126718999Y-92955397D01*
X126717311Y-92958545D01*
X126712943Y-92964760D01*
X126710183Y-92971839D01*
X126690066Y-93023438D01*
X126687521Y-93029494D01*
X126661586Y-93086934D01*
X126660201Y-93094407D01*
X126659130Y-93097825D01*
X126655145Y-93111814D01*
X126654248Y-93115306D01*
X126651487Y-93122388D01*
X126650495Y-93129921D01*
X126650495Y-93129922D01*
X126643266Y-93184829D01*
X126642234Y-93191342D01*
X126636322Y-93223244D01*
X126630754Y-93253286D01*
X126631191Y-93260866D01*
X126631191Y-93260867D01*
X126634290Y-93314611D01*
X126634499Y-93321864D01*
X126634499Y-95910836D01*
X126614497Y-95978957D01*
X126560841Y-96025450D01*
X126490567Y-96035554D01*
X126436228Y-96014049D01*
X126264258Y-95893634D01*
X126264256Y-95893633D01*
X126259749Y-95890477D01*
X126254767Y-95888154D01*
X126254762Y-95888151D01*
X126057225Y-95796039D01*
X126057224Y-95796039D01*
X126052243Y-95793716D01*
X126046935Y-95792294D01*
X126046933Y-95792293D01*
X125836402Y-95735881D01*
X125836400Y-95735881D01*
X125831087Y-95734457D01*
X125603000Y-95714502D01*
X125374913Y-95734457D01*
X125369600Y-95735881D01*
X125369598Y-95735881D01*
X125159067Y-95792293D01*
X125159065Y-95792294D01*
X125153757Y-95793716D01*
X125148776Y-95796039D01*
X125148775Y-95796039D01*
X124951238Y-95888151D01*
X124951233Y-95888154D01*
X124946251Y-95890477D01*
X124858490Y-95951928D01*
X124763211Y-96018643D01*
X124763208Y-96018645D01*
X124758700Y-96021802D01*
X124596802Y-96183700D01*
X124593645Y-96188208D01*
X124593643Y-96188211D01*
X124565810Y-96227961D01*
X124465477Y-96371251D01*
X124463154Y-96376233D01*
X124463151Y-96376238D01*
X124399550Y-96512633D01*
X124368716Y-96578757D01*
X124309457Y-96799913D01*
X124289502Y-97028000D01*
X124309457Y-97256087D01*
X124310881Y-97261400D01*
X124310881Y-97261402D01*
X124366308Y-97468255D01*
X124368716Y-97477243D01*
X124371039Y-97482224D01*
X124371039Y-97482225D01*
X124463151Y-97679762D01*
X124463154Y-97679767D01*
X124465477Y-97684749D01*
X124596802Y-97872300D01*
X124758700Y-98034198D01*
X124763208Y-98037355D01*
X124763211Y-98037357D01*
X124850271Y-98098317D01*
X124894599Y-98153774D01*
X124904000Y-98201530D01*
X124904000Y-106397401D01*
X124903708Y-106405971D01*
X124899830Y-106462852D01*
X124901135Y-106470328D01*
X124901135Y-106470332D01*
X124910663Y-106524924D01*
X124911626Y-106531449D01*
X124915417Y-106562771D01*
X124919191Y-106593960D01*
X124921875Y-106601062D01*
X124922719Y-106604500D01*
X124926583Y-106618623D01*
X124927613Y-106622034D01*
X124928919Y-106629517D01*
X124931972Y-106636472D01*
X124954239Y-106687198D01*
X124956730Y-106693304D01*
X124978994Y-106752222D01*
X124983293Y-106758477D01*
X124984935Y-106761618D01*
X124992033Y-106774372D01*
X124993870Y-106777478D01*
X124996923Y-106784433D01*
X125001548Y-106790460D01*
X125001550Y-106790464D01*
X125035265Y-106834402D01*
X125039129Y-106839720D01*
X125052915Y-106859778D01*
X125075013Y-106927246D01*
X125073158Y-106953024D01*
X125072879Y-106954607D01*
X125071457Y-106959913D01*
X125070979Y-106965380D01*
X125070978Y-106965384D01*
X125051992Y-107182395D01*
X125051502Y-107188000D01*
X125071457Y-107416087D01*
X125071878Y-107417660D01*
X125064141Y-107487031D01*
X125037020Y-107527445D01*
X123842370Y-108722095D01*
X123780058Y-108756121D01*
X123753275Y-108759000D01*
X123146922Y-108759000D01*
X123078801Y-108738998D01*
X123046096Y-108708565D01*
X123003642Y-108651919D01*
X122998261Y-108644739D01*
X122881705Y-108557385D01*
X122868680Y-108552502D01*
X122842904Y-108542839D01*
X122786140Y-108500197D01*
X122761440Y-108433636D01*
X122776648Y-108364287D01*
X122798039Y-108335762D01*
X123156038Y-107977763D01*
X123162304Y-107971909D01*
X123199549Y-107939418D01*
X123205274Y-107934424D01*
X123241494Y-107882888D01*
X123245427Y-107877592D01*
X123279606Y-107834003D01*
X123279608Y-107834000D01*
X123284292Y-107828026D01*
X123287418Y-107821102D01*
X123289256Y-107818067D01*
X123296500Y-107805368D01*
X123298188Y-107802220D01*
X123302556Y-107796005D01*
X123325438Y-107737316D01*
X123327978Y-107731271D01*
X123353913Y-107673831D01*
X123355298Y-107666358D01*
X123356369Y-107662940D01*
X123360354Y-107648951D01*
X123361251Y-107645459D01*
X123364012Y-107638377D01*
X123369651Y-107595548D01*
X123372233Y-107575936D01*
X123373265Y-107569423D01*
X123383361Y-107514948D01*
X123383361Y-107514946D01*
X123384745Y-107507479D01*
X123381209Y-107446153D01*
X123381000Y-107438901D01*
X123381000Y-105955500D01*
X123401002Y-105887379D01*
X123454658Y-105840886D01*
X123507000Y-105829500D01*
X123530134Y-105829500D01*
X123592316Y-105822745D01*
X123728705Y-105771615D01*
X123845261Y-105684261D01*
X123932615Y-105567705D01*
X123983745Y-105431316D01*
X123990500Y-105369134D01*
X123990500Y-103672866D01*
X123983745Y-103610684D01*
X123932615Y-103474295D01*
X123845261Y-103357739D01*
X123728705Y-103270385D01*
X123592316Y-103219255D01*
X123548748Y-103214522D01*
X123533514Y-103212867D01*
X123533511Y-103212867D01*
X123530134Y-103212500D01*
X123526815Y-103212500D01*
X123459890Y-103188847D01*
X123424196Y-103142844D01*
X123422266Y-103143859D01*
X123416558Y-103133000D01*
X123416368Y-103132755D01*
X123416347Y-103132597D01*
X123396356Y-103094566D01*
X122694812Y-102393022D01*
X122680868Y-102385408D01*
X122679035Y-102385539D01*
X122672420Y-102389790D01*
X121966923Y-103095287D01*
X121944129Y-103137029D01*
X121941953Y-103147029D01*
X121891747Y-103197227D01*
X121838186Y-103212451D01*
X121837281Y-103212500D01*
X121833866Y-103212500D01*
X121830470Y-103212869D01*
X121830468Y-103212869D01*
X121818121Y-103214210D01*
X121771684Y-103219255D01*
X121635295Y-103270385D01*
X121518739Y-103357739D01*
X121485318Y-103402333D01*
X121428461Y-103444847D01*
X121357642Y-103449873D01*
X121295398Y-103415862D01*
X119906011Y-102026475D01*
X121369483Y-102026475D01*
X121388472Y-102243519D01*
X121390375Y-102254312D01*
X121446764Y-102464761D01*
X121450510Y-102475053D01*
X121542586Y-102672511D01*
X121548069Y-102682006D01*
X121584509Y-102734048D01*
X121594988Y-102742424D01*
X121608434Y-102735356D01*
X122309978Y-102033812D01*
X122316356Y-102022132D01*
X123046408Y-102022132D01*
X123046539Y-102023965D01*
X123050790Y-102030580D01*
X123756287Y-102736077D01*
X123768062Y-102742507D01*
X123780077Y-102733211D01*
X123815931Y-102682006D01*
X123821414Y-102672511D01*
X123913490Y-102475053D01*
X123917236Y-102464761D01*
X123973625Y-102254312D01*
X123975528Y-102243519D01*
X123994517Y-102026475D01*
X123994517Y-102015525D01*
X123975528Y-101798481D01*
X123973625Y-101787688D01*
X123917236Y-101577239D01*
X123913490Y-101566947D01*
X123821414Y-101369489D01*
X123815931Y-101359994D01*
X123779491Y-101307952D01*
X123769012Y-101299576D01*
X123755566Y-101306644D01*
X123054022Y-102008188D01*
X123046408Y-102022132D01*
X122316356Y-102022132D01*
X122317592Y-102019868D01*
X122317461Y-102018035D01*
X122313210Y-102011420D01*
X121607713Y-101305923D01*
X121595938Y-101299493D01*
X121583923Y-101308789D01*
X121548069Y-101359994D01*
X121542586Y-101369489D01*
X121450510Y-101566947D01*
X121446764Y-101577239D01*
X121390375Y-101787688D01*
X121388472Y-101798481D01*
X121369483Y-102015525D01*
X121369483Y-102026475D01*
X119906011Y-102026475D01*
X119437980Y-101558444D01*
X119403954Y-101496132D01*
X119403020Y-101449038D01*
X119403543Y-101447087D01*
X119423498Y-101219000D01*
X119403543Y-100990913D01*
X119390401Y-100941867D01*
X119388290Y-100933988D01*
X121960576Y-100933988D01*
X121967644Y-100947434D01*
X122669188Y-101648978D01*
X122683132Y-101656592D01*
X122684965Y-101656461D01*
X122691580Y-101652210D01*
X123397077Y-100946713D01*
X123403507Y-100934938D01*
X123394211Y-100922923D01*
X123343006Y-100887069D01*
X123333511Y-100881586D01*
X123136053Y-100789510D01*
X123125761Y-100785764D01*
X122915312Y-100729375D01*
X122904519Y-100727472D01*
X122687475Y-100708483D01*
X122676525Y-100708483D01*
X122459481Y-100727472D01*
X122448688Y-100729375D01*
X122238239Y-100785764D01*
X122227947Y-100789510D01*
X122030489Y-100881586D01*
X122020994Y-100887069D01*
X121968952Y-100923509D01*
X121960576Y-100933988D01*
X119388290Y-100933988D01*
X119345707Y-100775067D01*
X119345706Y-100775065D01*
X119344284Y-100769757D01*
X119325454Y-100729375D01*
X119249849Y-100567238D01*
X119249846Y-100567233D01*
X119247523Y-100562251D01*
X119116198Y-100374700D01*
X118954300Y-100212802D01*
X118949792Y-100209645D01*
X118949789Y-100209643D01*
X118871611Y-100154902D01*
X118766749Y-100081477D01*
X118761767Y-100079154D01*
X118761762Y-100079151D01*
X118564225Y-99987039D01*
X118564224Y-99987039D01*
X118559243Y-99984716D01*
X118553935Y-99983294D01*
X118553933Y-99983293D01*
X118343402Y-99926881D01*
X118343400Y-99926881D01*
X118338087Y-99925457D01*
X118110000Y-99905502D01*
X118104525Y-99905981D01*
X117887386Y-99924978D01*
X117887384Y-99924978D01*
X117881913Y-99925457D01*
X117880340Y-99925878D01*
X117810969Y-99918141D01*
X117770555Y-99891020D01*
X117461632Y-99582097D01*
X117427606Y-99519785D01*
X117432671Y-99448970D01*
X117475218Y-99392134D01*
X117541738Y-99367323D01*
X117603976Y-99378807D01*
X117660757Y-99405284D01*
X117666065Y-99406706D01*
X117666067Y-99406707D01*
X117876598Y-99463119D01*
X117876600Y-99463119D01*
X117881913Y-99464543D01*
X118110000Y-99484498D01*
X118338087Y-99464543D01*
X118343400Y-99463119D01*
X118343402Y-99463119D01*
X118553933Y-99406707D01*
X118553935Y-99406706D01*
X118559243Y-99405284D01*
X118574010Y-99398398D01*
X118761762Y-99310849D01*
X118761767Y-99310846D01*
X118766749Y-99308523D01*
X118871611Y-99235098D01*
X118949789Y-99180357D01*
X118949792Y-99180355D01*
X118954300Y-99177198D01*
X119116198Y-99015300D01*
X119247523Y-98827749D01*
X119249846Y-98822767D01*
X119249849Y-98822762D01*
X119341961Y-98625225D01*
X119341961Y-98625224D01*
X119344284Y-98620243D01*
X119397945Y-98419981D01*
X119402119Y-98404402D01*
X119402119Y-98404400D01*
X119403543Y-98399087D01*
X119423498Y-98171000D01*
X119421238Y-98145164D01*
X119408416Y-97998606D01*
X119422405Y-97929002D01*
X119471805Y-97878009D01*
X119540931Y-97861819D01*
X119607836Y-97885572D01*
X119623032Y-97898530D01*
X119758700Y-98034198D01*
X119763208Y-98037355D01*
X119763211Y-98037357D01*
X119769772Y-98041951D01*
X119946251Y-98165523D01*
X119951233Y-98167846D01*
X119951238Y-98167849D01*
X120148775Y-98259961D01*
X120153757Y-98262284D01*
X120159065Y-98263706D01*
X120159067Y-98263707D01*
X120369598Y-98320119D01*
X120369600Y-98320119D01*
X120374913Y-98321543D01*
X120603000Y-98341498D01*
X120831087Y-98321543D01*
X120836400Y-98320119D01*
X120836402Y-98320119D01*
X121046933Y-98263707D01*
X121046935Y-98263706D01*
X121052243Y-98262284D01*
X121057225Y-98259961D01*
X121254762Y-98167849D01*
X121254767Y-98167846D01*
X121259749Y-98165523D01*
X121436228Y-98041951D01*
X121442789Y-98037357D01*
X121442792Y-98037355D01*
X121447300Y-98034198D01*
X121609198Y-97872300D01*
X121740523Y-97684749D01*
X121742846Y-97679767D01*
X121742849Y-97679762D01*
X121834961Y-97482225D01*
X121834961Y-97482224D01*
X121837284Y-97477243D01*
X121839693Y-97468255D01*
X121895119Y-97261402D01*
X121895119Y-97261400D01*
X121896543Y-97256087D01*
X121916498Y-97028000D01*
X121896543Y-96799913D01*
X121837284Y-96578757D01*
X121806450Y-96512633D01*
X121742849Y-96376238D01*
X121742846Y-96376233D01*
X121740523Y-96371251D01*
X121640190Y-96227961D01*
X121612357Y-96188211D01*
X121612355Y-96188208D01*
X121609198Y-96183700D01*
X121447300Y-96021802D01*
X121442792Y-96018645D01*
X121442789Y-96018643D01*
X121347510Y-95951928D01*
X121259749Y-95890477D01*
X121254767Y-95888154D01*
X121254762Y-95888151D01*
X121057225Y-95796039D01*
X121057224Y-95796039D01*
X121052243Y-95793716D01*
X121046935Y-95792294D01*
X121046933Y-95792293D01*
X120836402Y-95735881D01*
X120836400Y-95735881D01*
X120831087Y-95734457D01*
X120603000Y-95714502D01*
X120374913Y-95734457D01*
X120369600Y-95735881D01*
X120369598Y-95735881D01*
X120159067Y-95792293D01*
X120159065Y-95792294D01*
X120153757Y-95793716D01*
X120148776Y-95796039D01*
X120148775Y-95796039D01*
X119951238Y-95888151D01*
X119951233Y-95888154D01*
X119946251Y-95890477D01*
X119858490Y-95951928D01*
X119763211Y-96018643D01*
X119763208Y-96018645D01*
X119758700Y-96021802D01*
X119596802Y-96183700D01*
X119593645Y-96188208D01*
X119593643Y-96188211D01*
X119565810Y-96227961D01*
X119465477Y-96371251D01*
X119463154Y-96376233D01*
X119463151Y-96376238D01*
X119399550Y-96512633D01*
X119368716Y-96578757D01*
X119309457Y-96799913D01*
X119289502Y-97028000D01*
X119289981Y-97033475D01*
X119289981Y-97033476D01*
X119304584Y-97200394D01*
X119290595Y-97269998D01*
X119241195Y-97320991D01*
X119172069Y-97337181D01*
X119105164Y-97313428D01*
X119089968Y-97300470D01*
X118954300Y-97164802D01*
X118949792Y-97161645D01*
X118949789Y-97161643D01*
X118862729Y-97100683D01*
X118766749Y-97033477D01*
X118761767Y-97031154D01*
X118761762Y-97031151D01*
X118564225Y-96939039D01*
X118564224Y-96939039D01*
X118559243Y-96936716D01*
X118553935Y-96935294D01*
X118553933Y-96935293D01*
X118343402Y-96878881D01*
X118343400Y-96878881D01*
X118338087Y-96877457D01*
X118110000Y-96857502D01*
X117881913Y-96877457D01*
X117880341Y-96877878D01*
X117810972Y-96870142D01*
X117770559Y-96843023D01*
X117163398Y-96235863D01*
X117129375Y-96173553D01*
X117134439Y-96102738D01*
X117176986Y-96045902D01*
X117243506Y-96021091D01*
X117312880Y-96036182D01*
X117324766Y-96043557D01*
X117448742Y-96130366D01*
X117453251Y-96133523D01*
X117458233Y-96135846D01*
X117458238Y-96135849D01*
X117655775Y-96227961D01*
X117660757Y-96230284D01*
X117666065Y-96231706D01*
X117666067Y-96231707D01*
X117876598Y-96288119D01*
X117876600Y-96288119D01*
X117881913Y-96289543D01*
X118110000Y-96309498D01*
X118338087Y-96289543D01*
X118343400Y-96288119D01*
X118343402Y-96288119D01*
X118553933Y-96231707D01*
X118553935Y-96231706D01*
X118559243Y-96230284D01*
X118564225Y-96227961D01*
X118761762Y-96135849D01*
X118761767Y-96135846D01*
X118766749Y-96133523D01*
X118881805Y-96052960D01*
X118949789Y-96005357D01*
X118949792Y-96005355D01*
X118954300Y-96002198D01*
X119116198Y-95840300D01*
X119247523Y-95652749D01*
X119249846Y-95647767D01*
X119249849Y-95647762D01*
X119341961Y-95450225D01*
X119341961Y-95450224D01*
X119344284Y-95445243D01*
X119403543Y-95224087D01*
X119423498Y-94996000D01*
X119403543Y-94767913D01*
X119403514Y-94767803D01*
X119411198Y-94698899D01*
X119444585Y-94652631D01*
X119464056Y-94635645D01*
X119464057Y-94635644D01*
X119469784Y-94630648D01*
X119506008Y-94579107D01*
X119509933Y-94573822D01*
X119544117Y-94530225D01*
X119548802Y-94524250D01*
X119551926Y-94517332D01*
X119553755Y-94514311D01*
X119561010Y-94501592D01*
X119562698Y-94498444D01*
X119567066Y-94492229D01*
X119589948Y-94433540D01*
X119592488Y-94427495D01*
X119618423Y-94370055D01*
X119619808Y-94362582D01*
X119620879Y-94359164D01*
X119624864Y-94345175D01*
X119625761Y-94341683D01*
X119628522Y-94334601D01*
X119636743Y-94272160D01*
X119637775Y-94265647D01*
X119647871Y-94211172D01*
X119647871Y-94211170D01*
X119649255Y-94203703D01*
X119645719Y-94142377D01*
X119645510Y-94135125D01*
X119645510Y-93349500D01*
X119665512Y-93281379D01*
X119719168Y-93234886D01*
X119771510Y-93223500D01*
X120804134Y-93223500D01*
X120866316Y-93216745D01*
X121002705Y-93165615D01*
X121119261Y-93078261D01*
X121206615Y-92961705D01*
X121257745Y-92825316D01*
X121264500Y-92763134D01*
X121264500Y-92016866D01*
X121257745Y-91954684D01*
X121254971Y-91947284D01*
X121253966Y-91943058D01*
X121253966Y-91884761D01*
X121258105Y-91867354D01*
X121263631Y-91816486D01*
X121264000Y-91809672D01*
X121264000Y-91712115D01*
X121259525Y-91696876D01*
X121258135Y-91695671D01*
X121250452Y-91694000D01*
X121150910Y-91694000D01*
X121082789Y-91673998D01*
X121075345Y-91668826D01*
X121002705Y-91614385D01*
X120866316Y-91563255D01*
X120859010Y-91562461D01*
X120797576Y-91527365D01*
X120764756Y-91464410D01*
X120771182Y-91393705D01*
X120814814Y-91337698D01*
X120858940Y-91317546D01*
X120866316Y-91316745D01*
X121002705Y-91265615D01*
X121071343Y-91214174D01*
X121137848Y-91189326D01*
X121146907Y-91189000D01*
X121496981Y-91189000D01*
X121565102Y-91209002D01*
X121611595Y-91262658D01*
X121622515Y-91312856D01*
X121622502Y-91313000D01*
X121642457Y-91541087D01*
X121643881Y-91546400D01*
X121643881Y-91546402D01*
X121678071Y-91673998D01*
X121701716Y-91762243D01*
X121704039Y-91767224D01*
X121704039Y-91767225D01*
X121796151Y-91964762D01*
X121796154Y-91964767D01*
X121798477Y-91969749D01*
X121929802Y-92157300D01*
X122091700Y-92319198D01*
X122096208Y-92322355D01*
X122096217Y-92322361D01*
X122279251Y-92450523D01*
X122284233Y-92452846D01*
X122284238Y-92452849D01*
X122476982Y-92542726D01*
X122486757Y-92547284D01*
X122492065Y-92548706D01*
X122492067Y-92548707D01*
X122702598Y-92605119D01*
X122702600Y-92605119D01*
X122707913Y-92606543D01*
X122936000Y-92626498D01*
X123164087Y-92606543D01*
X123169400Y-92605119D01*
X123169402Y-92605119D01*
X123379933Y-92548707D01*
X123379935Y-92548706D01*
X123385243Y-92547284D01*
X123395018Y-92542726D01*
X123587762Y-92452849D01*
X123587767Y-92452846D01*
X123592749Y-92450523D01*
X123775783Y-92322361D01*
X123775792Y-92322355D01*
X123780300Y-92319198D01*
X123942198Y-92157300D01*
X124073523Y-91969749D01*
X124075846Y-91964767D01*
X124075849Y-91964762D01*
X124167961Y-91767225D01*
X124167961Y-91767224D01*
X124170284Y-91762243D01*
X124193930Y-91673998D01*
X124228119Y-91546402D01*
X124228119Y-91546400D01*
X124229543Y-91541087D01*
X124249498Y-91313000D01*
X124229543Y-91084913D01*
X124208191Y-91005225D01*
X124171707Y-90869067D01*
X124171706Y-90869065D01*
X124170284Y-90863757D01*
X124167961Y-90858775D01*
X124075849Y-90661238D01*
X124075846Y-90661233D01*
X124073523Y-90656251D01*
X123942198Y-90468700D01*
X123780300Y-90306802D01*
X123775792Y-90303645D01*
X123775789Y-90303643D01*
X123697611Y-90248902D01*
X123592749Y-90175477D01*
X123587767Y-90173154D01*
X123587762Y-90173151D01*
X123390225Y-90081039D01*
X123390224Y-90081039D01*
X123385243Y-90078716D01*
X123379935Y-90077294D01*
X123379933Y-90077293D01*
X123169402Y-90020881D01*
X123169400Y-90020881D01*
X123164087Y-90019457D01*
X122936000Y-89999502D01*
X122707913Y-90019457D01*
X122702598Y-90020881D01*
X122702599Y-90020881D01*
X122617854Y-90043588D01*
X122546878Y-90041898D01*
X122490295Y-90004711D01*
X122462153Y-89972452D01*
X122457158Y-89966726D01*
X122405622Y-89930506D01*
X122400326Y-89926573D01*
X122356737Y-89892394D01*
X122356734Y-89892392D01*
X122350760Y-89887708D01*
X122343836Y-89884582D01*
X122340801Y-89882744D01*
X122328102Y-89875500D01*
X122324954Y-89873812D01*
X122318739Y-89869444D01*
X122260050Y-89846562D01*
X122254005Y-89844022D01*
X122196565Y-89818087D01*
X122189092Y-89816702D01*
X122185674Y-89815631D01*
X122171685Y-89811646D01*
X122168193Y-89810749D01*
X122161111Y-89807988D01*
X122153578Y-89806996D01*
X122153577Y-89806996D01*
X122098670Y-89799767D01*
X122092157Y-89798735D01*
X122037682Y-89788639D01*
X122037680Y-89788639D01*
X122030213Y-89787255D01*
X122022633Y-89787692D01*
X122022632Y-89787692D01*
X121968888Y-89790791D01*
X121961635Y-89791000D01*
X121146907Y-89791000D01*
X121078786Y-89770998D01*
X121071342Y-89765826D01*
X121002705Y-89714385D01*
X120866316Y-89663255D01*
X120804134Y-89656500D01*
X119647866Y-89656500D01*
X119585684Y-89663255D01*
X119449295Y-89714385D01*
X119332739Y-89801739D01*
X119245385Y-89918295D01*
X119242233Y-89926703D01*
X119237923Y-89934575D01*
X119235543Y-89933272D01*
X119201336Y-89978804D01*
X119134773Y-90003501D01*
X119065425Y-89988291D01*
X119015309Y-89938003D01*
X119012067Y-89930903D01*
X119009766Y-89926701D01*
X119006615Y-89918295D01*
X118919261Y-89801739D01*
X118802705Y-89714385D01*
X118666316Y-89663255D01*
X118604134Y-89656500D01*
X117447866Y-89656500D01*
X117385684Y-89663255D01*
X117249295Y-89714385D01*
X117132739Y-89801739D01*
X117117496Y-89822078D01*
X117115026Y-89825374D01*
X117058166Y-89867888D01*
X116987347Y-89872913D01*
X116925054Y-89838853D01*
X116910987Y-89822078D01*
X116833361Y-89711216D01*
X116833356Y-89711210D01*
X116830198Y-89706700D01*
X116668300Y-89544802D01*
X116663792Y-89541645D01*
X116663789Y-89541643D01*
X116554243Y-89464938D01*
X116480749Y-89413477D01*
X116475767Y-89411154D01*
X116475762Y-89411151D01*
X116278225Y-89319039D01*
X116278224Y-89319039D01*
X116273243Y-89316716D01*
X116267935Y-89315294D01*
X116267933Y-89315293D01*
X116057402Y-89258881D01*
X116057400Y-89258881D01*
X116052087Y-89257457D01*
X115824000Y-89237502D01*
X115595913Y-89257457D01*
X115590600Y-89258881D01*
X115590598Y-89258881D01*
X115380067Y-89315293D01*
X115380065Y-89315294D01*
X115374757Y-89316716D01*
X115369776Y-89319039D01*
X115369775Y-89319039D01*
X115172238Y-89411151D01*
X115172233Y-89411154D01*
X115167251Y-89413477D01*
X115093757Y-89464938D01*
X114984211Y-89541643D01*
X114984208Y-89541645D01*
X114979700Y-89544802D01*
X114817802Y-89706700D01*
X114814645Y-89711208D01*
X114814643Y-89711211D01*
X114776401Y-89765826D01*
X114686477Y-89894251D01*
X114684154Y-89899233D01*
X114684151Y-89899238D01*
X114616840Y-90043588D01*
X114589716Y-90101757D01*
X114588294Y-90107065D01*
X114588293Y-90107067D01*
X114569117Y-90178634D01*
X114530457Y-90322913D01*
X114510502Y-90551000D01*
X114530457Y-90779087D01*
X114589716Y-91000243D01*
X114592039Y-91005224D01*
X114592039Y-91005225D01*
X114684151Y-91202762D01*
X114684154Y-91202767D01*
X114686477Y-91207749D01*
X114731821Y-91272507D01*
X114802649Y-91373659D01*
X114817802Y-91395300D01*
X114979700Y-91557198D01*
X114984208Y-91560355D01*
X114984211Y-91560357D01*
X115071271Y-91621317D01*
X115115599Y-91676774D01*
X115125000Y-91724530D01*
X115125000Y-95856401D01*
X115124708Y-95864971D01*
X115123128Y-95888151D01*
X115120830Y-95921852D01*
X115122135Y-95929328D01*
X115122135Y-95929332D01*
X115131663Y-95983924D01*
X115132626Y-95990449D01*
X115138297Y-96037307D01*
X115140191Y-96052960D01*
X115142875Y-96060062D01*
X115143719Y-96063500D01*
X115147583Y-96077623D01*
X115148613Y-96081034D01*
X115149919Y-96088517D01*
X115152972Y-96095472D01*
X115175239Y-96146198D01*
X115177730Y-96152304D01*
X115191299Y-96188211D01*
X115199994Y-96211222D01*
X115204293Y-96217477D01*
X115205935Y-96220618D01*
X115213033Y-96233372D01*
X115214870Y-96236478D01*
X115217923Y-96243433D01*
X115222548Y-96249460D01*
X115222550Y-96249464D01*
X115256265Y-96293402D01*
X115260129Y-96298720D01*
X115295821Y-96350652D01*
X115301491Y-96355704D01*
X115301492Y-96355705D01*
X115341688Y-96391518D01*
X115346964Y-96396499D01*
X116782020Y-97831555D01*
X116816046Y-97893867D01*
X116816980Y-97940961D01*
X116816457Y-97942913D01*
X116815978Y-97948384D01*
X116815978Y-97948386D01*
X116798762Y-98145164D01*
X116796502Y-98171000D01*
X116816457Y-98399087D01*
X116817881Y-98404400D01*
X116817881Y-98404402D01*
X116822056Y-98419981D01*
X116875716Y-98620243D01*
X116878039Y-98625224D01*
X116878039Y-98625225D01*
X116902193Y-98677023D01*
X116912854Y-98747215D01*
X116883874Y-98812027D01*
X116824454Y-98850884D01*
X116753460Y-98851447D01*
X116698903Y-98819368D01*
X115576497Y-97696962D01*
X115570643Y-97690696D01*
X115538152Y-97653451D01*
X115533158Y-97647726D01*
X115481622Y-97611506D01*
X115476326Y-97607573D01*
X115432737Y-97573394D01*
X115432734Y-97573392D01*
X115426760Y-97568708D01*
X115419836Y-97565582D01*
X115416801Y-97563744D01*
X115404102Y-97556500D01*
X115400954Y-97554812D01*
X115394739Y-97550444D01*
X115336050Y-97527562D01*
X115330005Y-97525022D01*
X115272565Y-97499087D01*
X115265092Y-97497702D01*
X115261674Y-97496631D01*
X115247685Y-97492646D01*
X115244193Y-97491749D01*
X115237111Y-97488988D01*
X115229578Y-97487996D01*
X115229577Y-97487996D01*
X115174670Y-97480767D01*
X115168157Y-97479735D01*
X115113682Y-97469639D01*
X115113680Y-97469639D01*
X115106213Y-97468255D01*
X115098633Y-97468692D01*
X115098632Y-97468692D01*
X115044888Y-97471791D01*
X115037635Y-97472000D01*
X111663530Y-97472000D01*
X111595409Y-97451998D01*
X111560317Y-97418271D01*
X111499357Y-97331211D01*
X111499355Y-97331208D01*
X111496198Y-97326700D01*
X111334300Y-97164802D01*
X111329792Y-97161645D01*
X111329789Y-97161643D01*
X111242729Y-97100683D01*
X111198401Y-97045226D01*
X111189000Y-96997470D01*
X111189000Y-96169530D01*
X111209002Y-96101409D01*
X111242729Y-96066317D01*
X111329789Y-96005357D01*
X111329792Y-96005355D01*
X111334300Y-96002198D01*
X111496198Y-95840300D01*
X111627523Y-95652749D01*
X111629846Y-95647767D01*
X111629849Y-95647762D01*
X111721961Y-95450225D01*
X111721961Y-95450224D01*
X111724284Y-95445243D01*
X111783543Y-95224087D01*
X111803498Y-94996000D01*
X111783543Y-94767913D01*
X111746763Y-94630648D01*
X111725707Y-94552067D01*
X111725706Y-94552065D01*
X111724284Y-94546757D01*
X111705920Y-94507375D01*
X111629849Y-94344238D01*
X111629846Y-94344233D01*
X111627523Y-94339251D01*
X111496198Y-94151700D01*
X111334300Y-93989802D01*
X111329792Y-93986645D01*
X111329789Y-93986643D01*
X111251611Y-93931902D01*
X111146749Y-93858477D01*
X111141767Y-93856154D01*
X111141762Y-93856151D01*
X110944225Y-93764039D01*
X110944224Y-93764039D01*
X110939243Y-93761716D01*
X110933935Y-93760294D01*
X110933933Y-93760293D01*
X110723402Y-93703881D01*
X110723400Y-93703881D01*
X110718087Y-93702457D01*
X110490000Y-93682502D01*
X110261913Y-93702457D01*
X110256600Y-93703881D01*
X110256598Y-93703881D01*
X110191297Y-93721379D01*
X110040757Y-93761716D01*
X110039368Y-93762364D01*
X109969738Y-93766788D01*
X109907698Y-93732268D01*
X109874169Y-93669688D01*
X109871499Y-93643884D01*
X109871499Y-91722868D01*
X109891501Y-91654747D01*
X109945157Y-91608254D01*
X110015431Y-91598150D01*
X110069770Y-91619655D01*
X110162994Y-91684931D01*
X110172489Y-91690414D01*
X110369947Y-91782490D01*
X110380239Y-91786236D01*
X110590688Y-91842625D01*
X110601481Y-91844528D01*
X110818525Y-91863517D01*
X110829475Y-91863517D01*
X111046519Y-91844528D01*
X111057312Y-91842625D01*
X111267761Y-91786236D01*
X111278053Y-91782490D01*
X111475511Y-91690414D01*
X111485006Y-91684931D01*
X111537048Y-91648491D01*
X111545424Y-91638012D01*
X111538356Y-91624566D01*
X110553885Y-90640095D01*
X110519859Y-90577783D01*
X110521694Y-90552132D01*
X111188408Y-90552132D01*
X111188539Y-90553965D01*
X111192790Y-90560580D01*
X111898287Y-91266077D01*
X111910062Y-91272507D01*
X111922077Y-91263211D01*
X111957931Y-91212006D01*
X111963414Y-91202511D01*
X112055490Y-91005053D01*
X112059236Y-90994761D01*
X112115625Y-90784312D01*
X112117528Y-90773519D01*
X112136517Y-90556475D01*
X112136517Y-90545525D01*
X112117528Y-90328481D01*
X112115625Y-90317688D01*
X112059236Y-90107239D01*
X112055490Y-90096947D01*
X111963414Y-89899489D01*
X111957931Y-89889994D01*
X111921491Y-89837952D01*
X111911012Y-89829576D01*
X111897566Y-89836644D01*
X111196022Y-90538188D01*
X111188408Y-90552132D01*
X110521694Y-90552132D01*
X110524924Y-90506968D01*
X110553885Y-90461905D01*
X111539077Y-89476713D01*
X111545507Y-89464938D01*
X111536211Y-89452923D01*
X111485006Y-89417069D01*
X111475505Y-89411583D01*
X111443887Y-89396839D01*
X111390602Y-89349922D01*
X111371142Y-89281644D01*
X111391685Y-89213684D01*
X111408043Y-89193550D01*
X113759688Y-86841905D01*
X113822000Y-86807879D01*
X113848783Y-86805000D01*
X118740290Y-86805000D01*
X118808411Y-86825002D01*
X118847723Y-86865165D01*
X118963672Y-87054376D01*
X119128102Y-87246898D01*
X119320624Y-87411328D01*
X119536498Y-87543616D01*
X119541068Y-87545509D01*
X119541072Y-87545511D01*
X119765836Y-87638611D01*
X119770409Y-87640505D01*
X119855032Y-87660821D01*
X120011784Y-87698454D01*
X120011790Y-87698455D01*
X120016597Y-87699609D01*
X120269000Y-87719474D01*
X120521403Y-87699609D01*
X120526210Y-87698455D01*
X120526216Y-87698454D01*
X120682968Y-87660821D01*
X120767591Y-87640505D01*
X120772164Y-87638611D01*
X120996928Y-87545511D01*
X120996932Y-87545509D01*
X121001502Y-87543616D01*
X121217376Y-87411328D01*
X121409898Y-87246898D01*
X121507097Y-87133093D01*
X121566548Y-87094284D01*
X121637542Y-87093778D01*
X121697541Y-87131734D01*
X121703733Y-87139358D01*
X121729156Y-87173279D01*
X121734539Y-87180461D01*
X121851095Y-87267815D01*
X121987484Y-87318945D01*
X122049666Y-87325700D01*
X124076334Y-87325700D01*
X124138516Y-87318945D01*
X124274905Y-87267815D01*
X124391461Y-87180461D01*
X124478815Y-87063905D01*
X124481966Y-87055498D01*
X124481970Y-87055492D01*
X124482504Y-87054067D01*
X124483411Y-87052860D01*
X124486277Y-87047625D01*
X124487033Y-87048039D01*
X124525147Y-86997304D01*
X124591710Y-86972607D01*
X124661058Y-86987817D01*
X124680969Y-87001357D01*
X124751131Y-87059606D01*
X124759578Y-87065521D01*
X124959809Y-87182526D01*
X124969096Y-87186976D01*
X125185751Y-87269708D01*
X125195653Y-87272585D01*
X125331248Y-87300172D01*
X125345300Y-87298977D01*
X125349000Y-87288632D01*
X125349000Y-87286665D01*
X125857000Y-87286665D01*
X125861064Y-87300507D01*
X125874478Y-87302541D01*
X125905216Y-87298603D01*
X125915297Y-87296460D01*
X126137426Y-87229818D01*
X126147024Y-87226056D01*
X126355289Y-87124029D01*
X126364134Y-87118756D01*
X126552935Y-86984086D01*
X126560810Y-86977430D01*
X126725083Y-86813730D01*
X126731761Y-86805883D01*
X126867089Y-86617556D01*
X126872398Y-86608719D01*
X126975147Y-86400821D01*
X126978946Y-86391226D01*
X127046360Y-86169343D01*
X127048539Y-86159262D01*
X127053186Y-86123961D01*
X127050975Y-86109779D01*
X127037817Y-86106000D01*
X125875115Y-86106000D01*
X125859876Y-86110475D01*
X125858671Y-86111865D01*
X125857000Y-86119548D01*
X125857000Y-87286665D01*
X125349000Y-87286665D01*
X125349000Y-85724000D01*
X125369002Y-85655879D01*
X125422658Y-85609386D01*
X125475000Y-85598000D01*
X127040128Y-85598000D01*
X127053659Y-85594027D01*
X127054964Y-85584947D01*
X127003642Y-85380622D01*
X127000324Y-85370874D01*
X126907846Y-85158191D01*
X126902674Y-85148545D01*
X126888109Y-85079059D01*
X126913423Y-85012729D01*
X126970580Y-84970614D01*
X127013716Y-84963000D01*
X129541000Y-84963000D01*
X129609121Y-84983002D01*
G37*
%TD.AperFunction*%
%TD*%
M02*
