%TF.GenerationSoftware,KiCad,Pcbnew,(5.99.0-6613-ge739d5ba65)*%
%TF.CreationDate,2020-10-27T11:12:12+02:00*%
%TF.ProjectId,campanero-lima,63616d70-616e-4657-926f-2d6c696d612e,rev?*%
%TF.SameCoordinates,Original*%
%TF.FileFunction,Copper,L1,Top*%
%TF.FilePolarity,Positive*%
%FSLAX46Y46*%
G04 Gerber Fmt 4.6, Leading zero omitted, Abs format (unit mm)*
G04 Created by KiCad (PCBNEW (5.99.0-6613-ge739d5ba65)) date 2020-10-27 11:12:12*
%MOMM*%
%LPD*%
G01*
G04 APERTURE LIST*
%TA.AperFunction,ComponentPad*%
%ADD10C,1.600000*%
%TD*%
%TA.AperFunction,ComponentPad*%
%ADD11O,1.600000X1.600000*%
%TD*%
%TA.AperFunction,ComponentPad*%
%ADD12R,1.600000X1.600000*%
%TD*%
%TA.AperFunction,ComponentPad*%
%ADD13R,2.200000X2.200000*%
%TD*%
%TA.AperFunction,ComponentPad*%
%ADD14O,2.200000X2.200000*%
%TD*%
%TA.AperFunction,ComponentPad*%
%ADD15R,1.930400X1.930400*%
%TD*%
%TA.AperFunction,ComponentPad*%
%ADD16O,1.930400X1.930400*%
%TD*%
%TA.AperFunction,SMDPad,CuDef*%
%ADD17R,1.060000X0.650000*%
%TD*%
%TA.AperFunction,SMDPad,CuDef*%
%ADD18R,0.800000X0.900000*%
%TD*%
%TA.AperFunction,Conductor*%
%ADD19C,0.381000*%
%TD*%
G04 APERTURE END LIST*
D10*
%TO.P,C2,1*%
%TO.N,Net-(R4-Pad1)*%
X125603000Y-97028000D03*
%TO.P,C2,2*%
%TO.N,Net-(R5-Pad2)*%
X120603000Y-97028000D03*
%TD*%
%TO.P,R7,1*%
%TO.N,OUT*%
X128524000Y-105029000D03*
D11*
%TO.P,R7,2*%
%TO.N,GND*%
X128524000Y-97409000D03*
%TD*%
D12*
%TO.P,C5,1*%
%TO.N,VCC*%
X122682000Y-104521000D03*
D10*
%TO.P,C5,2*%
%TO.N,GND*%
X122682000Y-102021000D03*
%TD*%
%TO.P,R4,1*%
%TO.N,Net-(R4-Pad1)*%
X126365000Y-107188000D03*
D11*
%TO.P,R4,2*%
%TO.N,GND*%
X126365000Y-114808000D03*
%TD*%
D13*
%TO.P,D1,1,K*%
%TO.N,VCC*%
X110109000Y-86106000D03*
D14*
%TO.P,D1,2,A*%
%TO.N,+9V*%
X120269000Y-86106000D03*
%TD*%
D10*
%TO.P,R2,1*%
%TO.N,VCC*%
X118110000Y-101219000D03*
D11*
%TO.P,R2,2*%
%TO.N,Net-(R2-Pad2)*%
X110490000Y-101219000D03*
%TD*%
D10*
%TO.P,C3,1*%
%TO.N,Net-(R6-Pad2)*%
X115824000Y-90551000D03*
%TO.P,C3,2*%
%TO.N,GND*%
X110824000Y-90551000D03*
%TD*%
D15*
%TO.P,J3,1,Pin_1*%
%TO.N,IN*%
X115824000Y-114681000D03*
D16*
%TO.P,J3,2,Pin_2*%
%TO.N,GND*%
X118364000Y-114681000D03*
%TO.P,J3,3,Pin_3*%
%TO.N,Net-(J3-Pad3)*%
X120904000Y-114681000D03*
%TO.P,J3,4,Pin_4*%
%TO.N,OUT*%
X123444000Y-114681000D03*
%TD*%
D10*
%TO.P,C1,1*%
%TO.N,IN*%
X113030000Y-110490000D03*
%TO.P,C1,2*%
%TO.N,Net-(C1-Pad2)*%
X118030000Y-110490000D03*
%TD*%
%TO.P,R6,1*%
%TO.N,VCC*%
X110490000Y-98171000D03*
D11*
%TO.P,R6,2*%
%TO.N,Net-(R6-Pad2)*%
X118110000Y-98171000D03*
%TD*%
D15*
%TO.P,J1,1,Pin_1*%
%TO.N,+9V*%
X123063000Y-85852000D03*
D16*
%TO.P,J1,2,Pin_2*%
%TO.N,GND*%
X125603000Y-85852000D03*
%TD*%
D17*
%TO.P,U5,1,Flag*%
%TO.N,Net-(U5-Pad1)*%
X120226000Y-92390000D03*
%TO.P,U5,2,GND*%
%TO.N,GND*%
X120226000Y-91440000D03*
%TO.P,U5,3,OUT*%
%TO.N,Net-(C4-Pad1)*%
X120226000Y-90490000D03*
%TO.P,U5,4,Vs+*%
%TO.N,Net-(R5-Pad2)*%
X118026000Y-90490000D03*
%TO.P,U5,5,Vs-*%
%TO.N,Net-(R6-Pad2)*%
X118026000Y-92390000D03*
%TD*%
D15*
%TO.P,J2,1,Pin_1*%
%TO.N,+9V*%
X110490000Y-114681000D03*
D16*
%TO.P,J2,2,Pin_2*%
%TO.N,GND*%
X113030000Y-114681000D03*
%TD*%
D10*
%TO.P,R5,1*%
%TO.N,VCC*%
X110490000Y-94996000D03*
D11*
%TO.P,R5,2*%
%TO.N,Net-(R5-Pad2)*%
X118110000Y-94996000D03*
%TD*%
D10*
%TO.P,R1,1*%
%TO.N,IN*%
X110490000Y-107315000D03*
D11*
%TO.P,R1,2*%
%TO.N,GND*%
X118110000Y-107315000D03*
%TD*%
D10*
%TO.P,C4,1*%
%TO.N,Net-(C4-Pad1)*%
X122936000Y-91313000D03*
%TO.P,C4,2*%
%TO.N,OUT*%
X127936000Y-91313000D03*
%TD*%
D18*
%TO.P,Q1,1,D*%
%TO.N,VCC*%
X120335000Y-109458000D03*
%TO.P,Q1,2,S*%
%TO.N,Net-(R4-Pad1)*%
X122235000Y-109458000D03*
%TO.P,Q1,3,G*%
%TO.N,Net-(C1-Pad2)*%
X121285000Y-107458000D03*
%TD*%
D10*
%TO.P,R3,1*%
%TO.N,Net-(R2-Pad2)*%
X110490000Y-104267000D03*
D11*
%TO.P,R3,2*%
%TO.N,GND*%
X118110000Y-104267000D03*
%TD*%
D19*
%TO.N,OUT*%
X127333499Y-103838499D02*
X127333499Y-93297499D01*
X127936000Y-91313000D02*
X127936000Y-92694998D01*
X127936000Y-92694998D02*
X127333499Y-93297499D01*
%TO.N,+9V*%
X113507058Y-86106000D02*
X109172499Y-90440559D01*
X109172499Y-90440559D02*
X109172499Y-113363499D01*
%TO.N,Net-(C1-Pad2)*%
X118030000Y-110490000D02*
X118030000Y-110360734D01*
X118030000Y-110360734D02*
X120932734Y-107458000D01*
X120932734Y-107458000D02*
X121285000Y-107458000D01*
%TO.N,IN*%
X113030000Y-110490000D02*
X113030000Y-109855000D01*
X113030000Y-109855000D02*
X110490000Y-107315000D01*
X115824000Y-114681000D02*
X115824000Y-113284000D01*
X115824000Y-113284000D02*
X113030000Y-110490000D01*
%TO.N,Net-(R5-Pad2)*%
X118946510Y-94159490D02*
X118946510Y-91410510D01*
X118946510Y-91410510D02*
X118026000Y-90490000D01*
X118110000Y-94996000D02*
X118946510Y-94159490D01*
%TO.N,Net-(R4-Pad1)*%
X125603000Y-106426000D02*
X125603000Y-97028000D01*
X126365000Y-107188000D02*
X125603000Y-106426000D01*
X124095000Y-109458000D02*
X122235000Y-109458000D01*
X126365000Y-107188000D02*
X124095000Y-109458000D01*
%TO.N,Net-(R6-Pad2)*%
X117663000Y-92390000D02*
X115824000Y-90551000D01*
X115824000Y-95885000D02*
X115824000Y-90170000D01*
X118110000Y-98171000D02*
X115824000Y-95885000D01*
X118026000Y-92390000D02*
X117663000Y-92390000D01*
%TO.N,OUT*%
X128524000Y-105029000D02*
X127333499Y-103838499D01*
X128524000Y-109601000D02*
X128524000Y-105029000D01*
X123444000Y-114681000D02*
X128524000Y-109601000D01*
%TO.N,Net-(C4-Pad1)*%
X121986000Y-90490000D02*
X120226000Y-90490000D01*
X122809000Y-91313000D02*
X121986000Y-90490000D01*
%TO.N,VCC*%
X121412000Y-104521000D02*
X118110000Y-101219000D01*
X120687266Y-109458000D02*
X122682000Y-107463266D01*
X120335000Y-109458000D02*
X120687266Y-109458000D01*
X122682000Y-104521000D02*
X121412000Y-104521000D01*
X115062000Y-98171000D02*
X118110000Y-101219000D01*
X122682000Y-107463266D02*
X122682000Y-104521000D01*
X110490000Y-94996000D02*
X110490000Y-98171000D01*
X110490000Y-98171000D02*
X115062000Y-98171000D01*
%TO.N,+9V*%
X120269000Y-86106000D02*
X113507058Y-86106000D01*
X122809000Y-86106000D02*
X123063000Y-85852000D01*
X120269000Y-86106000D02*
X122809000Y-86106000D01*
X109172499Y-113363499D02*
X110490000Y-114681000D01*
%TO.N,Net-(R2-Pad2)*%
X110490000Y-104267000D02*
X110490000Y-101219000D01*
%TD*%
%TA.AperFunction,Conductor*%
%TO.N,GND*%
G36*
X129585033Y-105921929D02*
G01*
X129641869Y-105964476D01*
X129667001Y-106039985D01*
X129667001Y-115444000D01*
X129646999Y-115512121D01*
X129593343Y-115558614D01*
X129541001Y-115570000D01*
X127650676Y-115570000D01*
X127582555Y-115549998D01*
X127536062Y-115496342D01*
X127525958Y-115426068D01*
X127536481Y-115390750D01*
X127596491Y-115262057D01*
X127600239Y-115251761D01*
X127646398Y-115079497D01*
X127646127Y-115068111D01*
X127629127Y-115062000D01*
X126619002Y-115061999D01*
X126618996Y-115062000D01*
X126237000Y-115061999D01*
X126168879Y-115041997D01*
X126122386Y-114988341D01*
X126111000Y-114935999D01*
X126111000Y-114535885D01*
X126618999Y-114535885D01*
X126623474Y-114551124D01*
X126624864Y-114552329D01*
X126632547Y-114554000D01*
X127632971Y-114554001D01*
X127643900Y-114550792D01*
X127645403Y-114532791D01*
X127600239Y-114364238D01*
X127596493Y-114353946D01*
X127504417Y-114156487D01*
X127498934Y-114146991D01*
X127373975Y-113968531D01*
X127366919Y-113960123D01*
X127212877Y-113806081D01*
X127204469Y-113799025D01*
X127026009Y-113674066D01*
X127016513Y-113668583D01*
X126819057Y-113576509D01*
X126808761Y-113572761D01*
X126636497Y-113526602D01*
X126625111Y-113526873D01*
X126619000Y-113543873D01*
X126618999Y-114535885D01*
X126111000Y-114535885D01*
X126111001Y-113540029D01*
X126107792Y-113529100D01*
X126089791Y-113527597D01*
X125921238Y-113572761D01*
X125910946Y-113576507D01*
X125857951Y-113601219D01*
X125787759Y-113611880D01*
X125722946Y-113582900D01*
X125684090Y-113523480D01*
X125683527Y-113452486D01*
X125715606Y-113397929D01*
X128999427Y-110114108D01*
X129005693Y-110108254D01*
X129041447Y-110077064D01*
X129047174Y-110072068D01*
X129083388Y-110020540D01*
X129087304Y-110015267D01*
X129126177Y-109965691D01*
X129129302Y-109958770D01*
X129131145Y-109955727D01*
X129138384Y-109943035D01*
X129140070Y-109939892D01*
X129144438Y-109933676D01*
X129147196Y-109926602D01*
X129147201Y-109926593D01*
X129167323Y-109874984D01*
X129169877Y-109868907D01*
X129192657Y-109818451D01*
X129195784Y-109811525D01*
X129197168Y-109804057D01*
X129198245Y-109800621D01*
X129202239Y-109786599D01*
X129203122Y-109783159D01*
X129205883Y-109776078D01*
X129214103Y-109713634D01*
X129215131Y-109707142D01*
X129226611Y-109645205D01*
X129223209Y-109586209D01*
X129223000Y-109578955D01*
X129223000Y-106201924D01*
X129243002Y-106133803D01*
X129276729Y-106098711D01*
X129363469Y-106037975D01*
X129363472Y-106037973D01*
X129367980Y-106034816D01*
X129451906Y-105950890D01*
X129514218Y-105916864D01*
X129585033Y-105921929D01*
G37*
%TD.AperFunction*%
%TA.AperFunction,Conductor*%
G36*
X114809370Y-98906905D02*
G01*
X116782450Y-100879985D01*
X116816476Y-100942297D01*
X116817407Y-100989284D01*
X116816947Y-100991000D01*
X116816469Y-100996467D01*
X116816468Y-100996471D01*
X116797970Y-101207914D01*
X116797000Y-101219000D01*
X116816947Y-101447000D01*
X116876184Y-101668072D01*
X116878509Y-101673057D01*
X116970583Y-101870513D01*
X116970586Y-101870518D01*
X116972909Y-101875500D01*
X116976065Y-101880007D01*
X116976066Y-101880009D01*
X117083760Y-102033811D01*
X117104184Y-102062980D01*
X117266020Y-102224816D01*
X117270528Y-102227973D01*
X117270531Y-102227975D01*
X117448991Y-102352934D01*
X117453500Y-102356091D01*
X117458482Y-102358414D01*
X117458487Y-102358417D01*
X117525768Y-102389790D01*
X117660928Y-102452816D01*
X117882000Y-102512053D01*
X118110000Y-102532000D01*
X118115475Y-102531521D01*
X118332529Y-102512532D01*
X118332533Y-102512531D01*
X118338000Y-102512053D01*
X118339311Y-102511702D01*
X118408598Y-102519428D01*
X118449015Y-102546550D01*
X118759394Y-102856929D01*
X118793420Y-102919241D01*
X118788355Y-102990056D01*
X118745808Y-103046892D01*
X118679288Y-103071703D01*
X118617049Y-103060219D01*
X118564057Y-103035509D01*
X118553761Y-103031761D01*
X118381497Y-102985602D01*
X118370111Y-102985873D01*
X118364000Y-103002873D01*
X118364000Y-103994885D01*
X118368475Y-104010124D01*
X118369865Y-104011329D01*
X118377548Y-104013000D01*
X119377971Y-104013000D01*
X119388900Y-104009791D01*
X119390403Y-103991790D01*
X119345239Y-103823239D01*
X119341491Y-103812943D01*
X119316781Y-103759951D01*
X119306120Y-103689759D01*
X119335100Y-103624946D01*
X119394520Y-103586090D01*
X119465514Y-103585527D01*
X119520071Y-103617606D01*
X120898890Y-104996425D01*
X120904744Y-105002691D01*
X120935937Y-105038449D01*
X120935940Y-105038452D01*
X120940932Y-105044174D01*
X120947146Y-105048541D01*
X120992468Y-105080394D01*
X120997760Y-105084325D01*
X121047308Y-105123176D01*
X121054233Y-105126303D01*
X121057281Y-105128149D01*
X121069946Y-105135373D01*
X121073102Y-105137065D01*
X121079324Y-105141438D01*
X121086406Y-105144199D01*
X121138021Y-105164323D01*
X121144100Y-105166878D01*
X121201475Y-105192784D01*
X121208946Y-105194169D01*
X121212380Y-105195245D01*
X121226429Y-105199247D01*
X121229847Y-105200125D01*
X121236922Y-105202883D01*
X121244448Y-105203874D01*
X121244449Y-105203874D01*
X121260514Y-105205989D01*
X121325441Y-105234713D01*
X121369000Y-105316794D01*
X121369000Y-105321000D01*
X121415359Y-105534108D01*
X121421455Y-105543593D01*
X121421455Y-105543594D01*
X121451376Y-105590152D01*
X121494300Y-105656944D01*
X121501111Y-105662845D01*
X121501112Y-105662847D01*
X121597840Y-105746662D01*
X121597843Y-105746664D01*
X121604651Y-105752563D01*
X121612845Y-105756305D01*
X121612848Y-105756307D01*
X121700167Y-105796184D01*
X121737471Y-105813220D01*
X121746388Y-105814502D01*
X121874933Y-105832984D01*
X121939513Y-105862478D01*
X121977897Y-105922204D01*
X121983001Y-105957702D01*
X121983000Y-106393863D01*
X121962998Y-106461984D01*
X121909342Y-106508477D01*
X121829761Y-106514168D01*
X121829529Y-106515780D01*
X121778735Y-106508477D01*
X121689446Y-106495639D01*
X121689443Y-106495639D01*
X121685000Y-106495000D01*
X120885000Y-106495000D01*
X120671892Y-106541359D01*
X120662407Y-106547455D01*
X120662406Y-106547455D01*
X120556640Y-106615426D01*
X120549056Y-106620300D01*
X120543155Y-106627111D01*
X120543153Y-106627112D01*
X120459338Y-106723840D01*
X120459336Y-106723843D01*
X120453437Y-106730651D01*
X120449695Y-106738845D01*
X120449693Y-106738848D01*
X120426152Y-106790396D01*
X120392780Y-106863471D01*
X120391498Y-106872389D01*
X120391496Y-106872395D01*
X120374239Y-106992418D01*
X120338619Y-107063579D01*
X119568598Y-107833601D01*
X119506288Y-107867624D01*
X119435473Y-107862560D01*
X119378637Y-107820013D01*
X119353826Y-107753493D01*
X119357798Y-107711893D01*
X119391398Y-107586498D01*
X119391127Y-107575111D01*
X119374127Y-107569000D01*
X118382115Y-107569000D01*
X118366876Y-107573475D01*
X118365671Y-107574865D01*
X118364000Y-107582548D01*
X118364000Y-108582971D01*
X118367209Y-108593900D01*
X118385213Y-108595403D01*
X118506893Y-108562798D01*
X118577870Y-108564487D01*
X118636666Y-108604280D01*
X118664614Y-108669545D01*
X118652841Y-108739558D01*
X118628602Y-108773598D01*
X118251042Y-109151158D01*
X118188731Y-109185182D01*
X118150967Y-109187583D01*
X118035476Y-109177479D01*
X118035475Y-109177479D01*
X118030000Y-109177000D01*
X117802000Y-109196947D01*
X117580928Y-109256184D01*
X117483916Y-109301421D01*
X117378487Y-109350583D01*
X117378482Y-109350586D01*
X117373500Y-109352909D01*
X117368993Y-109356065D01*
X117368991Y-109356066D01*
X117190531Y-109481025D01*
X117190528Y-109481027D01*
X117186020Y-109484184D01*
X117024184Y-109646020D01*
X117021027Y-109650528D01*
X117021025Y-109650531D01*
X116953303Y-109747248D01*
X116892909Y-109833500D01*
X116890586Y-109838482D01*
X116890583Y-109838487D01*
X116858169Y-109908000D01*
X116796184Y-110040928D01*
X116736947Y-110262000D01*
X116717000Y-110490000D01*
X116736947Y-110718000D01*
X116796184Y-110939072D01*
X116798509Y-110944057D01*
X116890583Y-111141513D01*
X116890586Y-111141518D01*
X116892909Y-111146500D01*
X117024184Y-111333980D01*
X117186020Y-111495816D01*
X117190528Y-111498973D01*
X117190531Y-111498975D01*
X117368991Y-111623934D01*
X117373500Y-111627091D01*
X117378482Y-111629414D01*
X117378487Y-111629417D01*
X117483916Y-111678579D01*
X117580928Y-111723816D01*
X117802000Y-111783053D01*
X118030000Y-111803000D01*
X118258000Y-111783053D01*
X118479072Y-111723816D01*
X118576084Y-111678579D01*
X118681513Y-111629417D01*
X118681518Y-111629414D01*
X118686500Y-111627091D01*
X118691009Y-111623934D01*
X118869469Y-111498975D01*
X118869472Y-111498973D01*
X118873980Y-111495816D01*
X119035816Y-111333980D01*
X119167091Y-111146500D01*
X119169414Y-111141518D01*
X119169417Y-111141513D01*
X119261491Y-110944057D01*
X119263816Y-110939072D01*
X119323053Y-110718000D01*
X119343000Y-110490000D01*
X119329810Y-110339236D01*
X119343799Y-110269632D01*
X119393199Y-110218639D01*
X119462325Y-110202449D01*
X119547178Y-110244085D01*
X119547300Y-110243944D01*
X119554110Y-110249845D01*
X119554111Y-110249846D01*
X119650840Y-110333662D01*
X119650843Y-110333664D01*
X119657651Y-110339563D01*
X119665845Y-110343305D01*
X119665848Y-110343307D01*
X119781498Y-110396122D01*
X119790471Y-110400220D01*
X119799388Y-110401502D01*
X119930554Y-110420361D01*
X119930557Y-110420361D01*
X119935000Y-110421000D01*
X120735000Y-110421000D01*
X120948108Y-110374641D01*
X121003199Y-110339237D01*
X121063360Y-110300574D01*
X121063361Y-110300574D01*
X121070944Y-110295700D01*
X121093532Y-110269632D01*
X121160662Y-110192160D01*
X121160664Y-110192157D01*
X121166563Y-110185349D01*
X121171686Y-110174131D01*
X121173861Y-110171622D01*
X121175179Y-110169570D01*
X121175474Y-110169760D01*
X121218180Y-110120477D01*
X121286302Y-110100476D01*
X121354422Y-110120479D01*
X121392294Y-110158352D01*
X121447300Y-110243944D01*
X121454111Y-110249845D01*
X121454112Y-110249847D01*
X121550840Y-110333662D01*
X121550843Y-110333664D01*
X121557651Y-110339563D01*
X121565845Y-110343305D01*
X121565848Y-110343307D01*
X121681498Y-110396122D01*
X121690471Y-110400220D01*
X121699388Y-110401502D01*
X121830554Y-110420361D01*
X121830557Y-110420361D01*
X121835000Y-110421000D01*
X122635000Y-110421000D01*
X122848108Y-110374641D01*
X122903199Y-110339237D01*
X122963360Y-110300574D01*
X122963361Y-110300574D01*
X122970944Y-110295700D01*
X123010677Y-110249846D01*
X123053445Y-110200488D01*
X123113171Y-110162104D01*
X123148670Y-110157000D01*
X124068370Y-110157000D01*
X124076940Y-110157292D01*
X124124268Y-110160519D01*
X124124272Y-110160519D01*
X124131844Y-110161035D01*
X124139321Y-110159730D01*
X124139322Y-110159730D01*
X124166360Y-110155011D01*
X124193890Y-110150206D01*
X124200374Y-110149249D01*
X124262928Y-110141679D01*
X124270029Y-110138996D01*
X124273497Y-110138144D01*
X124287567Y-110134295D01*
X124291002Y-110133258D01*
X124298478Y-110131953D01*
X124356136Y-110106643D01*
X124362228Y-110104156D01*
X124421160Y-110081887D01*
X124427418Y-110077586D01*
X124430567Y-110075940D01*
X124443368Y-110068815D01*
X124446414Y-110067014D01*
X124453365Y-110063962D01*
X124459391Y-110059338D01*
X124459393Y-110059337D01*
X124503329Y-110025624D01*
X124508667Y-110021746D01*
X124554302Y-109990383D01*
X124554308Y-109990377D01*
X124560564Y-109986078D01*
X124599892Y-109941937D01*
X124604874Y-109936661D01*
X126025985Y-108515550D01*
X126088297Y-108481524D01*
X126135284Y-108480593D01*
X126137000Y-108481053D01*
X126142467Y-108481531D01*
X126142471Y-108481532D01*
X126359525Y-108500521D01*
X126365000Y-108501000D01*
X126593000Y-108481053D01*
X126814072Y-108421816D01*
X126911084Y-108376579D01*
X127016513Y-108327417D01*
X127016518Y-108327414D01*
X127021500Y-108325091D01*
X127033171Y-108316919D01*
X127204469Y-108196975D01*
X127204472Y-108196973D01*
X127208980Y-108193816D01*
X127370816Y-108031980D01*
X127410008Y-107976009D01*
X127498934Y-107849009D01*
X127498935Y-107849007D01*
X127502091Y-107844500D01*
X127504414Y-107839518D01*
X127504417Y-107839513D01*
X127584806Y-107667118D01*
X127631724Y-107613833D01*
X127700001Y-107594372D01*
X127767961Y-107614914D01*
X127814026Y-107668937D01*
X127825001Y-107720366D01*
X127825000Y-108494040D01*
X127825000Y-109259274D01*
X127788095Y-109348369D01*
X123921573Y-113214892D01*
X123859261Y-113248918D01*
X123810383Y-113249844D01*
X123614167Y-113214892D01*
X123588198Y-113210266D01*
X123588196Y-113210266D01*
X123583111Y-113209360D01*
X123505670Y-113208414D01*
X123346056Y-113206464D01*
X123346054Y-113206464D01*
X123340886Y-113206401D01*
X123101430Y-113243043D01*
X122871174Y-113318302D01*
X122866586Y-113320690D01*
X122866582Y-113320692D01*
X122660891Y-113427768D01*
X122656302Y-113430157D01*
X122652169Y-113433260D01*
X122652166Y-113433262D01*
X122483907Y-113559595D01*
X122462584Y-113575605D01*
X122295223Y-113750739D01*
X122292307Y-113755014D01*
X122279259Y-113774140D01*
X122224347Y-113819142D01*
X122153822Y-113827312D01*
X122076033Y-113780427D01*
X122075163Y-113779083D01*
X122010251Y-113707746D01*
X121915608Y-113603735D01*
X121915606Y-113603734D01*
X121912130Y-113599913D01*
X121908079Y-113596714D01*
X121908075Y-113596710D01*
X121726081Y-113452981D01*
X121722023Y-113449776D01*
X121509948Y-113332704D01*
X121328141Y-113268323D01*
X121286469Y-113253566D01*
X121286467Y-113253565D01*
X121281600Y-113251842D01*
X121143953Y-113227323D01*
X121048199Y-113210266D01*
X121048195Y-113210266D01*
X121043111Y-113209360D01*
X120965670Y-113208414D01*
X120806056Y-113206464D01*
X120806054Y-113206464D01*
X120800886Y-113206401D01*
X120561430Y-113243043D01*
X120331174Y-113318302D01*
X120326586Y-113320690D01*
X120326582Y-113320692D01*
X120120891Y-113427768D01*
X120116302Y-113430157D01*
X120112169Y-113433260D01*
X120112166Y-113433262D01*
X119943907Y-113559595D01*
X119922584Y-113575605D01*
X119755223Y-113750739D01*
X119752307Y-113755014D01*
X119739259Y-113774140D01*
X119684347Y-113819142D01*
X119613822Y-113827312D01*
X119535342Y-113780011D01*
X119531678Y-113775253D01*
X119375608Y-113603735D01*
X119368075Y-113596710D01*
X119186081Y-113452981D01*
X119177494Y-113447276D01*
X118974482Y-113335207D01*
X118965070Y-113330977D01*
X118746469Y-113253566D01*
X118736512Y-113250936D01*
X118635836Y-113233002D01*
X118622541Y-113234461D01*
X118618000Y-113249019D01*
X118618000Y-114809000D01*
X118597998Y-114877121D01*
X118544342Y-114923614D01*
X118492000Y-114935000D01*
X118236000Y-114935000D01*
X118167879Y-114914998D01*
X118121386Y-114861342D01*
X118110000Y-114809000D01*
X118110000Y-113247605D01*
X118106082Y-113234261D01*
X118091806Y-113232274D01*
X118026542Y-113242261D01*
X118016515Y-113244650D01*
X117796092Y-113316695D01*
X117786582Y-113320692D01*
X117580891Y-113427768D01*
X117572166Y-113433262D01*
X117437079Y-113534689D01*
X117370594Y-113559595D01*
X117301199Y-113544603D01*
X117255428Y-113502049D01*
X117181774Y-113387440D01*
X117181774Y-113387439D01*
X117176900Y-113379856D01*
X117170088Y-113373953D01*
X117073360Y-113290138D01*
X117073357Y-113290136D01*
X117066549Y-113284237D01*
X117058355Y-113280495D01*
X117058352Y-113280493D01*
X116941925Y-113227323D01*
X116933729Y-113223580D01*
X116897064Y-113218308D01*
X116793646Y-113203439D01*
X116793643Y-113203439D01*
X116789200Y-113202800D01*
X116626838Y-113202800D01*
X116558717Y-113182798D01*
X116510339Y-113115063D01*
X116507678Y-113116069D01*
X116505345Y-113109895D01*
X116504536Y-113106938D01*
X116504474Y-113106851D01*
X116504138Y-113105481D01*
X116500300Y-113091451D01*
X116499258Y-113088000D01*
X116497953Y-113080521D01*
X116472637Y-113022849D01*
X116470145Y-113016743D01*
X116450572Y-112964944D01*
X116450570Y-112964940D01*
X116447887Y-112957840D01*
X116443584Y-112951579D01*
X116441906Y-112948370D01*
X116434832Y-112935661D01*
X116433018Y-112932594D01*
X116429963Y-112925634D01*
X116391608Y-112875650D01*
X116387744Y-112870331D01*
X116352078Y-112818436D01*
X116307946Y-112779116D01*
X116302670Y-112774134D01*
X115331057Y-111802521D01*
X114357550Y-110829015D01*
X114323525Y-110766703D01*
X114322593Y-110719716D01*
X114323053Y-110718000D01*
X114323533Y-110712523D01*
X114342521Y-110495475D01*
X114343000Y-110490000D01*
X114323053Y-110262000D01*
X114263816Y-110040928D01*
X114201831Y-109908000D01*
X114169417Y-109838487D01*
X114169414Y-109838482D01*
X114167091Y-109833500D01*
X114106697Y-109747248D01*
X114038975Y-109650531D01*
X114038973Y-109650528D01*
X114035816Y-109646020D01*
X113873980Y-109484184D01*
X113869472Y-109481027D01*
X113869469Y-109481025D01*
X113691009Y-109356066D01*
X113691007Y-109356065D01*
X113686500Y-109352909D01*
X113681518Y-109350586D01*
X113681513Y-109350583D01*
X113576084Y-109301421D01*
X113479072Y-109256184D01*
X113473762Y-109254761D01*
X113473756Y-109254759D01*
X113430604Y-109243197D01*
X113374121Y-109210586D01*
X111817550Y-107654016D01*
X111783524Y-107591704D01*
X111783495Y-107590210D01*
X116829597Y-107590210D01*
X116874761Y-107758761D01*
X116878509Y-107769057D01*
X116970583Y-107966513D01*
X116976066Y-107976009D01*
X117101025Y-108154469D01*
X117108081Y-108162877D01*
X117262123Y-108316919D01*
X117270531Y-108323975D01*
X117448991Y-108448934D01*
X117458487Y-108454417D01*
X117655943Y-108546491D01*
X117666239Y-108550239D01*
X117838503Y-108596398D01*
X117849889Y-108596127D01*
X117856000Y-108579127D01*
X117856000Y-107587115D01*
X117851525Y-107571876D01*
X117850135Y-107570671D01*
X117842452Y-107569000D01*
X116842029Y-107569000D01*
X116831100Y-107572209D01*
X116829597Y-107590210D01*
X111783495Y-107590210D01*
X111782592Y-107544719D01*
X111783053Y-107543000D01*
X111803000Y-107315000D01*
X111783053Y-107087000D01*
X111771398Y-107043503D01*
X116828602Y-107043503D01*
X116828873Y-107054889D01*
X116845873Y-107061000D01*
X117837885Y-107061000D01*
X117853124Y-107056525D01*
X117854329Y-107055135D01*
X117856000Y-107047452D01*
X117856000Y-106050873D01*
X118364000Y-106050873D01*
X118364000Y-107042885D01*
X118368475Y-107058124D01*
X118369865Y-107059329D01*
X118377548Y-107061000D01*
X119377971Y-107061000D01*
X119388900Y-107057791D01*
X119390403Y-107039790D01*
X119345239Y-106871239D01*
X119341491Y-106860943D01*
X119249417Y-106663487D01*
X119243934Y-106653991D01*
X119118975Y-106475531D01*
X119111919Y-106467123D01*
X118957877Y-106313081D01*
X118949469Y-106306025D01*
X118771009Y-106181066D01*
X118761513Y-106175583D01*
X118564057Y-106083509D01*
X118553761Y-106079761D01*
X118381497Y-106033602D01*
X118370111Y-106033873D01*
X118364000Y-106050873D01*
X117856000Y-106050873D01*
X117856000Y-106047029D01*
X117852791Y-106036100D01*
X117834790Y-106034597D01*
X117666239Y-106079761D01*
X117655943Y-106083509D01*
X117458487Y-106175583D01*
X117448991Y-106181066D01*
X117270531Y-106306025D01*
X117262123Y-106313081D01*
X117108081Y-106467123D01*
X117101025Y-106475531D01*
X116976066Y-106653991D01*
X116970583Y-106663487D01*
X116878509Y-106860943D01*
X116874761Y-106871239D01*
X116828602Y-107043503D01*
X111771398Y-107043503D01*
X111723816Y-106865928D01*
X111664558Y-106738848D01*
X111629417Y-106663487D01*
X111629414Y-106663482D01*
X111627091Y-106658500D01*
X111600343Y-106620300D01*
X111498975Y-106475531D01*
X111498973Y-106475528D01*
X111495816Y-106471020D01*
X111333980Y-106309184D01*
X111329472Y-106306027D01*
X111329469Y-106306025D01*
X111151009Y-106181066D01*
X111151007Y-106181065D01*
X111146500Y-106177909D01*
X111141518Y-106175586D01*
X111141513Y-106175583D01*
X111036084Y-106126421D01*
X110939072Y-106081184D01*
X110718000Y-106021947D01*
X110490000Y-106002000D01*
X110262000Y-106021947D01*
X110213973Y-106034816D01*
X110046241Y-106079760D01*
X110046237Y-106079761D01*
X110040928Y-106081184D01*
X110039412Y-106081891D01*
X109969739Y-106086318D01*
X109907699Y-106051799D01*
X109871499Y-105963414D01*
X109871499Y-105618586D01*
X109891501Y-105550465D01*
X109945157Y-105503972D01*
X110039653Y-105500221D01*
X110040928Y-105500816D01*
X110046237Y-105502239D01*
X110046241Y-105502240D01*
X110154048Y-105531127D01*
X110262000Y-105560053D01*
X110490000Y-105580000D01*
X110718000Y-105560053D01*
X110939072Y-105500816D01*
X111036084Y-105455579D01*
X111141513Y-105406417D01*
X111141518Y-105406414D01*
X111146500Y-105404091D01*
X111258817Y-105325446D01*
X111329469Y-105275975D01*
X111329472Y-105275973D01*
X111333980Y-105272816D01*
X111495816Y-105110980D01*
X111515910Y-105082284D01*
X111623934Y-104928009D01*
X111623935Y-104928007D01*
X111627091Y-104923500D01*
X111629414Y-104918518D01*
X111629417Y-104918513D01*
X111681662Y-104806471D01*
X111723816Y-104716072D01*
X111770402Y-104542210D01*
X116829597Y-104542210D01*
X116874761Y-104710761D01*
X116878509Y-104721057D01*
X116970583Y-104918513D01*
X116976066Y-104928009D01*
X117101025Y-105106469D01*
X117108081Y-105114877D01*
X117262123Y-105268919D01*
X117270531Y-105275975D01*
X117448991Y-105400934D01*
X117458487Y-105406417D01*
X117655943Y-105498491D01*
X117666239Y-105502239D01*
X117838503Y-105548398D01*
X117849889Y-105548127D01*
X117856000Y-105531127D01*
X117856000Y-104539115D01*
X117854659Y-104534548D01*
X118364000Y-104534548D01*
X118364000Y-105534971D01*
X118367209Y-105545900D01*
X118385210Y-105547403D01*
X118553761Y-105502239D01*
X118564057Y-105498491D01*
X118761513Y-105406417D01*
X118771009Y-105400934D01*
X118949469Y-105275975D01*
X118957877Y-105268919D01*
X119111919Y-105114877D01*
X119118975Y-105106469D01*
X119243934Y-104928009D01*
X119249417Y-104918513D01*
X119341491Y-104721057D01*
X119345239Y-104710761D01*
X119391398Y-104538497D01*
X119391127Y-104527111D01*
X119374127Y-104521000D01*
X118382115Y-104521000D01*
X118366876Y-104525475D01*
X118365671Y-104526865D01*
X118364000Y-104534548D01*
X117854659Y-104534548D01*
X117851525Y-104523876D01*
X117850135Y-104522671D01*
X117842452Y-104521000D01*
X116842029Y-104521000D01*
X116831100Y-104524209D01*
X116829597Y-104542210D01*
X111770402Y-104542210D01*
X111783053Y-104495000D01*
X111803000Y-104267000D01*
X111783053Y-104039000D01*
X111771398Y-103995503D01*
X116828602Y-103995503D01*
X116828873Y-104006889D01*
X116845873Y-104013000D01*
X117837885Y-104013000D01*
X117853124Y-104008525D01*
X117854329Y-104007135D01*
X117856000Y-103999452D01*
X117856000Y-102999029D01*
X117852791Y-102988100D01*
X117834790Y-102986597D01*
X117666239Y-103031761D01*
X117655943Y-103035509D01*
X117458487Y-103127583D01*
X117448991Y-103133066D01*
X117270531Y-103258025D01*
X117262123Y-103265081D01*
X117108081Y-103419123D01*
X117101025Y-103427531D01*
X116976066Y-103605991D01*
X116970583Y-103615487D01*
X116878509Y-103812943D01*
X116874761Y-103823239D01*
X116828602Y-103995503D01*
X111771398Y-103995503D01*
X111723816Y-103817928D01*
X111664050Y-103689759D01*
X111629417Y-103615487D01*
X111629414Y-103615482D01*
X111627091Y-103610500D01*
X111547459Y-103496774D01*
X111498975Y-103427531D01*
X111498973Y-103427528D01*
X111495816Y-103423020D01*
X111333980Y-103261184D01*
X111329472Y-103258027D01*
X111329469Y-103258025D01*
X111242729Y-103197289D01*
X111198401Y-103141832D01*
X111189000Y-103094076D01*
X111189000Y-102391924D01*
X111209002Y-102323803D01*
X111242729Y-102288711D01*
X111329469Y-102227975D01*
X111329472Y-102227973D01*
X111333980Y-102224816D01*
X111495816Y-102062980D01*
X111516241Y-102033811D01*
X111623934Y-101880009D01*
X111623935Y-101880007D01*
X111627091Y-101875500D01*
X111629414Y-101870518D01*
X111629417Y-101870513D01*
X111721491Y-101673057D01*
X111723816Y-101668072D01*
X111783053Y-101447000D01*
X111803000Y-101219000D01*
X111783053Y-100991000D01*
X111723816Y-100769928D01*
X111678579Y-100672916D01*
X111629417Y-100567487D01*
X111629414Y-100567482D01*
X111627091Y-100562500D01*
X111495816Y-100375020D01*
X111333980Y-100213184D01*
X111329472Y-100210027D01*
X111329469Y-100210025D01*
X111151009Y-100085066D01*
X111151007Y-100085065D01*
X111146500Y-100081909D01*
X111141518Y-100079586D01*
X111141513Y-100079583D01*
X111036084Y-100030421D01*
X110939072Y-99985184D01*
X110718000Y-99925947D01*
X110490000Y-99906000D01*
X110262000Y-99925947D01*
X110201654Y-99942117D01*
X110046241Y-99983760D01*
X110046237Y-99983761D01*
X110040928Y-99985184D01*
X110039412Y-99985891D01*
X109969739Y-99990318D01*
X109907699Y-99955799D01*
X109871499Y-99867414D01*
X109871499Y-99522586D01*
X109891501Y-99454465D01*
X109945157Y-99407972D01*
X110039653Y-99404221D01*
X110040928Y-99404816D01*
X110046237Y-99406239D01*
X110046241Y-99406240D01*
X110190352Y-99444855D01*
X110262000Y-99464053D01*
X110490000Y-99484000D01*
X110718000Y-99464053D01*
X110939072Y-99404816D01*
X111036084Y-99359579D01*
X111141513Y-99310417D01*
X111141518Y-99310414D01*
X111146500Y-99308091D01*
X111151009Y-99304934D01*
X111329469Y-99179975D01*
X111329472Y-99179973D01*
X111333980Y-99176816D01*
X111495816Y-99014980D01*
X111559711Y-98923729D01*
X111615168Y-98879401D01*
X111662924Y-98870000D01*
X114720275Y-98870000D01*
X114809370Y-98906905D01*
G37*
%TD.AperFunction*%
%TA.AperFunction,Conductor*%
G36*
X110040928Y-108548816D02*
G01*
X110046237Y-108550239D01*
X110046241Y-108550240D01*
X110144009Y-108576437D01*
X110262000Y-108608053D01*
X110490000Y-108628000D01*
X110718000Y-108608053D01*
X110719310Y-108607702D01*
X110788595Y-108615427D01*
X110829014Y-108642550D01*
X111871400Y-109684936D01*
X111905426Y-109747248D01*
X111892036Y-109833093D01*
X111892909Y-109833500D01*
X111796184Y-110040928D01*
X111736947Y-110262000D01*
X111717000Y-110490000D01*
X111736947Y-110718000D01*
X111796184Y-110939072D01*
X111798509Y-110944057D01*
X111890583Y-111141513D01*
X111890586Y-111141518D01*
X111892909Y-111146500D01*
X112024184Y-111333980D01*
X112186020Y-111495816D01*
X112190528Y-111498973D01*
X112190531Y-111498975D01*
X112368991Y-111623934D01*
X112373500Y-111627091D01*
X112378482Y-111629414D01*
X112378487Y-111629417D01*
X112483916Y-111678579D01*
X112580928Y-111723816D01*
X112802000Y-111783053D01*
X113030000Y-111803000D01*
X113035475Y-111802521D01*
X113252529Y-111783532D01*
X113252533Y-111783531D01*
X113258000Y-111783053D01*
X113259311Y-111782702D01*
X113328598Y-111790428D01*
X113369015Y-111817550D01*
X114629449Y-113077984D01*
X114663475Y-113140296D01*
X114658410Y-113211111D01*
X114608474Y-113273077D01*
X114540603Y-113316695D01*
X114522856Y-113328100D01*
X114516955Y-113334911D01*
X114516953Y-113334912D01*
X114433138Y-113431640D01*
X114433136Y-113431643D01*
X114427237Y-113438451D01*
X114423495Y-113446645D01*
X114423493Y-113446648D01*
X114397899Y-113502692D01*
X114366580Y-113571271D01*
X114365298Y-113580189D01*
X114365296Y-113580195D01*
X114356242Y-113643165D01*
X114326749Y-113707746D01*
X114267023Y-113746129D01*
X114196026Y-113746129D01*
X114138332Y-113710033D01*
X114041608Y-113603735D01*
X114034075Y-113596710D01*
X113852081Y-113452981D01*
X113843494Y-113447276D01*
X113640482Y-113335207D01*
X113631070Y-113330977D01*
X113412469Y-113253566D01*
X113402512Y-113250936D01*
X113301836Y-113233002D01*
X113288541Y-113234461D01*
X113284000Y-113249019D01*
X113284000Y-114809000D01*
X113263998Y-114877121D01*
X113210342Y-114923614D01*
X113158000Y-114935000D01*
X112902000Y-114935000D01*
X112833879Y-114914998D01*
X112787386Y-114861342D01*
X112776000Y-114809000D01*
X112776000Y-113247605D01*
X112772082Y-113234261D01*
X112757806Y-113232274D01*
X112692542Y-113242261D01*
X112682515Y-113244650D01*
X112462092Y-113316695D01*
X112452582Y-113320692D01*
X112246891Y-113427768D01*
X112238166Y-113433262D01*
X112103079Y-113534689D01*
X112036594Y-113559595D01*
X111967199Y-113544603D01*
X111921428Y-113502049D01*
X111847774Y-113387440D01*
X111847774Y-113387439D01*
X111842900Y-113379856D01*
X111836088Y-113373953D01*
X111739360Y-113290138D01*
X111739357Y-113290136D01*
X111732549Y-113284237D01*
X111724355Y-113280495D01*
X111724352Y-113280493D01*
X111607925Y-113227323D01*
X111599729Y-113223580D01*
X111563064Y-113218308D01*
X111459646Y-113203439D01*
X111459643Y-113203439D01*
X111455200Y-113202800D01*
X110052526Y-113202800D01*
X109963431Y-113165896D01*
X109908404Y-113110870D01*
X109871499Y-113021774D01*
X109871499Y-108666586D01*
X109891501Y-108598465D01*
X109945157Y-108551972D01*
X110039653Y-108548221D01*
X110040928Y-108548816D01*
G37*
%TD.AperFunction*%
%TA.AperFunction,Conductor*%
G36*
X129609121Y-84983002D02*
G01*
X129655614Y-85036658D01*
X129667000Y-85089000D01*
X129667001Y-94669560D01*
X129667001Y-96398015D01*
X129646999Y-96466136D01*
X129593343Y-96512629D01*
X129523069Y-96522733D01*
X129451906Y-96487110D01*
X129371877Y-96407081D01*
X129363469Y-96400025D01*
X129185009Y-96275066D01*
X129175513Y-96269583D01*
X128978057Y-96177509D01*
X128967761Y-96173761D01*
X128795497Y-96127602D01*
X128784111Y-96127873D01*
X128778000Y-96144873D01*
X128777999Y-97154998D01*
X128778000Y-97155004D01*
X128777999Y-98676971D01*
X128781208Y-98687900D01*
X128799209Y-98689403D01*
X128967762Y-98644239D01*
X128978054Y-98640493D01*
X129175513Y-98548417D01*
X129185009Y-98542934D01*
X129363469Y-98417975D01*
X129371877Y-98410919D01*
X129451906Y-98330890D01*
X129514218Y-98296864D01*
X129585033Y-98301929D01*
X129641869Y-98344476D01*
X129667001Y-98419985D01*
X129667001Y-104018015D01*
X129646999Y-104086136D01*
X129593343Y-104132629D01*
X129523069Y-104142733D01*
X129451906Y-104107110D01*
X129367980Y-104023184D01*
X129363472Y-104020027D01*
X129363469Y-104020025D01*
X129185009Y-103895066D01*
X129185007Y-103895065D01*
X129180500Y-103891909D01*
X129175518Y-103889586D01*
X129175513Y-103889583D01*
X129033236Y-103823239D01*
X128973072Y-103795184D01*
X128752000Y-103735947D01*
X128524000Y-103716000D01*
X128296000Y-103735947D01*
X128294690Y-103736298D01*
X128225405Y-103728573D01*
X128184986Y-103701451D01*
X128069404Y-103585870D01*
X128032499Y-103496774D01*
X128032499Y-98795655D01*
X128052501Y-98727534D01*
X128106157Y-98681041D01*
X128191110Y-98673948D01*
X128252502Y-98690398D01*
X128263889Y-98690127D01*
X128270000Y-98673127D01*
X128270001Y-97663002D01*
X128270000Y-97662996D01*
X128270001Y-96141029D01*
X128266792Y-96130100D01*
X128248792Y-96128597D01*
X128191111Y-96144053D01*
X128120134Y-96142363D01*
X128061338Y-96102569D01*
X128032499Y-96022346D01*
X128032499Y-93639224D01*
X128069404Y-93550129D01*
X128411425Y-93208108D01*
X128417691Y-93202254D01*
X128453449Y-93171061D01*
X128453452Y-93171058D01*
X128459174Y-93166066D01*
X128472881Y-93146563D01*
X128495391Y-93114536D01*
X128499323Y-93109241D01*
X128538177Y-93059690D01*
X128541303Y-93052767D01*
X128543151Y-93049715D01*
X128550380Y-93037040D01*
X128552068Y-93033891D01*
X128556438Y-93027674D01*
X128579315Y-92968997D01*
X128581871Y-92962916D01*
X128604659Y-92912446D01*
X128604661Y-92912440D01*
X128607784Y-92905523D01*
X128609168Y-92898056D01*
X128610238Y-92894641D01*
X128614247Y-92880569D01*
X128615125Y-92877151D01*
X128617883Y-92870076D01*
X128626106Y-92807616D01*
X128627138Y-92801102D01*
X128637226Y-92746671D01*
X128637226Y-92746670D01*
X128638610Y-92739203D01*
X128637215Y-92715000D01*
X128635209Y-92680219D01*
X128635000Y-92672966D01*
X128635000Y-92485924D01*
X128655002Y-92417803D01*
X128688729Y-92382711D01*
X128775469Y-92321975D01*
X128775472Y-92321973D01*
X128779980Y-92318816D01*
X128941816Y-92156980D01*
X129073091Y-91969500D01*
X129075414Y-91964518D01*
X129075417Y-91964513D01*
X129132251Y-91842630D01*
X129169816Y-91762072D01*
X129229053Y-91541000D01*
X129249000Y-91313000D01*
X129229053Y-91085000D01*
X129169816Y-90863928D01*
X129124579Y-90766916D01*
X129075417Y-90661487D01*
X129075414Y-90661482D01*
X129073091Y-90656500D01*
X128999219Y-90551000D01*
X128944975Y-90473531D01*
X128944973Y-90473528D01*
X128941816Y-90469020D01*
X128779980Y-90307184D01*
X128775472Y-90304027D01*
X128775469Y-90304025D01*
X128597009Y-90179066D01*
X128597007Y-90179065D01*
X128592500Y-90175909D01*
X128587518Y-90173586D01*
X128587513Y-90173583D01*
X128445236Y-90107239D01*
X128385072Y-90079184D01*
X128164000Y-90019947D01*
X127936000Y-90000000D01*
X127708000Y-90019947D01*
X127486928Y-90079184D01*
X127426764Y-90107239D01*
X127284487Y-90173583D01*
X127284482Y-90173586D01*
X127279500Y-90175909D01*
X127274993Y-90179065D01*
X127274991Y-90179066D01*
X127096531Y-90304025D01*
X127096528Y-90304027D01*
X127092020Y-90307184D01*
X126930184Y-90469020D01*
X126927027Y-90473528D01*
X126927025Y-90473531D01*
X126872781Y-90551000D01*
X126798909Y-90656500D01*
X126796586Y-90661482D01*
X126796583Y-90661487D01*
X126747421Y-90766916D01*
X126702184Y-90863928D01*
X126642947Y-91085000D01*
X126623000Y-91313000D01*
X126642947Y-91541000D01*
X126702184Y-91762072D01*
X126739749Y-91842630D01*
X126796583Y-91964513D01*
X126796586Y-91964518D01*
X126798909Y-91969500D01*
X126930184Y-92156980D01*
X127092020Y-92318816D01*
X127096532Y-92321975D01*
X127105254Y-92328083D01*
X127149581Y-92383541D01*
X127156888Y-92454161D01*
X127122075Y-92520389D01*
X126858075Y-92784389D01*
X126851809Y-92790243D01*
X126810326Y-92826431D01*
X126793332Y-92850612D01*
X126774126Y-92877939D01*
X126770191Y-92883237D01*
X126736009Y-92926829D01*
X126736005Y-92926836D01*
X126731322Y-92932808D01*
X126728199Y-92939724D01*
X126726355Y-92942769D01*
X126719128Y-92955439D01*
X126717426Y-92958613D01*
X126713062Y-92964823D01*
X126710304Y-92971898D01*
X126690186Y-93023498D01*
X126687634Y-93029569D01*
X126661715Y-93086975D01*
X126660331Y-93094441D01*
X126659245Y-93097908D01*
X126655268Y-93111869D01*
X126654375Y-93115349D01*
X126651617Y-93122421D01*
X126646690Y-93159850D01*
X126643397Y-93184861D01*
X126642366Y-93191368D01*
X126630889Y-93253295D01*
X126631326Y-93260875D01*
X126631326Y-93260876D01*
X126634291Y-93312296D01*
X126634500Y-93319549D01*
X126634500Y-95911443D01*
X126614498Y-95979564D01*
X126560842Y-96026057D01*
X126490568Y-96036161D01*
X126436229Y-96014656D01*
X126264009Y-95894066D01*
X126264007Y-95894065D01*
X126259500Y-95890909D01*
X126254518Y-95888586D01*
X126254513Y-95888583D01*
X126140608Y-95835469D01*
X126052072Y-95794184D01*
X125831000Y-95734947D01*
X125603000Y-95715000D01*
X125375000Y-95734947D01*
X125153928Y-95794184D01*
X125065392Y-95835469D01*
X124951487Y-95888583D01*
X124951482Y-95888586D01*
X124946500Y-95890909D01*
X124941993Y-95894065D01*
X124941991Y-95894066D01*
X124763531Y-96019025D01*
X124763528Y-96019027D01*
X124759020Y-96022184D01*
X124597184Y-96184020D01*
X124594027Y-96188528D01*
X124594025Y-96188531D01*
X124518810Y-96295949D01*
X124465909Y-96371500D01*
X124463586Y-96376482D01*
X124463583Y-96376487D01*
X124449317Y-96407081D01*
X124369184Y-96578928D01*
X124309947Y-96800000D01*
X124290000Y-97028000D01*
X124309947Y-97256000D01*
X124369184Y-97477072D01*
X124411968Y-97568823D01*
X124463583Y-97679513D01*
X124463586Y-97679518D01*
X124465909Y-97684500D01*
X124597184Y-97871980D01*
X124759020Y-98033816D01*
X124763530Y-98036974D01*
X124763536Y-98036979D01*
X124850271Y-98097711D01*
X124894600Y-98153168D01*
X124904001Y-98200924D01*
X124904000Y-102323803D01*
X124904000Y-106399370D01*
X124903708Y-106407940D01*
X124899965Y-106462844D01*
X124901270Y-106470321D01*
X124901270Y-106470324D01*
X124910792Y-106524883D01*
X124911755Y-106531407D01*
X124919321Y-106593927D01*
X124922007Y-106601034D01*
X124922861Y-106604512D01*
X124926700Y-106618548D01*
X124927742Y-106621999D01*
X124929047Y-106629478D01*
X124932099Y-106636430D01*
X124932100Y-106636434D01*
X124954359Y-106687140D01*
X124956850Y-106693242D01*
X124979113Y-106752159D01*
X124983415Y-106758418D01*
X124985072Y-106761588D01*
X124992165Y-106774332D01*
X124993984Y-106777408D01*
X124997038Y-106784365D01*
X125001663Y-106790392D01*
X125001665Y-106790396D01*
X125035383Y-106834338D01*
X125039263Y-106839678D01*
X125053350Y-106860176D01*
X125073594Y-106953420D01*
X125073371Y-106954687D01*
X125071947Y-106960000D01*
X125052000Y-107188000D01*
X125071947Y-107416000D01*
X125072298Y-107417309D01*
X125064574Y-107486592D01*
X125037451Y-107527013D01*
X124736508Y-107827957D01*
X124138547Y-108425919D01*
X123842371Y-108722095D01*
X123753275Y-108759000D01*
X123147376Y-108759000D01*
X123079255Y-108738998D01*
X123041378Y-108701120D01*
X123027574Y-108679640D01*
X123022700Y-108672056D01*
X123015888Y-108666153D01*
X122919160Y-108582338D01*
X122919157Y-108582336D01*
X122912349Y-108576437D01*
X122904155Y-108572695D01*
X122904152Y-108572693D01*
X122850484Y-108548184D01*
X122833730Y-108540533D01*
X122780074Y-108494040D01*
X122760072Y-108425919D01*
X122796977Y-108336824D01*
X123157427Y-107976374D01*
X123163693Y-107970520D01*
X123199447Y-107939330D01*
X123205174Y-107934334D01*
X123241388Y-107882806D01*
X123245304Y-107877533D01*
X123284177Y-107827957D01*
X123287302Y-107821036D01*
X123289145Y-107817993D01*
X123296384Y-107805301D01*
X123298070Y-107802158D01*
X123302438Y-107795942D01*
X123305196Y-107788868D01*
X123305201Y-107788859D01*
X123325323Y-107737250D01*
X123327877Y-107731173D01*
X123350657Y-107680717D01*
X123353784Y-107673791D01*
X123355168Y-107666323D01*
X123356245Y-107662887D01*
X123360247Y-107648837D01*
X123361124Y-107645419D01*
X123363883Y-107638344D01*
X123372105Y-107575889D01*
X123373136Y-107569382D01*
X123383227Y-107514936D01*
X123384611Y-107507470D01*
X123381209Y-107448474D01*
X123381000Y-107441220D01*
X123381000Y-105957312D01*
X123401002Y-105889191D01*
X123454658Y-105842698D01*
X123482245Y-105835127D01*
X123482000Y-105834000D01*
X123695108Y-105787641D01*
X123747409Y-105754030D01*
X123810360Y-105713574D01*
X123810361Y-105713574D01*
X123817944Y-105708700D01*
X123862791Y-105656944D01*
X123907662Y-105605160D01*
X123907664Y-105605157D01*
X123913563Y-105598349D01*
X123917305Y-105590155D01*
X123917307Y-105590152D01*
X123970477Y-105473725D01*
X123974220Y-105465529D01*
X123983507Y-105400934D01*
X123994361Y-105325446D01*
X123994361Y-105325443D01*
X123995000Y-105321000D01*
X123995000Y-103721000D01*
X123948641Y-103507892D01*
X123869700Y-103385056D01*
X123862888Y-103379153D01*
X123766160Y-103295338D01*
X123766157Y-103295336D01*
X123759349Y-103289437D01*
X123751155Y-103285695D01*
X123751152Y-103285693D01*
X123634725Y-103232523D01*
X123626529Y-103228780D01*
X123515570Y-103212827D01*
X123450990Y-103183334D01*
X123424775Y-103142543D01*
X123422267Y-103143861D01*
X123396359Y-103094570D01*
X122694811Y-102393021D01*
X122680868Y-102385408D01*
X122679034Y-102385539D01*
X122672420Y-102389790D01*
X121966917Y-103095294D01*
X121945755Y-103134049D01*
X121942198Y-103150400D01*
X121891996Y-103200602D01*
X121858394Y-103213135D01*
X121679910Y-103251962D01*
X121679909Y-103251962D01*
X121668892Y-103254359D01*
X121659407Y-103260455D01*
X121659406Y-103260455D01*
X121553640Y-103328426D01*
X121546056Y-103333300D01*
X121540155Y-103340111D01*
X121540153Y-103340112D01*
X121479986Y-103409549D01*
X121420259Y-103447933D01*
X121349263Y-103447933D01*
X121295666Y-103416132D01*
X119895059Y-102015525D01*
X121369479Y-102015525D01*
X121369479Y-102026475D01*
X121388468Y-102243523D01*
X121390370Y-102254310D01*
X121446761Y-102464761D01*
X121450509Y-102475057D01*
X121542583Y-102672513D01*
X121548066Y-102682008D01*
X121584506Y-102734050D01*
X121594985Y-102742426D01*
X121608430Y-102735359D01*
X122309979Y-102033811D01*
X122316355Y-102022132D01*
X123046408Y-102022132D01*
X123046539Y-102023966D01*
X123050790Y-102030580D01*
X123756294Y-102736083D01*
X123768064Y-102742510D01*
X123780078Y-102733216D01*
X123815934Y-102682008D01*
X123821417Y-102672513D01*
X123913491Y-102475057D01*
X123917239Y-102464761D01*
X123973630Y-102254310D01*
X123975532Y-102243523D01*
X123994521Y-102026475D01*
X123994521Y-102015525D01*
X123975532Y-101798477D01*
X123973630Y-101787690D01*
X123917239Y-101577239D01*
X123913491Y-101566943D01*
X123821417Y-101369487D01*
X123815934Y-101359992D01*
X123779494Y-101307950D01*
X123769015Y-101299574D01*
X123755570Y-101306641D01*
X123054021Y-102008189D01*
X123046408Y-102022132D01*
X122316355Y-102022132D01*
X122317592Y-102019868D01*
X122317461Y-102018034D01*
X122313210Y-102011420D01*
X121607706Y-101305917D01*
X121595936Y-101299490D01*
X121583922Y-101308784D01*
X121548066Y-101359992D01*
X121542583Y-101369487D01*
X121450509Y-101566943D01*
X121446761Y-101577239D01*
X121390370Y-101787690D01*
X121388468Y-101798477D01*
X121369479Y-102015525D01*
X119895059Y-102015525D01*
X119437550Y-101558016D01*
X119403524Y-101495704D01*
X119402592Y-101448719D01*
X119403053Y-101447000D01*
X119423000Y-101219000D01*
X119403053Y-100991000D01*
X119387776Y-100933985D01*
X121960574Y-100933985D01*
X121967641Y-100947430D01*
X122669189Y-101648979D01*
X122683132Y-101656592D01*
X122684966Y-101656461D01*
X122691580Y-101652210D01*
X123397083Y-100946706D01*
X123403510Y-100934936D01*
X123394216Y-100922922D01*
X123343008Y-100887066D01*
X123333513Y-100881583D01*
X123136057Y-100789509D01*
X123125761Y-100785761D01*
X122915310Y-100729370D01*
X122904523Y-100727468D01*
X122687475Y-100708479D01*
X122676525Y-100708479D01*
X122459477Y-100727468D01*
X122448690Y-100729370D01*
X122238239Y-100785761D01*
X122227943Y-100789509D01*
X122030487Y-100881583D01*
X122020992Y-100887066D01*
X121968950Y-100923506D01*
X121960574Y-100933985D01*
X119387776Y-100933985D01*
X119343816Y-100769928D01*
X119298579Y-100672916D01*
X119249417Y-100567487D01*
X119249414Y-100567482D01*
X119247091Y-100562500D01*
X119115816Y-100375020D01*
X118953980Y-100213184D01*
X118949472Y-100210027D01*
X118949469Y-100210025D01*
X118771009Y-100085066D01*
X118771007Y-100085065D01*
X118766500Y-100081909D01*
X118761518Y-100079586D01*
X118761513Y-100079583D01*
X118656084Y-100030421D01*
X118559072Y-99985184D01*
X118338000Y-99925947D01*
X118110000Y-99906000D01*
X117882000Y-99925947D01*
X117880690Y-99926298D01*
X117811405Y-99918573D01*
X117770989Y-99891453D01*
X117460605Y-99581069D01*
X117426582Y-99518760D01*
X117431646Y-99447945D01*
X117474193Y-99391109D01*
X117540713Y-99366298D01*
X117602951Y-99377782D01*
X117655938Y-99402490D01*
X117655946Y-99402493D01*
X117660928Y-99404816D01*
X117882000Y-99464053D01*
X118110000Y-99484000D01*
X118338000Y-99464053D01*
X118559072Y-99404816D01*
X118656084Y-99359579D01*
X118761513Y-99310417D01*
X118761518Y-99310414D01*
X118766500Y-99308091D01*
X118771009Y-99304934D01*
X118949469Y-99179975D01*
X118949472Y-99179973D01*
X118953980Y-99176816D01*
X119115816Y-99014980D01*
X119247091Y-98827500D01*
X119249414Y-98822518D01*
X119249417Y-98822513D01*
X119298579Y-98717084D01*
X119343816Y-98620072D01*
X119403053Y-98399000D01*
X119423000Y-98171000D01*
X119407803Y-97997291D01*
X119421792Y-97927686D01*
X119471192Y-97876694D01*
X119540318Y-97860504D01*
X119622419Y-97897215D01*
X119759020Y-98033816D01*
X119763528Y-98036973D01*
X119763531Y-98036975D01*
X119904001Y-98135333D01*
X119946500Y-98165091D01*
X119951482Y-98167414D01*
X119951487Y-98167417D01*
X120023344Y-98200924D01*
X120153928Y-98261816D01*
X120375000Y-98321053D01*
X120603000Y-98341000D01*
X120831000Y-98321053D01*
X121052072Y-98261816D01*
X121182656Y-98200924D01*
X121254513Y-98167417D01*
X121254518Y-98167414D01*
X121259500Y-98165091D01*
X121301999Y-98135333D01*
X121442469Y-98036975D01*
X121442472Y-98036973D01*
X121446980Y-98033816D01*
X121608816Y-97871980D01*
X121740091Y-97684500D01*
X121742414Y-97679518D01*
X121742417Y-97679513D01*
X121794032Y-97568823D01*
X121836816Y-97477072D01*
X121896053Y-97256000D01*
X121916000Y-97028000D01*
X121896053Y-96800000D01*
X121836816Y-96578928D01*
X121756683Y-96407081D01*
X121742417Y-96376487D01*
X121742414Y-96376482D01*
X121740091Y-96371500D01*
X121687190Y-96295949D01*
X121611975Y-96188531D01*
X121611973Y-96188528D01*
X121608816Y-96184020D01*
X121446980Y-96022184D01*
X121442472Y-96019027D01*
X121442469Y-96019025D01*
X121264009Y-95894066D01*
X121264007Y-95894065D01*
X121259500Y-95890909D01*
X121254518Y-95888586D01*
X121254513Y-95888583D01*
X121140608Y-95835469D01*
X121052072Y-95794184D01*
X120831000Y-95734947D01*
X120603000Y-95715000D01*
X120375000Y-95734947D01*
X120153928Y-95794184D01*
X120065392Y-95835469D01*
X119951487Y-95888583D01*
X119951482Y-95888586D01*
X119946500Y-95890909D01*
X119941993Y-95894065D01*
X119941991Y-95894066D01*
X119763531Y-96019025D01*
X119763528Y-96019027D01*
X119759020Y-96022184D01*
X119597184Y-96184020D01*
X119594027Y-96188528D01*
X119594025Y-96188531D01*
X119518810Y-96295949D01*
X119465909Y-96371500D01*
X119463586Y-96376482D01*
X119463583Y-96376487D01*
X119449317Y-96407081D01*
X119369184Y-96578928D01*
X119309947Y-96800000D01*
X119290000Y-97028000D01*
X119290479Y-97033475D01*
X119305197Y-97201709D01*
X119291208Y-97271314D01*
X119241808Y-97322306D01*
X119172682Y-97338496D01*
X119090581Y-97301785D01*
X118953980Y-97165184D01*
X118949472Y-97162027D01*
X118949469Y-97162025D01*
X118771009Y-97037066D01*
X118771007Y-97037065D01*
X118766500Y-97033909D01*
X118761518Y-97031586D01*
X118761513Y-97031583D01*
X118656084Y-96982421D01*
X118559072Y-96937184D01*
X118338000Y-96877947D01*
X118110000Y-96858000D01*
X118104525Y-96858479D01*
X117887471Y-96877468D01*
X117887467Y-96877469D01*
X117882000Y-96877947D01*
X117880689Y-96878298D01*
X117811402Y-96870572D01*
X117770985Y-96843450D01*
X117161375Y-96233840D01*
X117127349Y-96171528D01*
X117132414Y-96100713D01*
X117174961Y-96043877D01*
X117241481Y-96019066D01*
X117322740Y-96041532D01*
X117453500Y-96133091D01*
X117458482Y-96135414D01*
X117458487Y-96135417D01*
X117540717Y-96173761D01*
X117660928Y-96229816D01*
X117882000Y-96289053D01*
X118110000Y-96309000D01*
X118338000Y-96289053D01*
X118559072Y-96229816D01*
X118679283Y-96173761D01*
X118761513Y-96135417D01*
X118761518Y-96135414D01*
X118766500Y-96133091D01*
X118774339Y-96127602D01*
X118949469Y-96004975D01*
X118949472Y-96004973D01*
X118953980Y-96001816D01*
X119115816Y-95839980D01*
X119189697Y-95734468D01*
X119243934Y-95657009D01*
X119243935Y-95657007D01*
X119247091Y-95652500D01*
X119249414Y-95647518D01*
X119249417Y-95647513D01*
X119341491Y-95450057D01*
X119343816Y-95445072D01*
X119403053Y-95224000D01*
X119423000Y-94996000D01*
X119403053Y-94768000D01*
X119403051Y-94767994D01*
X119410735Y-94699124D01*
X119444121Y-94652858D01*
X119463957Y-94635554D01*
X119469684Y-94630558D01*
X119505898Y-94579030D01*
X119509814Y-94573757D01*
X119548687Y-94524181D01*
X119551812Y-94517260D01*
X119553655Y-94514217D01*
X119560894Y-94501525D01*
X119562580Y-94498382D01*
X119566948Y-94492166D01*
X119569706Y-94485092D01*
X119569711Y-94485083D01*
X119589833Y-94433474D01*
X119592387Y-94427397D01*
X119615167Y-94376941D01*
X119618294Y-94370015D01*
X119619678Y-94362547D01*
X119620755Y-94359111D01*
X119624757Y-94345061D01*
X119625634Y-94341643D01*
X119628393Y-94334568D01*
X119636615Y-94272113D01*
X119637646Y-94265606D01*
X119647737Y-94211160D01*
X119649121Y-94203694D01*
X119645917Y-94148123D01*
X119645719Y-94144698D01*
X119645510Y-94137444D01*
X119645510Y-93354000D01*
X119665512Y-93285879D01*
X119719168Y-93239386D01*
X119771510Y-93228000D01*
X120756000Y-93228000D01*
X120969108Y-93181641D01*
X120993344Y-93166066D01*
X121084360Y-93107574D01*
X121084361Y-93107574D01*
X121091944Y-93102700D01*
X121105570Y-93086975D01*
X121181662Y-92999160D01*
X121181664Y-92999157D01*
X121187563Y-92992349D01*
X121191305Y-92984155D01*
X121191307Y-92984152D01*
X121244477Y-92867725D01*
X121248220Y-92859529D01*
X121256154Y-92804349D01*
X121268361Y-92719446D01*
X121268361Y-92719443D01*
X121269000Y-92715000D01*
X121269000Y-92065000D01*
X121267566Y-92058410D01*
X121267565Y-92058397D01*
X121246997Y-91963850D01*
X121248934Y-91909632D01*
X121248220Y-91909529D01*
X121249175Y-91902889D01*
X121249222Y-91901564D01*
X121249503Y-91900609D01*
X121268361Y-91769446D01*
X121269000Y-91760505D01*
X121269000Y-91712115D01*
X121264525Y-91696876D01*
X121263135Y-91695671D01*
X121255452Y-91694000D01*
X121150238Y-91694000D01*
X121067725Y-91663224D01*
X121033349Y-91633437D01*
X121025155Y-91629695D01*
X121025152Y-91629693D01*
X120908725Y-91576523D01*
X120900529Y-91572780D01*
X120827305Y-91562252D01*
X120762725Y-91532758D01*
X120724341Y-91473032D01*
X120724341Y-91402036D01*
X120762725Y-91342310D01*
X120818454Y-91314414D01*
X120958089Y-91284038D01*
X120969108Y-91281641D01*
X120983317Y-91272510D01*
X121082138Y-91209002D01*
X121150258Y-91189000D01*
X121497479Y-91189000D01*
X121565600Y-91209002D01*
X121612093Y-91262658D01*
X121623013Y-91312856D01*
X121623000Y-91313000D01*
X121642947Y-91541000D01*
X121702184Y-91762072D01*
X121739749Y-91842630D01*
X121796583Y-91964513D01*
X121796586Y-91964518D01*
X121798909Y-91969500D01*
X121930184Y-92156980D01*
X122092020Y-92318816D01*
X122096528Y-92321973D01*
X122096531Y-92321975D01*
X122248109Y-92428111D01*
X122279500Y-92450091D01*
X122284482Y-92452414D01*
X122284487Y-92452417D01*
X122332068Y-92474604D01*
X122486928Y-92546816D01*
X122708000Y-92606053D01*
X122936000Y-92626000D01*
X123164000Y-92606053D01*
X123385072Y-92546816D01*
X123539932Y-92474604D01*
X123587513Y-92452417D01*
X123587518Y-92452414D01*
X123592500Y-92450091D01*
X123623891Y-92428111D01*
X123775469Y-92321975D01*
X123775472Y-92321973D01*
X123779980Y-92318816D01*
X123941816Y-92156980D01*
X124073091Y-91969500D01*
X124075414Y-91964518D01*
X124075417Y-91964513D01*
X124132251Y-91842630D01*
X124169816Y-91762072D01*
X124229053Y-91541000D01*
X124249000Y-91313000D01*
X124229053Y-91085000D01*
X124169816Y-90863928D01*
X124124579Y-90766916D01*
X124075417Y-90661487D01*
X124075414Y-90661482D01*
X124073091Y-90656500D01*
X123999219Y-90551000D01*
X123944975Y-90473531D01*
X123944973Y-90473528D01*
X123941816Y-90469020D01*
X123779980Y-90307184D01*
X123775472Y-90304027D01*
X123775469Y-90304025D01*
X123597009Y-90179066D01*
X123597007Y-90179065D01*
X123592500Y-90175909D01*
X123587518Y-90173586D01*
X123587513Y-90173583D01*
X123445236Y-90107239D01*
X123385072Y-90079184D01*
X123164000Y-90019947D01*
X122936000Y-90000000D01*
X122708000Y-90019947D01*
X122702686Y-90021371D01*
X122702680Y-90021372D01*
X122618075Y-90044042D01*
X122547099Y-90042353D01*
X122490517Y-90005168D01*
X122457068Y-89966826D01*
X122450852Y-89962457D01*
X122405528Y-89930602D01*
X122400243Y-89926677D01*
X122350691Y-89887823D01*
X122343771Y-89884699D01*
X122340727Y-89882855D01*
X122328051Y-89875625D01*
X122324895Y-89873933D01*
X122318676Y-89869562D01*
X122259941Y-89846662D01*
X122253928Y-89844135D01*
X122196524Y-89818216D01*
X122189059Y-89816832D01*
X122185609Y-89815751D01*
X122171613Y-89811764D01*
X122168156Y-89810876D01*
X122161078Y-89808117D01*
X122153548Y-89807126D01*
X122153545Y-89807125D01*
X122119878Y-89802693D01*
X122098619Y-89799895D01*
X122092120Y-89798866D01*
X122030204Y-89787390D01*
X122022624Y-89787827D01*
X122022623Y-89787827D01*
X121971220Y-89790791D01*
X121963967Y-89791000D01*
X121146776Y-89791000D01*
X121064264Y-89760224D01*
X121040164Y-89739341D01*
X121040159Y-89739338D01*
X121033349Y-89733437D01*
X121025155Y-89729695D01*
X121025152Y-89729693D01*
X120908725Y-89676523D01*
X120900529Y-89672780D01*
X120863864Y-89667508D01*
X120760446Y-89652639D01*
X120760443Y-89652639D01*
X120756000Y-89652000D01*
X119696000Y-89652000D01*
X119482892Y-89698359D01*
X119473407Y-89704455D01*
X119473406Y-89704455D01*
X119419122Y-89739341D01*
X119360056Y-89777300D01*
X119354155Y-89784111D01*
X119354153Y-89784112D01*
X119270338Y-89880840D01*
X119270336Y-89880843D01*
X119264437Y-89887651D01*
X119260695Y-89895845D01*
X119260693Y-89895848D01*
X119242699Y-89935251D01*
X119196206Y-89988907D01*
X119128085Y-90008909D01*
X119059965Y-89988907D01*
X119022087Y-89951030D01*
X118948572Y-89836637D01*
X118943700Y-89829056D01*
X118936888Y-89823153D01*
X118840160Y-89739338D01*
X118840157Y-89739336D01*
X118833349Y-89733437D01*
X118825155Y-89729695D01*
X118825152Y-89729693D01*
X118708725Y-89676523D01*
X118700529Y-89672780D01*
X118663864Y-89667508D01*
X118560446Y-89652639D01*
X118560443Y-89652639D01*
X118556000Y-89652000D01*
X117496000Y-89652000D01*
X117282892Y-89698359D01*
X117273407Y-89704455D01*
X117273406Y-89704455D01*
X117219122Y-89739341D01*
X117160056Y-89777300D01*
X117154155Y-89784111D01*
X117154153Y-89784112D01*
X117134213Y-89807125D01*
X117115210Y-89829056D01*
X117110411Y-89834594D01*
X117050685Y-89872978D01*
X116979688Y-89872978D01*
X116911973Y-89824352D01*
X116832979Y-89711536D01*
X116832974Y-89711530D01*
X116829816Y-89707020D01*
X116667980Y-89545184D01*
X116663472Y-89542027D01*
X116663469Y-89542025D01*
X116485009Y-89417066D01*
X116485007Y-89417065D01*
X116480500Y-89413909D01*
X116475518Y-89411586D01*
X116475513Y-89411583D01*
X116333560Y-89345390D01*
X116273072Y-89317184D01*
X116052000Y-89257947D01*
X115824000Y-89238000D01*
X115596000Y-89257947D01*
X115374928Y-89317184D01*
X115314440Y-89345390D01*
X115172487Y-89411583D01*
X115172482Y-89411586D01*
X115167500Y-89413909D01*
X115162993Y-89417065D01*
X115162991Y-89417066D01*
X114984531Y-89542025D01*
X114984528Y-89542027D01*
X114980020Y-89545184D01*
X114818184Y-89707020D01*
X114815027Y-89711528D01*
X114815025Y-89711531D01*
X114690066Y-89889991D01*
X114690065Y-89889993D01*
X114686909Y-89894500D01*
X114684586Y-89899482D01*
X114684583Y-89899487D01*
X114655220Y-89962457D01*
X114590184Y-90101928D01*
X114530947Y-90323000D01*
X114511000Y-90551000D01*
X114530947Y-90779000D01*
X114590184Y-91000072D01*
X114632340Y-91090477D01*
X114684583Y-91202513D01*
X114684586Y-91202518D01*
X114686909Y-91207500D01*
X114690065Y-91212007D01*
X114690066Y-91212009D01*
X114764615Y-91318475D01*
X114818184Y-91394980D01*
X114980020Y-91556816D01*
X114984530Y-91559974D01*
X114984536Y-91559979D01*
X115071271Y-91620711D01*
X115115600Y-91676168D01*
X115125001Y-91723924D01*
X115125000Y-93841190D01*
X115125000Y-95858370D01*
X115124708Y-95866940D01*
X115120965Y-95921844D01*
X115122270Y-95929321D01*
X115122270Y-95929324D01*
X115131792Y-95983883D01*
X115132755Y-95990407D01*
X115136601Y-96022184D01*
X115140321Y-96052927D01*
X115143007Y-96060034D01*
X115143861Y-96063512D01*
X115147700Y-96077548D01*
X115148742Y-96080999D01*
X115150047Y-96088478D01*
X115153099Y-96095430D01*
X115153100Y-96095434D01*
X115175359Y-96146140D01*
X115177850Y-96152242D01*
X115200113Y-96211159D01*
X115204415Y-96217418D01*
X115206072Y-96220588D01*
X115213165Y-96233332D01*
X115214984Y-96236408D01*
X115218038Y-96243365D01*
X115222663Y-96249392D01*
X115222665Y-96249396D01*
X115256383Y-96293338D01*
X115260261Y-96298676D01*
X115267357Y-96309000D01*
X115295922Y-96350563D01*
X115301592Y-96355615D01*
X115301593Y-96355616D01*
X115340047Y-96389877D01*
X115345323Y-96394858D01*
X116782450Y-97831985D01*
X116816476Y-97894297D01*
X116817407Y-97941284D01*
X116816947Y-97943000D01*
X116797000Y-98171000D01*
X116816947Y-98399000D01*
X116876184Y-98620072D01*
X116900924Y-98673127D01*
X116903219Y-98678049D01*
X116913880Y-98748241D01*
X116884900Y-98813054D01*
X116825480Y-98851910D01*
X116754486Y-98852473D01*
X116699929Y-98820394D01*
X115575117Y-97695583D01*
X115569263Y-97689317D01*
X115538063Y-97653551D01*
X115538060Y-97653548D01*
X115533068Y-97647826D01*
X115526852Y-97643457D01*
X115481528Y-97611602D01*
X115476243Y-97607677D01*
X115426691Y-97568823D01*
X115419771Y-97565699D01*
X115416727Y-97563855D01*
X115404051Y-97556625D01*
X115400895Y-97554933D01*
X115394676Y-97550562D01*
X115335941Y-97527662D01*
X115329928Y-97525135D01*
X115272524Y-97499216D01*
X115265059Y-97497832D01*
X115261609Y-97496751D01*
X115247613Y-97492764D01*
X115244156Y-97491876D01*
X115237078Y-97489117D01*
X115229548Y-97488126D01*
X115229545Y-97488125D01*
X115195878Y-97483693D01*
X115174619Y-97480895D01*
X115168120Y-97479866D01*
X115106204Y-97468390D01*
X115098624Y-97468827D01*
X115098623Y-97468827D01*
X115047220Y-97471791D01*
X115039967Y-97472000D01*
X111662924Y-97472000D01*
X111594803Y-97451998D01*
X111559711Y-97418271D01*
X111498975Y-97331531D01*
X111498973Y-97331528D01*
X111495816Y-97327020D01*
X111333980Y-97165184D01*
X111329472Y-97162027D01*
X111329469Y-97162025D01*
X111242729Y-97101289D01*
X111198401Y-97045832D01*
X111189000Y-96998076D01*
X111189000Y-96168924D01*
X111209002Y-96100803D01*
X111242729Y-96065711D01*
X111329469Y-96004975D01*
X111329472Y-96004973D01*
X111333980Y-96001816D01*
X111495816Y-95839980D01*
X111569697Y-95734468D01*
X111623934Y-95657009D01*
X111623935Y-95657007D01*
X111627091Y-95652500D01*
X111629414Y-95647518D01*
X111629417Y-95647513D01*
X111721491Y-95450057D01*
X111723816Y-95445072D01*
X111783053Y-95224000D01*
X111803000Y-94996000D01*
X111783053Y-94768000D01*
X111723816Y-94546928D01*
X111644550Y-94376941D01*
X111629417Y-94344487D01*
X111629414Y-94344482D01*
X111627091Y-94339500D01*
X111618366Y-94327039D01*
X111498975Y-94156531D01*
X111498973Y-94156528D01*
X111495816Y-94152020D01*
X111333980Y-93990184D01*
X111329472Y-93987027D01*
X111329469Y-93987025D01*
X111151009Y-93862066D01*
X111151007Y-93862065D01*
X111146500Y-93858909D01*
X111141518Y-93856586D01*
X111141513Y-93856583D01*
X111036084Y-93807421D01*
X110939072Y-93762184D01*
X110718000Y-93702947D01*
X110490000Y-93683000D01*
X110262000Y-93702947D01*
X110190352Y-93722145D01*
X110046241Y-93760760D01*
X110046237Y-93760761D01*
X110040928Y-93762184D01*
X110039412Y-93762891D01*
X109969739Y-93767318D01*
X109907699Y-93732799D01*
X109871499Y-93644414D01*
X109871499Y-91722873D01*
X109891501Y-91654752D01*
X109945157Y-91608259D01*
X110015431Y-91598155D01*
X110069769Y-91619660D01*
X110162986Y-91684931D01*
X110172487Y-91690417D01*
X110369943Y-91782491D01*
X110380239Y-91786239D01*
X110590690Y-91842630D01*
X110601477Y-91844532D01*
X110818525Y-91863521D01*
X110829475Y-91863521D01*
X111046523Y-91844532D01*
X111057310Y-91842630D01*
X111267761Y-91786239D01*
X111278057Y-91782491D01*
X111475513Y-91690417D01*
X111485008Y-91684934D01*
X111537050Y-91648494D01*
X111545426Y-91638015D01*
X111538358Y-91624569D01*
X110553885Y-90640095D01*
X110519859Y-90577783D01*
X110521693Y-90552132D01*
X111188408Y-90552132D01*
X111188539Y-90553966D01*
X111192790Y-90560580D01*
X111898294Y-91266083D01*
X111910064Y-91272510D01*
X111922078Y-91263216D01*
X111957934Y-91212008D01*
X111963417Y-91202513D01*
X112055491Y-91005057D01*
X112059239Y-90994761D01*
X112115630Y-90784310D01*
X112117532Y-90773523D01*
X112136521Y-90556475D01*
X112136521Y-90545525D01*
X112117532Y-90328477D01*
X112115630Y-90317690D01*
X112059239Y-90107239D01*
X112055491Y-90096943D01*
X111963417Y-89899487D01*
X111957934Y-89889992D01*
X111921494Y-89837950D01*
X111911015Y-89829574D01*
X111897570Y-89836641D01*
X111196021Y-90538189D01*
X111188408Y-90552132D01*
X110521693Y-90552132D01*
X110524924Y-90506967D01*
X110553885Y-90461905D01*
X110824000Y-90191790D01*
X111539079Y-89476710D01*
X111545509Y-89464935D01*
X111536213Y-89452920D01*
X111485008Y-89417066D01*
X111475509Y-89411581D01*
X111443891Y-89396838D01*
X111390606Y-89349922D01*
X111371144Y-89281645D01*
X111408045Y-89193548D01*
X113759688Y-86841905D01*
X113848783Y-86805000D01*
X118740845Y-86805000D01*
X118808966Y-86825002D01*
X118848277Y-86865165D01*
X118964056Y-87054098D01*
X118967269Y-87057860D01*
X119073707Y-87182482D01*
X119128437Y-87246563D01*
X119132193Y-87249771D01*
X119189312Y-87298555D01*
X119320902Y-87410944D01*
X119536713Y-87543194D01*
X119541283Y-87545087D01*
X119541285Y-87545088D01*
X119765982Y-87638160D01*
X119765989Y-87638162D01*
X119770556Y-87640054D01*
X119856196Y-87660614D01*
X120011858Y-87697986D01*
X120011864Y-87697987D01*
X120016671Y-87699141D01*
X120269000Y-87719000D01*
X120521329Y-87699141D01*
X120526136Y-87697987D01*
X120526142Y-87697986D01*
X120681804Y-87660614D01*
X120767444Y-87640054D01*
X120772011Y-87638162D01*
X120772018Y-87638160D01*
X120996715Y-87545088D01*
X120996717Y-87545087D01*
X121001287Y-87543194D01*
X121217098Y-87410944D01*
X121348688Y-87298555D01*
X121405807Y-87249771D01*
X121409563Y-87246563D01*
X121464294Y-87182482D01*
X121505187Y-87134602D01*
X121564638Y-87095793D01*
X121635632Y-87095287D01*
X121696926Y-87140835D01*
X121699328Y-87138753D01*
X121705226Y-87145560D01*
X121710100Y-87153144D01*
X121716911Y-87159045D01*
X121716912Y-87159047D01*
X121813640Y-87242862D01*
X121813643Y-87242864D01*
X121820451Y-87248763D01*
X121828645Y-87252505D01*
X121828648Y-87252507D01*
X121929480Y-87298555D01*
X121953271Y-87309420D01*
X121962188Y-87310702D01*
X122093354Y-87329561D01*
X122093357Y-87329561D01*
X122097800Y-87330200D01*
X124028200Y-87330200D01*
X124241308Y-87283841D01*
X124299315Y-87246563D01*
X124356560Y-87209774D01*
X124356561Y-87209774D01*
X124364144Y-87204900D01*
X124370047Y-87198088D01*
X124453862Y-87101360D01*
X124453864Y-87101357D01*
X124459763Y-87094549D01*
X124463505Y-87086355D01*
X124463507Y-87086352D01*
X124478236Y-87054098D01*
X124483051Y-87043554D01*
X124529544Y-86989899D01*
X124597665Y-86969897D01*
X124678150Y-86998953D01*
X124751159Y-87059566D01*
X124759606Y-87065481D01*
X124959830Y-87182482D01*
X124969117Y-87186932D01*
X125185769Y-87269663D01*
X125195662Y-87272537D01*
X125331248Y-87300122D01*
X125344027Y-87299035D01*
X125349000Y-87283750D01*
X125349000Y-86119548D01*
X125857000Y-86119548D01*
X125857000Y-87286615D01*
X125861064Y-87300457D01*
X125874478Y-87302491D01*
X125905205Y-87298555D01*
X125915288Y-87296412D01*
X126137418Y-87229770D01*
X126146995Y-87226017D01*
X126355264Y-87123987D01*
X126364109Y-87118714D01*
X126552904Y-86984048D01*
X126560779Y-86977392D01*
X126725045Y-86813699D01*
X126731722Y-86805854D01*
X126867047Y-86617528D01*
X126872358Y-86608690D01*
X126975102Y-86400804D01*
X126978900Y-86391211D01*
X127046313Y-86169326D01*
X127048491Y-86159253D01*
X127053138Y-86123960D01*
X127050926Y-86109778D01*
X127037769Y-86106000D01*
X125875115Y-86106000D01*
X125859876Y-86110475D01*
X125858671Y-86111865D01*
X125857000Y-86119548D01*
X125349000Y-86119548D01*
X125349000Y-85724000D01*
X125369002Y-85655879D01*
X125422658Y-85609386D01*
X125475000Y-85598000D01*
X127040078Y-85598000D01*
X127051369Y-85594685D01*
X127052968Y-85577196D01*
X127003596Y-85380638D01*
X127000278Y-85370891D01*
X126907803Y-85158212D01*
X126902618Y-85148543D01*
X126888054Y-85079057D01*
X126913369Y-85012727D01*
X126970527Y-84970613D01*
X127013661Y-84963000D01*
X129541000Y-84963000D01*
X129609121Y-84983002D01*
G37*
%TD.AperFunction*%
%TD*%
M02*
