%TF.GenerationSoftware,KiCad,Pcbnew,(5.99.0-6613-ge739d5ba65)*%
%TF.CreationDate,2020-10-27T11:12:12+02:00*%
%TF.ProjectId,campanero-lima,63616d70-616e-4657-926f-2d6c696d612e,rev?*%
%TF.SameCoordinates,Original*%
%TF.FileFunction,Legend,Bot*%
%TF.FilePolarity,Positive*%
%FSLAX46Y46*%
G04 Gerber Fmt 4.6, Leading zero omitted, Abs format (unit mm)*
G04 Created by KiCad (PCBNEW (5.99.0-6613-ge739d5ba65)) date 2020-10-27 11:12:12*
%MOMM*%
%LPD*%
G01*
G04 APERTURE LIST*
%ADD10C,0.300000*%
%ADD11C,0.127000*%
%ADD12C,0.150000*%
%ADD13C,1.600000*%
%ADD14O,1.600000X1.600000*%
%ADD15R,1.600000X1.600000*%
%ADD16R,2.200000X2.200000*%
%ADD17O,2.200000X2.200000*%
%ADD18R,1.930400X1.930400*%
%ADD19O,1.930400X1.930400*%
G04 APERTURE END LIST*
D10*
X116359714Y-93096000D02*
X116431142Y-93024571D01*
X116502571Y-92810285D01*
X116502571Y-92667428D01*
X116431142Y-92453142D01*
X116288285Y-92310285D01*
X116145428Y-92238857D01*
X115859714Y-92167428D01*
X115645428Y-92167428D01*
X115359714Y-92238857D01*
X115216857Y-92310285D01*
X115074000Y-92453142D01*
X115002571Y-92667428D01*
X115002571Y-92810285D01*
X115074000Y-93024571D01*
X115145428Y-93096000D01*
X116502571Y-94381714D02*
X115716857Y-94381714D01*
X115574000Y-94310285D01*
X115502571Y-94167428D01*
X115502571Y-93881714D01*
X115574000Y-93738857D01*
X116431142Y-94381714D02*
X116502571Y-94238857D01*
X116502571Y-93881714D01*
X116431142Y-93738857D01*
X116288285Y-93667428D01*
X116145428Y-93667428D01*
X116002571Y-93738857D01*
X115931142Y-93881714D01*
X115931142Y-94238857D01*
X115859714Y-94381714D01*
X116502571Y-95096000D02*
X115502571Y-95096000D01*
X115645428Y-95096000D02*
X115574000Y-95167428D01*
X115502571Y-95310285D01*
X115502571Y-95524571D01*
X115574000Y-95667428D01*
X115716857Y-95738857D01*
X116502571Y-95738857D01*
X115716857Y-95738857D02*
X115574000Y-95810285D01*
X115502571Y-95953142D01*
X115502571Y-96167428D01*
X115574000Y-96310285D01*
X115716857Y-96381714D01*
X116502571Y-96381714D01*
X115502571Y-97096000D02*
X117002571Y-97096000D01*
X115574000Y-97096000D02*
X115502571Y-97238857D01*
X115502571Y-97524571D01*
X115574000Y-97667428D01*
X115645428Y-97738857D01*
X115788285Y-97810285D01*
X116216857Y-97810285D01*
X116359714Y-97738857D01*
X116431142Y-97667428D01*
X116502571Y-97524571D01*
X116502571Y-97238857D01*
X116431142Y-97096000D01*
X116502571Y-99096000D02*
X115716857Y-99096000D01*
X115574000Y-99024571D01*
X115502571Y-98881714D01*
X115502571Y-98596000D01*
X115574000Y-98453142D01*
X116431142Y-99096000D02*
X116502571Y-98953142D01*
X116502571Y-98596000D01*
X116431142Y-98453142D01*
X116288285Y-98381714D01*
X116145428Y-98381714D01*
X116002571Y-98453142D01*
X115931142Y-98596000D01*
X115931142Y-98953142D01*
X115859714Y-99096000D01*
X115502571Y-99810285D02*
X116502571Y-99810285D01*
X115645428Y-99810285D02*
X115574000Y-99881714D01*
X115502571Y-100024571D01*
X115502571Y-100238857D01*
X115574000Y-100381714D01*
X115716857Y-100453142D01*
X116502571Y-100453142D01*
X116431142Y-101738857D02*
X116502571Y-101596000D01*
X116502571Y-101310285D01*
X116431142Y-101167428D01*
X116288285Y-101096000D01*
X115716857Y-101096000D01*
X115574000Y-101167428D01*
X115502571Y-101310285D01*
X115502571Y-101596000D01*
X115574000Y-101738857D01*
X115716857Y-101810285D01*
X115859714Y-101810285D01*
X116002571Y-101096000D01*
X116502571Y-102453142D02*
X115502571Y-102453142D01*
X115788285Y-102453142D02*
X115645428Y-102524571D01*
X115574000Y-102596000D01*
X115502571Y-102738857D01*
X115502571Y-102881714D01*
X116502571Y-103596000D02*
X116431142Y-103453142D01*
X116359714Y-103381714D01*
X116216857Y-103310285D01*
X115788285Y-103310285D01*
X115645428Y-103381714D01*
X115574000Y-103453142D01*
X115502571Y-103596000D01*
X115502571Y-103810285D01*
X115574000Y-103953142D01*
X115645428Y-104024571D01*
X115788285Y-104096000D01*
X116216857Y-104096000D01*
X116359714Y-104024571D01*
X116431142Y-103953142D01*
X116502571Y-103810285D01*
X116502571Y-103596000D01*
X116502571Y-106596000D02*
X116502571Y-105881714D01*
X115002571Y-105881714D01*
X116502571Y-107096000D02*
X115502571Y-107096000D01*
X115002571Y-107096000D02*
X115074000Y-107024571D01*
X115145428Y-107096000D01*
X115074000Y-107167428D01*
X115002571Y-107096000D01*
X115145428Y-107096000D01*
X116502571Y-107810285D02*
X115502571Y-107810285D01*
X115645428Y-107810285D02*
X115574000Y-107881714D01*
X115502571Y-108024571D01*
X115502571Y-108238857D01*
X115574000Y-108381714D01*
X115716857Y-108453142D01*
X116502571Y-108453142D01*
X115716857Y-108453142D02*
X115574000Y-108524571D01*
X115502571Y-108667428D01*
X115502571Y-108881714D01*
X115574000Y-109024571D01*
X115716857Y-109096000D01*
X116502571Y-109096000D01*
X116502571Y-110453142D02*
X115716857Y-110453142D01*
X115574000Y-110381714D01*
X115502571Y-110238857D01*
X115502571Y-109953142D01*
X115574000Y-109810285D01*
X116431142Y-110453142D02*
X116502571Y-110310285D01*
X116502571Y-109953142D01*
X116431142Y-109810285D01*
X116288285Y-109738857D01*
X116145428Y-109738857D01*
X116002571Y-109810285D01*
X115931142Y-109953142D01*
X115931142Y-110310285D01*
X115859714Y-110453142D01*
D11*
X112985571Y-85516809D02*
X113633190Y-85516809D01*
X113709380Y-85478714D01*
X113747476Y-85440619D01*
X113785571Y-85364428D01*
X113785571Y-85250142D01*
X113747476Y-85173952D01*
X113480809Y-85516809D02*
X113518904Y-85440619D01*
X113518904Y-85288238D01*
X113480809Y-85212047D01*
X113442714Y-85173952D01*
X113366523Y-85135857D01*
X113137952Y-85135857D01*
X113061761Y-85173952D01*
X113023666Y-85212047D01*
X112985571Y-85288238D01*
X112985571Y-85440619D01*
X113023666Y-85516809D01*
X113518904Y-85897761D02*
X112985571Y-85897761D01*
X112718904Y-85897761D02*
X112757000Y-85859666D01*
X112795095Y-85897761D01*
X112757000Y-85935857D01*
X112718904Y-85897761D01*
X112795095Y-85897761D01*
X112985571Y-86164428D02*
X112985571Y-86469190D01*
X112718904Y-86278714D02*
X113404619Y-86278714D01*
X113480809Y-86316809D01*
X113518904Y-86393000D01*
X113518904Y-86469190D01*
X113518904Y-86735857D02*
X112718904Y-86735857D01*
X113518904Y-87078714D02*
X113099857Y-87078714D01*
X113023666Y-87040619D01*
X112985571Y-86964428D01*
X112985571Y-86850142D01*
X113023666Y-86773952D01*
X113061761Y-86735857D01*
X112985571Y-87802523D02*
X113518904Y-87802523D01*
X112985571Y-87459666D02*
X113404619Y-87459666D01*
X113480809Y-87497761D01*
X113518904Y-87573952D01*
X113518904Y-87688238D01*
X113480809Y-87764428D01*
X113442714Y-87802523D01*
X113518904Y-88183476D02*
X112718904Y-88183476D01*
X113023666Y-88183476D02*
X112985571Y-88259666D01*
X112985571Y-88412047D01*
X113023666Y-88488238D01*
X113061761Y-88526333D01*
X113137952Y-88564428D01*
X113366523Y-88564428D01*
X113442714Y-88526333D01*
X113480809Y-88488238D01*
X113518904Y-88412047D01*
X113518904Y-88259666D01*
X113480809Y-88183476D01*
X113442714Y-88907285D02*
X113480809Y-88945380D01*
X113518904Y-88907285D01*
X113480809Y-88869190D01*
X113442714Y-88907285D01*
X113518904Y-88907285D01*
X113480809Y-89631095D02*
X113518904Y-89554904D01*
X113518904Y-89402523D01*
X113480809Y-89326333D01*
X113442714Y-89288238D01*
X113366523Y-89250142D01*
X113137952Y-89250142D01*
X113061761Y-89288238D01*
X113023666Y-89326333D01*
X112985571Y-89402523D01*
X112985571Y-89554904D01*
X113023666Y-89631095D01*
X113518904Y-90088238D02*
X113480809Y-90012047D01*
X113442714Y-89973952D01*
X113366523Y-89935857D01*
X113137952Y-89935857D01*
X113061761Y-89973952D01*
X113023666Y-90012047D01*
X112985571Y-90088238D01*
X112985571Y-90202523D01*
X113023666Y-90278714D01*
X113061761Y-90316809D01*
X113137952Y-90354904D01*
X113366523Y-90354904D01*
X113442714Y-90316809D01*
X113480809Y-90278714D01*
X113518904Y-90202523D01*
X113518904Y-90088238D01*
X113518904Y-90697761D02*
X112985571Y-90697761D01*
X113061761Y-90697761D02*
X113023666Y-90735857D01*
X112985571Y-90812047D01*
X112985571Y-90926333D01*
X113023666Y-91002523D01*
X113099857Y-91040619D01*
X113518904Y-91040619D01*
X113099857Y-91040619D02*
X113023666Y-91078714D01*
X112985571Y-91154904D01*
X112985571Y-91269190D01*
X113023666Y-91345380D01*
X113099857Y-91383476D01*
X113518904Y-91383476D01*
X112680809Y-92335857D02*
X113709380Y-91650142D01*
X113518904Y-92602523D02*
X112985571Y-92602523D01*
X113137952Y-92602523D02*
X113061761Y-92640619D01*
X113023666Y-92678714D01*
X112985571Y-92754904D01*
X112985571Y-92831095D01*
X113518904Y-93212047D02*
X113480809Y-93135857D01*
X113442714Y-93097761D01*
X113366523Y-93059666D01*
X113137952Y-93059666D01*
X113061761Y-93097761D01*
X113023666Y-93135857D01*
X112985571Y-93212047D01*
X112985571Y-93326333D01*
X113023666Y-93402523D01*
X113061761Y-93440619D01*
X113137952Y-93478714D01*
X113366523Y-93478714D01*
X113442714Y-93440619D01*
X113480809Y-93402523D01*
X113518904Y-93326333D01*
X113518904Y-93212047D01*
X113480809Y-94164428D02*
X113518904Y-94088238D01*
X113518904Y-93935857D01*
X113480809Y-93859666D01*
X113442714Y-93821571D01*
X113366523Y-93783476D01*
X113137952Y-93783476D01*
X113061761Y-93821571D01*
X113023666Y-93859666D01*
X112985571Y-93935857D01*
X112985571Y-94088238D01*
X113023666Y-94164428D01*
X113518904Y-94507285D02*
X112718904Y-94507285D01*
X113214142Y-94583476D02*
X113518904Y-94812047D01*
X112985571Y-94812047D02*
X113290333Y-94507285D01*
X113518904Y-95269190D02*
X113480809Y-95193000D01*
X113442714Y-95154904D01*
X113366523Y-95116809D01*
X113137952Y-95116809D01*
X113061761Y-95154904D01*
X113023666Y-95193000D01*
X112985571Y-95269190D01*
X112985571Y-95383476D01*
X113023666Y-95459666D01*
X113061761Y-95497761D01*
X113137952Y-95535857D01*
X113366523Y-95535857D01*
X113442714Y-95497761D01*
X113480809Y-95459666D01*
X113518904Y-95383476D01*
X113518904Y-95269190D01*
X113518904Y-95993000D02*
X113480809Y-95916809D01*
X113404619Y-95878714D01*
X112718904Y-95878714D01*
X113518904Y-96640619D02*
X113099857Y-96640619D01*
X113023666Y-96602523D01*
X112985571Y-96526333D01*
X112985571Y-96373952D01*
X113023666Y-96297761D01*
X113480809Y-96640619D02*
X113518904Y-96564428D01*
X113518904Y-96373952D01*
X113480809Y-96297761D01*
X113404619Y-96259666D01*
X113328428Y-96259666D01*
X113252238Y-96297761D01*
X113214142Y-96373952D01*
X113214142Y-96564428D01*
X113176047Y-96640619D01*
X112680809Y-97593000D02*
X113709380Y-96907285D01*
X113480809Y-98202523D02*
X113518904Y-98126333D01*
X113518904Y-97973952D01*
X113480809Y-97897761D01*
X113442714Y-97859666D01*
X113366523Y-97821571D01*
X113137952Y-97821571D01*
X113061761Y-97859666D01*
X113023666Y-97897761D01*
X112985571Y-97973952D01*
X112985571Y-98126333D01*
X113023666Y-98202523D01*
X113518904Y-98888238D02*
X113099857Y-98888238D01*
X113023666Y-98850142D01*
X112985571Y-98773952D01*
X112985571Y-98621571D01*
X113023666Y-98545380D01*
X113480809Y-98888238D02*
X113518904Y-98812047D01*
X113518904Y-98621571D01*
X113480809Y-98545380D01*
X113404619Y-98507285D01*
X113328428Y-98507285D01*
X113252238Y-98545380D01*
X113214142Y-98621571D01*
X113214142Y-98812047D01*
X113176047Y-98888238D01*
X113518904Y-99269190D02*
X112985571Y-99269190D01*
X113061761Y-99269190D02*
X113023666Y-99307285D01*
X112985571Y-99383476D01*
X112985571Y-99497761D01*
X113023666Y-99573952D01*
X113099857Y-99612047D01*
X113518904Y-99612047D01*
X113099857Y-99612047D02*
X113023666Y-99650142D01*
X112985571Y-99726333D01*
X112985571Y-99840619D01*
X113023666Y-99916809D01*
X113099857Y-99954904D01*
X113518904Y-99954904D01*
X112985571Y-100335857D02*
X113785571Y-100335857D01*
X113023666Y-100335857D02*
X112985571Y-100412047D01*
X112985571Y-100564428D01*
X113023666Y-100640619D01*
X113061761Y-100678714D01*
X113137952Y-100716809D01*
X113366523Y-100716809D01*
X113442714Y-100678714D01*
X113480809Y-100640619D01*
X113518904Y-100564428D01*
X113518904Y-100412047D01*
X113480809Y-100335857D01*
X113518904Y-101402523D02*
X113099857Y-101402523D01*
X113023666Y-101364428D01*
X112985571Y-101288238D01*
X112985571Y-101135857D01*
X113023666Y-101059666D01*
X113480809Y-101402523D02*
X113518904Y-101326333D01*
X113518904Y-101135857D01*
X113480809Y-101059666D01*
X113404619Y-101021571D01*
X113328428Y-101021571D01*
X113252238Y-101059666D01*
X113214142Y-101135857D01*
X113214142Y-101326333D01*
X113176047Y-101402523D01*
X112985571Y-101783476D02*
X113518904Y-101783476D01*
X113061761Y-101783476D02*
X113023666Y-101821571D01*
X112985571Y-101897761D01*
X112985571Y-102012047D01*
X113023666Y-102088238D01*
X113099857Y-102126333D01*
X113518904Y-102126333D01*
X113480809Y-102812047D02*
X113518904Y-102735857D01*
X113518904Y-102583476D01*
X113480809Y-102507285D01*
X113404619Y-102469190D01*
X113099857Y-102469190D01*
X113023666Y-102507285D01*
X112985571Y-102583476D01*
X112985571Y-102735857D01*
X113023666Y-102812047D01*
X113099857Y-102850142D01*
X113176047Y-102850142D01*
X113252238Y-102469190D01*
X113518904Y-103192999D02*
X112985571Y-103192999D01*
X113137952Y-103192999D02*
X113061761Y-103231095D01*
X113023666Y-103269190D01*
X112985571Y-103345380D01*
X112985571Y-103421571D01*
X113518904Y-103802523D02*
X113480809Y-103726333D01*
X113442714Y-103688238D01*
X113366523Y-103650142D01*
X113137952Y-103650142D01*
X113061761Y-103688238D01*
X113023666Y-103726333D01*
X112985571Y-103802523D01*
X112985571Y-103916809D01*
X113023666Y-103992999D01*
X113061761Y-104031095D01*
X113137952Y-104069190D01*
X113366523Y-104069190D01*
X113442714Y-104031095D01*
X113480809Y-103992999D01*
X113518904Y-103916809D01*
X113518904Y-103802523D01*
X113214142Y-104412047D02*
X113214142Y-105021571D01*
X113518904Y-105516809D02*
X113480809Y-105440619D01*
X113404619Y-105402523D01*
X112718904Y-105402523D01*
X113518904Y-105821571D02*
X112985571Y-105821571D01*
X112718904Y-105821571D02*
X112757000Y-105783476D01*
X112795095Y-105821571D01*
X112757000Y-105859666D01*
X112718904Y-105821571D01*
X112795095Y-105821571D01*
X113518904Y-106202523D02*
X112985571Y-106202523D01*
X113061761Y-106202523D02*
X113023666Y-106240619D01*
X112985571Y-106316809D01*
X112985571Y-106431095D01*
X113023666Y-106507285D01*
X113099857Y-106545380D01*
X113518904Y-106545380D01*
X113099857Y-106545380D02*
X113023666Y-106583476D01*
X112985571Y-106659666D01*
X112985571Y-106773952D01*
X113023666Y-106850142D01*
X113099857Y-106888238D01*
X113518904Y-106888238D01*
X113518904Y-107612047D02*
X113099857Y-107612047D01*
X113023666Y-107573952D01*
X112985571Y-107497761D01*
X112985571Y-107345380D01*
X113023666Y-107269190D01*
X113480809Y-107612047D02*
X113518904Y-107535857D01*
X113518904Y-107345380D01*
X113480809Y-107269190D01*
X113404619Y-107231095D01*
X113328428Y-107231095D01*
X113252238Y-107269190D01*
X113214142Y-107345380D01*
X113214142Y-107535857D01*
X113176047Y-107612047D01*
X127200571Y-109728142D02*
X127733904Y-109918619D01*
X127200571Y-110109095D01*
X126933904Y-110566238D02*
X126933904Y-110642428D01*
X126972000Y-110718619D01*
X127010095Y-110756714D01*
X127086285Y-110794809D01*
X127238666Y-110832904D01*
X127429142Y-110832904D01*
X127581523Y-110794809D01*
X127657714Y-110756714D01*
X127695809Y-110718619D01*
X127733904Y-110642428D01*
X127733904Y-110566238D01*
X127695809Y-110490047D01*
X127657714Y-110451952D01*
X127581523Y-110413857D01*
X127429142Y-110375761D01*
X127238666Y-110375761D01*
X127086285Y-110413857D01*
X127010095Y-110451952D01*
X126972000Y-110490047D01*
X126933904Y-110566238D01*
X127657714Y-111175761D02*
X127695809Y-111213857D01*
X127733904Y-111175761D01*
X127695809Y-111137666D01*
X127657714Y-111175761D01*
X127733904Y-111175761D01*
X127733904Y-111975761D02*
X127733904Y-111518619D01*
X127733904Y-111747190D02*
X126933904Y-111747190D01*
X127048190Y-111671000D01*
X127124380Y-111594809D01*
X127162476Y-111518619D01*
X128298095Y-106985285D02*
X128260000Y-107023380D01*
X128221904Y-107099571D01*
X128221904Y-107290047D01*
X128260000Y-107366238D01*
X128298095Y-107404333D01*
X128374285Y-107442428D01*
X128450476Y-107442428D01*
X128564761Y-107404333D01*
X129021904Y-106947190D01*
X129021904Y-107442428D01*
X128221904Y-107937666D02*
X128221904Y-108013857D01*
X128260000Y-108090047D01*
X128298095Y-108128142D01*
X128374285Y-108166238D01*
X128526666Y-108204333D01*
X128717142Y-108204333D01*
X128869523Y-108166238D01*
X128945714Y-108128142D01*
X128983809Y-108090047D01*
X129021904Y-108013857D01*
X129021904Y-107937666D01*
X128983809Y-107861476D01*
X128945714Y-107823380D01*
X128869523Y-107785285D01*
X128717142Y-107747190D01*
X128526666Y-107747190D01*
X128374285Y-107785285D01*
X128298095Y-107823380D01*
X128260000Y-107861476D01*
X128221904Y-107937666D01*
X128298095Y-108509095D02*
X128260000Y-108547190D01*
X128221904Y-108623380D01*
X128221904Y-108813857D01*
X128260000Y-108890047D01*
X128298095Y-108928142D01*
X128374285Y-108966238D01*
X128450476Y-108966238D01*
X128564761Y-108928142D01*
X129021904Y-108471000D01*
X129021904Y-108966238D01*
X128221904Y-109461476D02*
X128221904Y-109537666D01*
X128260000Y-109613857D01*
X128298095Y-109651952D01*
X128374285Y-109690047D01*
X128526666Y-109728142D01*
X128717142Y-109728142D01*
X128869523Y-109690047D01*
X128945714Y-109651952D01*
X128983809Y-109613857D01*
X129021904Y-109537666D01*
X129021904Y-109461476D01*
X128983809Y-109385285D01*
X128945714Y-109347190D01*
X128869523Y-109309095D01*
X128717142Y-109271000D01*
X128526666Y-109271000D01*
X128374285Y-109309095D01*
X128298095Y-109347190D01*
X128260000Y-109385285D01*
X128221904Y-109461476D01*
X128717142Y-110071000D02*
X128717142Y-110680523D01*
X129021904Y-111480523D02*
X129021904Y-111023380D01*
X129021904Y-111251952D02*
X128221904Y-111251952D01*
X128336190Y-111175761D01*
X128412380Y-111099571D01*
X128450476Y-111023380D01*
X128221904Y-111975761D02*
X128221904Y-112051952D01*
X128260000Y-112128142D01*
X128298095Y-112166238D01*
X128374285Y-112204333D01*
X128526666Y-112242428D01*
X128717142Y-112242428D01*
X128869523Y-112204333D01*
X128945714Y-112166238D01*
X128983809Y-112128142D01*
X129021904Y-112051952D01*
X129021904Y-111975761D01*
X128983809Y-111899571D01*
X128945714Y-111861476D01*
X128869523Y-111823380D01*
X128717142Y-111785285D01*
X128526666Y-111785285D01*
X128374285Y-111823380D01*
X128298095Y-111861476D01*
X128260000Y-111899571D01*
X128221904Y-111975761D01*
X128717142Y-112585285D02*
X128717142Y-113194809D01*
X128298095Y-113537666D02*
X128260000Y-113575761D01*
X128221904Y-113651952D01*
X128221904Y-113842428D01*
X128260000Y-113918619D01*
X128298095Y-113956714D01*
X128374285Y-113994809D01*
X128450476Y-113994809D01*
X128564761Y-113956714D01*
X129021904Y-113499571D01*
X129021904Y-113994809D01*
X128221904Y-114261476D02*
X128221904Y-114794809D01*
X129021904Y-114451952D01*
D12*
%TO.C,J3*%
X121589714Y-113099809D02*
X121475428Y-113137904D01*
X121284952Y-113137904D01*
X121208761Y-113099809D01*
X121170666Y-113061714D01*
X121132571Y-112985523D01*
X121132571Y-112909333D01*
X121170666Y-112833142D01*
X121208761Y-112795047D01*
X121284952Y-112756952D01*
X121437333Y-112718857D01*
X121513523Y-112680761D01*
X121551619Y-112642666D01*
X121589714Y-112566476D01*
X121589714Y-112490285D01*
X121551619Y-112414095D01*
X121513523Y-112376000D01*
X121437333Y-112337904D01*
X121246857Y-112337904D01*
X121132571Y-112376000D01*
X120865904Y-112337904D02*
X120675428Y-113137904D01*
X120523047Y-112566476D01*
X120370666Y-113137904D01*
X120180190Y-112337904D01*
X118973523Y-112376000D02*
X119049714Y-112337904D01*
X119164000Y-112337904D01*
X119278285Y-112376000D01*
X119354476Y-112452190D01*
X119392571Y-112528380D01*
X119430666Y-112680761D01*
X119430666Y-112795047D01*
X119392571Y-112947428D01*
X119354476Y-113023619D01*
X119278285Y-113099809D01*
X119164000Y-113137904D01*
X119087809Y-113137904D01*
X118973523Y-113099809D01*
X118935428Y-113061714D01*
X118935428Y-112795047D01*
X119087809Y-112795047D01*
X118592571Y-113137904D02*
X118592571Y-112337904D01*
X118135428Y-113137904D01*
X118135428Y-112337904D01*
X117754476Y-113137904D02*
X117754476Y-112337904D01*
X117564000Y-112337904D01*
X117449714Y-112376000D01*
X117373523Y-112452190D01*
X117335428Y-112528380D01*
X117297333Y-112680761D01*
X117297333Y-112795047D01*
X117335428Y-112947428D01*
X117373523Y-113023619D01*
X117449714Y-113099809D01*
X117564000Y-113137904D01*
X117754476Y-113137904D01*
X116243047Y-113137904D02*
X116243047Y-112337904D01*
X115862095Y-113137904D02*
X115862095Y-112337904D01*
X115404952Y-113137904D01*
X115404952Y-112337904D01*
X124244000Y-112337904D02*
X124091619Y-112337904D01*
X124015428Y-112376000D01*
X123939238Y-112452190D01*
X123901142Y-112604571D01*
X123901142Y-112871238D01*
X123939238Y-113023619D01*
X124015428Y-113099809D01*
X124091619Y-113137904D01*
X124244000Y-113137904D01*
X124320190Y-113099809D01*
X124396380Y-113023619D01*
X124434476Y-112871238D01*
X124434476Y-112604571D01*
X124396380Y-112452190D01*
X124320190Y-112376000D01*
X124244000Y-112337904D01*
X123558285Y-112337904D02*
X123558285Y-112985523D01*
X123520190Y-113061714D01*
X123482095Y-113099809D01*
X123405904Y-113137904D01*
X123253523Y-113137904D01*
X123177333Y-113099809D01*
X123139238Y-113061714D01*
X123101142Y-112985523D01*
X123101142Y-112337904D01*
X122834476Y-112337904D02*
X122377333Y-112337904D01*
X122605904Y-113137904D02*
X122605904Y-112337904D01*
%TO.C,J1*%
X123697904Y-87318904D02*
X123431238Y-88118904D01*
X123164571Y-87318904D01*
X122897904Y-87814142D02*
X122288380Y-87814142D01*
X122593142Y-88118904D02*
X122593142Y-87509380D01*
X126085523Y-87357000D02*
X126161714Y-87318904D01*
X126276000Y-87318904D01*
X126390285Y-87357000D01*
X126466476Y-87433190D01*
X126504571Y-87509380D01*
X126542666Y-87661761D01*
X126542666Y-87776047D01*
X126504571Y-87928428D01*
X126466476Y-88004619D01*
X126390285Y-88080809D01*
X126276000Y-88118904D01*
X126199809Y-88118904D01*
X126085523Y-88080809D01*
X126047428Y-88042714D01*
X126047428Y-87776047D01*
X126199809Y-87776047D01*
X125704571Y-88118904D02*
X125704571Y-87318904D01*
X125247428Y-88118904D01*
X125247428Y-87318904D01*
X124866476Y-88118904D02*
X124866476Y-87318904D01*
X124676000Y-87318904D01*
X124561714Y-87357000D01*
X124485523Y-87433190D01*
X124447428Y-87509380D01*
X124409333Y-87661761D01*
X124409333Y-87776047D01*
X124447428Y-87928428D01*
X124485523Y-88004619D01*
X124561714Y-88080809D01*
X124676000Y-88118904D01*
X124866476Y-88118904D01*
%TO.C,J2*%
X111124904Y-112337904D02*
X110858238Y-113137904D01*
X110591571Y-112337904D01*
X110324904Y-112833142D02*
X109715380Y-112833142D01*
X110020142Y-113137904D02*
X110020142Y-112528380D01*
X113512523Y-112376000D02*
X113588714Y-112337904D01*
X113703000Y-112337904D01*
X113817285Y-112376000D01*
X113893476Y-112452190D01*
X113931571Y-112528380D01*
X113969666Y-112680761D01*
X113969666Y-112795047D01*
X113931571Y-112947428D01*
X113893476Y-113023619D01*
X113817285Y-113099809D01*
X113703000Y-113137904D01*
X113626809Y-113137904D01*
X113512523Y-113099809D01*
X113474428Y-113061714D01*
X113474428Y-112795047D01*
X113626809Y-112795047D01*
X113131571Y-113137904D02*
X113131571Y-112337904D01*
X112674428Y-113137904D01*
X112674428Y-112337904D01*
X112293476Y-113137904D02*
X112293476Y-112337904D01*
X112103000Y-112337904D01*
X111988714Y-112376000D01*
X111912523Y-112452190D01*
X111874428Y-112528380D01*
X111836333Y-112680761D01*
X111836333Y-112795047D01*
X111874428Y-112947428D01*
X111912523Y-113023619D01*
X111988714Y-113099809D01*
X112103000Y-113137904D01*
X112293476Y-113137904D01*
D11*
%TO.C,J3*%
X114554000Y-113411000D02*
X114554000Y-112141000D01*
X124714000Y-113411000D02*
X114554000Y-113411000D01*
X114554000Y-115951000D02*
X124714000Y-115951000D01*
X124714000Y-115951000D02*
X124714000Y-113411000D01*
X124714000Y-113411000D02*
X124714000Y-112141000D01*
X114554000Y-112141000D02*
X124714000Y-112141000D01*
X114554000Y-115951000D02*
X114554000Y-113411000D01*
%TO.C,J1*%
X126873000Y-84582000D02*
X121793000Y-84582000D01*
X121793000Y-87122000D02*
X121793000Y-84582000D01*
X121793000Y-88392000D02*
X121793000Y-87122000D01*
X126873000Y-87122000D02*
X126873000Y-84582000D01*
X121793000Y-87122000D02*
X126873000Y-87122000D01*
X121793000Y-88392000D02*
X126873000Y-88392000D01*
X126873000Y-88392000D02*
X126873000Y-87122000D01*
%TO.C,J2*%
X114300000Y-115951000D02*
X114300000Y-113411000D01*
X109220000Y-113411000D02*
X109220000Y-112141000D01*
X109220000Y-115951000D02*
X109220000Y-113411000D01*
X114300000Y-113411000D02*
X114300000Y-112141000D01*
X109220000Y-115951000D02*
X114300000Y-115951000D01*
X109220000Y-112141000D02*
X114300000Y-112141000D01*
X114300000Y-113411000D02*
X109220000Y-113411000D01*
%TD*%
%LPC*%
D13*
%TO.C,C2*%
X125603000Y-97028000D03*
X120603000Y-97028000D03*
%TD*%
%TO.C,R7*%
X128524000Y-105029000D03*
D14*
X128524000Y-97409000D03*
%TD*%
D15*
%TO.C,C5*%
X122682000Y-104521000D03*
D13*
X122682000Y-102021000D03*
%TD*%
%TO.C,R4*%
X126365000Y-107188000D03*
D14*
X126365000Y-114808000D03*
%TD*%
D16*
%TO.C,D1*%
X110109000Y-86106000D03*
D17*
X120269000Y-86106000D03*
%TD*%
D13*
%TO.C,R2*%
X118110000Y-101219000D03*
D14*
X110490000Y-101219000D03*
%TD*%
D13*
%TO.C,C3*%
X115824000Y-90551000D03*
X110824000Y-90551000D03*
%TD*%
D18*
%TO.C,J3*%
X115824000Y-114681000D03*
D19*
X118364000Y-114681000D03*
X120904000Y-114681000D03*
X123444000Y-114681000D03*
%TD*%
D13*
%TO.C,C1*%
X113030000Y-110490000D03*
X118030000Y-110490000D03*
%TD*%
%TO.C,R6*%
X110490000Y-98171000D03*
D14*
X118110000Y-98171000D03*
%TD*%
D18*
%TO.C,J1*%
X123063000Y-85852000D03*
D19*
X125603000Y-85852000D03*
%TD*%
D18*
%TO.C,J2*%
X110490000Y-114681000D03*
D19*
X113030000Y-114681000D03*
%TD*%
D13*
%TO.C,R5*%
X110490000Y-94996000D03*
D14*
X118110000Y-94996000D03*
%TD*%
D13*
%TO.C,R1*%
X110490000Y-107315000D03*
D14*
X118110000Y-107315000D03*
%TD*%
D13*
%TO.C,C4*%
X122936000Y-91313000D03*
X127936000Y-91313000D03*
%TD*%
%TO.C,R3*%
X110490000Y-104267000D03*
D14*
X118110000Y-104267000D03*
%TD*%
M02*
