M48
; DRILL file {KiCad (5.99.0-6613-ge739d5ba65)} date Tue Oct 27 11:12:14 2020
; FORMAT={-:-/ absolute / inch / decimal}
; #@! TF.CreationDate,2020-10-27T11:12:14+02:00
; #@! TF.GenerationSoftware,Kicad,Pcbnew,(5.99.0-6613-ge739d5ba65)
; #@! TF.FileFunction,Plated,1,2,PTH
FMAT,2
INCH
T1C0.0315
T2C0.0433
%
G90
G05
T1
X4.35Y-3.74
X4.65Y-3.74
X4.35Y-3.985
X4.65Y-3.985
X4.65Y-4.225
X4.84Y-3.595
X4.975Y-4.22
X4.975Y-4.52
X5.06Y-3.835
X5.06Y-4.135
X4.35Y-4.225
X4.35Y-4.105
X4.65Y-4.105
X4.7481Y-3.82
X5.0369Y-3.595
X4.945Y-3.82
X4.83Y-4.0166
X4.83Y-4.115
X4.3631Y-3.565
X4.56Y-3.565
X4.45Y-4.35
X4.6469Y-4.35
X4.35Y-3.865
X4.65Y-3.865
T2
X4.335Y-3.39
X4.735Y-3.39
X4.35Y-4.515
X4.45Y-4.515
X4.56Y-4.515
X4.66Y-4.515
X4.76Y-4.515
X4.86Y-4.515
X4.845Y-3.38
X4.945Y-3.38
T0
M30
