%TF.GenerationSoftware,KiCad,Pcbnew,6.0.0+dfsg1-2*%
%TF.CreationDate,2022-01-11T21:19:38+02:00*%
%TF.ProjectId,campanero-lima,63616d70-616e-4657-926f-2d6c696d612e,rev?*%
%TF.SameCoordinates,Original*%
%TF.FileFunction,Legend,Top*%
%TF.FilePolarity,Positive*%
%FSLAX46Y46*%
G04 Gerber Fmt 4.6, Leading zero omitted, Abs format (unit mm)*
G04 Created by KiCad (PCBNEW 6.0.0+dfsg1-2) date 2022-01-11 21:19:38*
%MOMM*%
%LPD*%
G01*
G04 APERTURE LIST*
%ADD10C,0.150000*%
%ADD11C,0.120000*%
%ADD12C,0.127000*%
%ADD13C,1.600000*%
%ADD14O,1.600000X1.600000*%
%ADD15R,1.600000X1.600000*%
%ADD16R,2.200000X2.200000*%
%ADD17O,2.200000X2.200000*%
%ADD18R,1.930400X1.930400*%
%ADD19O,1.930400X1.930400*%
%ADD20R,1.060000X0.650000*%
%ADD21R,0.800000X0.900000*%
G04 APERTURE END LIST*
D10*
%TO.C,C2*%
X122936333Y-97512142D02*
X122888714Y-97559761D01*
X122745857Y-97607380D01*
X122650619Y-97607380D01*
X122507761Y-97559761D01*
X122412523Y-97464523D01*
X122364904Y-97369285D01*
X122317285Y-97178809D01*
X122317285Y-97035952D01*
X122364904Y-96845476D01*
X122412523Y-96750238D01*
X122507761Y-96655000D01*
X122650619Y-96607380D01*
X122745857Y-96607380D01*
X122888714Y-96655000D01*
X122936333Y-96702619D01*
X123317285Y-96702619D02*
X123364904Y-96655000D01*
X123460142Y-96607380D01*
X123698238Y-96607380D01*
X123793476Y-96655000D01*
X123841095Y-96702619D01*
X123888714Y-96797857D01*
X123888714Y-96893095D01*
X123841095Y-97035952D01*
X123269666Y-97607380D01*
X123888714Y-97607380D01*
%TO.C,R7*%
X128976380Y-101385666D02*
X128500190Y-101719000D01*
X128976380Y-101957095D02*
X127976380Y-101957095D01*
X127976380Y-101576142D01*
X128024000Y-101480904D01*
X128071619Y-101433285D01*
X128166857Y-101385666D01*
X128309714Y-101385666D01*
X128404952Y-101433285D01*
X128452571Y-101480904D01*
X128500190Y-101576142D01*
X128500190Y-101957095D01*
X127976380Y-101052333D02*
X127976380Y-100385666D01*
X128976380Y-100814238D01*
%TO.C,C5*%
X120483333Y-104497142D02*
X120435714Y-104544761D01*
X120292857Y-104592380D01*
X120197619Y-104592380D01*
X120054761Y-104544761D01*
X119959523Y-104449523D01*
X119911904Y-104354285D01*
X119864285Y-104163809D01*
X119864285Y-104020952D01*
X119911904Y-103830476D01*
X119959523Y-103735238D01*
X120054761Y-103640000D01*
X120197619Y-103592380D01*
X120292857Y-103592380D01*
X120435714Y-103640000D01*
X120483333Y-103687619D01*
X121388095Y-103592380D02*
X120911904Y-103592380D01*
X120864285Y-104068571D01*
X120911904Y-104020952D01*
X121007142Y-103973333D01*
X121245238Y-103973333D01*
X121340476Y-104020952D01*
X121388095Y-104068571D01*
X121435714Y-104163809D01*
X121435714Y-104401904D01*
X121388095Y-104497142D01*
X121340476Y-104544761D01*
X121245238Y-104592380D01*
X121007142Y-104592380D01*
X120911904Y-104544761D01*
X120864285Y-104497142D01*
%TO.C,R4*%
X126817380Y-111164666D02*
X126341190Y-111498000D01*
X126817380Y-111736095D02*
X125817380Y-111736095D01*
X125817380Y-111355142D01*
X125865000Y-111259904D01*
X125912619Y-111212285D01*
X126007857Y-111164666D01*
X126150714Y-111164666D01*
X126245952Y-111212285D01*
X126293571Y-111259904D01*
X126341190Y-111355142D01*
X126341190Y-111736095D01*
X126150714Y-110307523D02*
X126817380Y-110307523D01*
X125769761Y-110545619D02*
X126484047Y-110783714D01*
X126484047Y-110164666D01*
%TO.C,D1*%
X114831904Y-86431380D02*
X114831904Y-85431380D01*
X115070000Y-85431380D01*
X115212857Y-85479000D01*
X115308095Y-85574238D01*
X115355714Y-85669476D01*
X115403333Y-85859952D01*
X115403333Y-86002809D01*
X115355714Y-86193285D01*
X115308095Y-86288523D01*
X115212857Y-86383761D01*
X115070000Y-86431380D01*
X114831904Y-86431380D01*
X116355714Y-86431380D02*
X115784285Y-86431380D01*
X116070000Y-86431380D02*
X116070000Y-85431380D01*
X115974761Y-85574238D01*
X115879523Y-85669476D01*
X115784285Y-85717095D01*
X111625095Y-85796380D02*
X111625095Y-84796380D01*
X112196523Y-85796380D02*
X111767952Y-85224952D01*
X112196523Y-84796380D02*
X111625095Y-85367809D01*
%TO.C,R2*%
X114133333Y-101671380D02*
X113800000Y-101195190D01*
X113561904Y-101671380D02*
X113561904Y-100671380D01*
X113942857Y-100671380D01*
X114038095Y-100719000D01*
X114085714Y-100766619D01*
X114133333Y-100861857D01*
X114133333Y-101004714D01*
X114085714Y-101099952D01*
X114038095Y-101147571D01*
X113942857Y-101195190D01*
X113561904Y-101195190D01*
X114514285Y-100766619D02*
X114561904Y-100719000D01*
X114657142Y-100671380D01*
X114895238Y-100671380D01*
X114990476Y-100719000D01*
X115038095Y-100766619D01*
X115085714Y-100861857D01*
X115085714Y-100957095D01*
X115038095Y-101099952D01*
X114466666Y-101671380D01*
X115085714Y-101671380D01*
%TO.C,C3*%
X112990333Y-90908142D02*
X112942714Y-90955761D01*
X112799857Y-91003380D01*
X112704619Y-91003380D01*
X112561761Y-90955761D01*
X112466523Y-90860523D01*
X112418904Y-90765285D01*
X112371285Y-90574809D01*
X112371285Y-90431952D01*
X112418904Y-90241476D01*
X112466523Y-90146238D01*
X112561761Y-90051000D01*
X112704619Y-90003380D01*
X112799857Y-90003380D01*
X112942714Y-90051000D01*
X112990333Y-90098619D01*
X113323666Y-90003380D02*
X113942714Y-90003380D01*
X113609380Y-90384333D01*
X113752238Y-90384333D01*
X113847476Y-90431952D01*
X113895095Y-90479571D01*
X113942714Y-90574809D01*
X113942714Y-90812904D01*
X113895095Y-90908142D01*
X113847476Y-90955761D01*
X113752238Y-91003380D01*
X113466523Y-91003380D01*
X113371285Y-90955761D01*
X113323666Y-90908142D01*
%TO.C,J3*%
X122644000Y-112337904D02*
X122796380Y-112337904D01*
X122872571Y-112376000D01*
X122948761Y-112452190D01*
X122986857Y-112604571D01*
X122986857Y-112871238D01*
X122948761Y-113023619D01*
X122872571Y-113099809D01*
X122796380Y-113137904D01*
X122644000Y-113137904D01*
X122567809Y-113099809D01*
X122491619Y-113023619D01*
X122453523Y-112871238D01*
X122453523Y-112604571D01*
X122491619Y-112452190D01*
X122567809Y-112376000D01*
X122644000Y-112337904D01*
X123329714Y-112337904D02*
X123329714Y-112985523D01*
X123367809Y-113061714D01*
X123405904Y-113099809D01*
X123482095Y-113137904D01*
X123634476Y-113137904D01*
X123710666Y-113099809D01*
X123748761Y-113061714D01*
X123786857Y-112985523D01*
X123786857Y-112337904D01*
X124053523Y-112337904D02*
X124510666Y-112337904D01*
X124282095Y-113137904D02*
X124282095Y-112337904D01*
X117754476Y-112376000D02*
X117678285Y-112337904D01*
X117564000Y-112337904D01*
X117449714Y-112376000D01*
X117373523Y-112452190D01*
X117335428Y-112528380D01*
X117297333Y-112680761D01*
X117297333Y-112795047D01*
X117335428Y-112947428D01*
X117373523Y-113023619D01*
X117449714Y-113099809D01*
X117564000Y-113137904D01*
X117640190Y-113137904D01*
X117754476Y-113099809D01*
X117792571Y-113061714D01*
X117792571Y-112795047D01*
X117640190Y-112795047D01*
X118135428Y-113137904D02*
X118135428Y-112337904D01*
X118592571Y-113137904D01*
X118592571Y-112337904D01*
X118973523Y-113137904D02*
X118973523Y-112337904D01*
X119164000Y-112337904D01*
X119278285Y-112376000D01*
X119354476Y-112452190D01*
X119392571Y-112528380D01*
X119430666Y-112680761D01*
X119430666Y-112795047D01*
X119392571Y-112947428D01*
X119354476Y-113023619D01*
X119278285Y-113099809D01*
X119164000Y-113137904D01*
X118973523Y-113137904D01*
X115404952Y-113137904D02*
X115404952Y-112337904D01*
X115785904Y-113137904D02*
X115785904Y-112337904D01*
X116243047Y-113137904D01*
X116243047Y-112337904D01*
X120218285Y-113099809D02*
X120332571Y-113137904D01*
X120523047Y-113137904D01*
X120599238Y-113099809D01*
X120637333Y-113061714D01*
X120675428Y-112985523D01*
X120675428Y-112909333D01*
X120637333Y-112833142D01*
X120599238Y-112795047D01*
X120523047Y-112756952D01*
X120370666Y-112718857D01*
X120294476Y-112680761D01*
X120256380Y-112642666D01*
X120218285Y-112566476D01*
X120218285Y-112490285D01*
X120256380Y-112414095D01*
X120294476Y-112376000D01*
X120370666Y-112337904D01*
X120561142Y-112337904D01*
X120675428Y-112376000D01*
X120942095Y-112337904D02*
X121132571Y-113137904D01*
X121284952Y-112566476D01*
X121437333Y-113137904D01*
X121627809Y-112337904D01*
%TO.C,C1*%
X115363333Y-110847142D02*
X115315714Y-110894761D01*
X115172857Y-110942380D01*
X115077619Y-110942380D01*
X114934761Y-110894761D01*
X114839523Y-110799523D01*
X114791904Y-110704285D01*
X114744285Y-110513809D01*
X114744285Y-110370952D01*
X114791904Y-110180476D01*
X114839523Y-110085238D01*
X114934761Y-109990000D01*
X115077619Y-109942380D01*
X115172857Y-109942380D01*
X115315714Y-109990000D01*
X115363333Y-110037619D01*
X116315714Y-110942380D02*
X115744285Y-110942380D01*
X116030000Y-110942380D02*
X116030000Y-109942380D01*
X115934761Y-110085238D01*
X115839523Y-110180476D01*
X115744285Y-110228095D01*
%TO.C,R6*%
X114133333Y-98623380D02*
X113800000Y-98147190D01*
X113561904Y-98623380D02*
X113561904Y-97623380D01*
X113942857Y-97623380D01*
X114038095Y-97671000D01*
X114085714Y-97718619D01*
X114133333Y-97813857D01*
X114133333Y-97956714D01*
X114085714Y-98051952D01*
X114038095Y-98099571D01*
X113942857Y-98147190D01*
X113561904Y-98147190D01*
X114990476Y-97623380D02*
X114800000Y-97623380D01*
X114704761Y-97671000D01*
X114657142Y-97718619D01*
X114561904Y-97861476D01*
X114514285Y-98051952D01*
X114514285Y-98432904D01*
X114561904Y-98528142D01*
X114609523Y-98575761D01*
X114704761Y-98623380D01*
X114895238Y-98623380D01*
X114990476Y-98575761D01*
X115038095Y-98528142D01*
X115085714Y-98432904D01*
X115085714Y-98194809D01*
X115038095Y-98099571D01*
X114990476Y-98051952D01*
X114895238Y-98004333D01*
X114704761Y-98004333D01*
X114609523Y-98051952D01*
X114561904Y-98099571D01*
X114514285Y-98194809D01*
%TO.C,J1*%
X122301095Y-87318904D02*
X122567761Y-88118904D01*
X122834428Y-87318904D01*
X123101095Y-87814142D02*
X123710619Y-87814142D01*
X123405857Y-88118904D02*
X123405857Y-87509380D01*
X124866476Y-87357000D02*
X124790285Y-87318904D01*
X124676000Y-87318904D01*
X124561714Y-87357000D01*
X124485523Y-87433190D01*
X124447428Y-87509380D01*
X124409333Y-87661761D01*
X124409333Y-87776047D01*
X124447428Y-87928428D01*
X124485523Y-88004619D01*
X124561714Y-88080809D01*
X124676000Y-88118904D01*
X124752190Y-88118904D01*
X124866476Y-88080809D01*
X124904571Y-88042714D01*
X124904571Y-87776047D01*
X124752190Y-87776047D01*
X125247428Y-88118904D02*
X125247428Y-87318904D01*
X125704571Y-88118904D01*
X125704571Y-87318904D01*
X126085523Y-88118904D02*
X126085523Y-87318904D01*
X126276000Y-87318904D01*
X126390285Y-87357000D01*
X126466476Y-87433190D01*
X126504571Y-87509380D01*
X126542666Y-87661761D01*
X126542666Y-87776047D01*
X126504571Y-87928428D01*
X126466476Y-88004619D01*
X126390285Y-88080809D01*
X126276000Y-88118904D01*
X126085523Y-88118904D01*
%TO.C,U5*%
X118364095Y-88479380D02*
X118364095Y-89288904D01*
X118411714Y-89384142D01*
X118459333Y-89431761D01*
X118554571Y-89479380D01*
X118745047Y-89479380D01*
X118840285Y-89431761D01*
X118887904Y-89384142D01*
X118935523Y-89288904D01*
X118935523Y-88479380D01*
X119887904Y-88479380D02*
X119411714Y-88479380D01*
X119364095Y-88955571D01*
X119411714Y-88907952D01*
X119506952Y-88860333D01*
X119745047Y-88860333D01*
X119840285Y-88907952D01*
X119887904Y-88955571D01*
X119935523Y-89050809D01*
X119935523Y-89288904D01*
X119887904Y-89384142D01*
X119840285Y-89431761D01*
X119745047Y-89479380D01*
X119506952Y-89479380D01*
X119411714Y-89431761D01*
X119364095Y-89384142D01*
%TO.C,J2*%
X112420476Y-112376000D02*
X112344285Y-112337904D01*
X112230000Y-112337904D01*
X112115714Y-112376000D01*
X112039523Y-112452190D01*
X112001428Y-112528380D01*
X111963333Y-112680761D01*
X111963333Y-112795047D01*
X112001428Y-112947428D01*
X112039523Y-113023619D01*
X112115714Y-113099809D01*
X112230000Y-113137904D01*
X112306190Y-113137904D01*
X112420476Y-113099809D01*
X112458571Y-113061714D01*
X112458571Y-112795047D01*
X112306190Y-112795047D01*
X112801428Y-113137904D02*
X112801428Y-112337904D01*
X113258571Y-113137904D01*
X113258571Y-112337904D01*
X113639523Y-113137904D02*
X113639523Y-112337904D01*
X113830000Y-112337904D01*
X113944285Y-112376000D01*
X114020476Y-112452190D01*
X114058571Y-112528380D01*
X114096666Y-112680761D01*
X114096666Y-112795047D01*
X114058571Y-112947428D01*
X114020476Y-113023619D01*
X113944285Y-113099809D01*
X113830000Y-113137904D01*
X113639523Y-113137904D01*
X109728095Y-112337904D02*
X109994761Y-113137904D01*
X110261428Y-112337904D01*
X110528095Y-112833142D02*
X111137619Y-112833142D01*
X110832857Y-113137904D02*
X110832857Y-112528380D01*
%TO.C,R5*%
X114133333Y-95448380D02*
X113800000Y-94972190D01*
X113561904Y-95448380D02*
X113561904Y-94448380D01*
X113942857Y-94448380D01*
X114038095Y-94496000D01*
X114085714Y-94543619D01*
X114133333Y-94638857D01*
X114133333Y-94781714D01*
X114085714Y-94876952D01*
X114038095Y-94924571D01*
X113942857Y-94972190D01*
X113561904Y-94972190D01*
X115038095Y-94448380D02*
X114561904Y-94448380D01*
X114514285Y-94924571D01*
X114561904Y-94876952D01*
X114657142Y-94829333D01*
X114895238Y-94829333D01*
X114990476Y-94876952D01*
X115038095Y-94924571D01*
X115085714Y-95019809D01*
X115085714Y-95257904D01*
X115038095Y-95353142D01*
X114990476Y-95400761D01*
X114895238Y-95448380D01*
X114657142Y-95448380D01*
X114561904Y-95400761D01*
X114514285Y-95353142D01*
%TO.C,R1*%
X114133333Y-107767380D02*
X113800000Y-107291190D01*
X113561904Y-107767380D02*
X113561904Y-106767380D01*
X113942857Y-106767380D01*
X114038095Y-106815000D01*
X114085714Y-106862619D01*
X114133333Y-106957857D01*
X114133333Y-107100714D01*
X114085714Y-107195952D01*
X114038095Y-107243571D01*
X113942857Y-107291190D01*
X113561904Y-107291190D01*
X115085714Y-107767380D02*
X114514285Y-107767380D01*
X114800000Y-107767380D02*
X114800000Y-106767380D01*
X114704761Y-106910238D01*
X114609523Y-107005476D01*
X114514285Y-107053095D01*
%TO.C,C4*%
X125269333Y-91670142D02*
X125221714Y-91717761D01*
X125078857Y-91765380D01*
X124983619Y-91765380D01*
X124840761Y-91717761D01*
X124745523Y-91622523D01*
X124697904Y-91527285D01*
X124650285Y-91336809D01*
X124650285Y-91193952D01*
X124697904Y-91003476D01*
X124745523Y-90908238D01*
X124840761Y-90813000D01*
X124983619Y-90765380D01*
X125078857Y-90765380D01*
X125221714Y-90813000D01*
X125269333Y-90860619D01*
X126126476Y-91098714D02*
X126126476Y-91765380D01*
X125888380Y-90717761D02*
X125650285Y-91432047D01*
X126269333Y-91432047D01*
%TO.C,Q1*%
X123856761Y-109386619D02*
X123761523Y-109339000D01*
X123666285Y-109243761D01*
X123523428Y-109100904D01*
X123428190Y-109053285D01*
X123332952Y-109053285D01*
X123380571Y-109291380D02*
X123285333Y-109243761D01*
X123190095Y-109148523D01*
X123142476Y-108958047D01*
X123142476Y-108624714D01*
X123190095Y-108434238D01*
X123285333Y-108339000D01*
X123380571Y-108291380D01*
X123571047Y-108291380D01*
X123666285Y-108339000D01*
X123761523Y-108434238D01*
X123809142Y-108624714D01*
X123809142Y-108958047D01*
X123761523Y-109148523D01*
X123666285Y-109243761D01*
X123571047Y-109291380D01*
X123380571Y-109291380D01*
X124761523Y-109291380D02*
X124190095Y-109291380D01*
X124475809Y-109291380D02*
X124475809Y-108291380D01*
X124380571Y-108434238D01*
X124285333Y-108529476D01*
X124190095Y-108577095D01*
%TO.C,R3*%
X114133333Y-104719380D02*
X113800000Y-104243190D01*
X113561904Y-104719380D02*
X113561904Y-103719380D01*
X113942857Y-103719380D01*
X114038095Y-103767000D01*
X114085714Y-103814619D01*
X114133333Y-103909857D01*
X114133333Y-104052714D01*
X114085714Y-104147952D01*
X114038095Y-104195571D01*
X113942857Y-104243190D01*
X113561904Y-104243190D01*
X114466666Y-103719380D02*
X115085714Y-103719380D01*
X114752380Y-104100333D01*
X114895238Y-104100333D01*
X114990476Y-104147952D01*
X115038095Y-104195571D01*
X115085714Y-104290809D01*
X115085714Y-104528904D01*
X115038095Y-104624142D01*
X114990476Y-104671761D01*
X114895238Y-104719380D01*
X114609523Y-104719380D01*
X114514285Y-104671761D01*
X114466666Y-104624142D01*
D11*
%TO.C,C2*%
X126823000Y-99648000D02*
X119383000Y-99648000D01*
X119383000Y-99648000D02*
X119383000Y-94408000D01*
X126823000Y-99648000D02*
X126823000Y-94408000D01*
X126823000Y-94408000D02*
X119383000Y-94408000D01*
%TO.C,R7*%
X127154000Y-97949000D02*
X127484000Y-97949000D01*
X129564000Y-104489000D02*
X129894000Y-104489000D01*
X129894000Y-104489000D02*
X129894000Y-97949000D01*
X127154000Y-104489000D02*
X127154000Y-97949000D01*
X127484000Y-104489000D02*
X127154000Y-104489000D01*
X129894000Y-97949000D02*
X129564000Y-97949000D01*
%TO.C,C5*%
X120906000Y-100550000D02*
X124458000Y-100550000D01*
X120968000Y-100510000D02*
X124396000Y-100510000D01*
X119649000Y-102150000D02*
X121642000Y-102150000D01*
X120848000Y-100590000D02*
X124516000Y-100590000D01*
X120377000Y-100990000D02*
X121642000Y-100990000D01*
X123722000Y-101430000D02*
X125346000Y-101430000D01*
X119471000Y-102911000D02*
X121642000Y-102911000D01*
X119476000Y-102871000D02*
X121642000Y-102871000D01*
X121250000Y-100350000D02*
X124114000Y-100350000D01*
X119493000Y-102751000D02*
X121642000Y-102751000D01*
X123722000Y-101310000D02*
X125260000Y-101310000D01*
X119454000Y-103151000D02*
X125910000Y-103151000D01*
X119455000Y-103111000D02*
X125909000Y-103111000D01*
X121101000Y-100430000D02*
X124263000Y-100430000D01*
X121880000Y-100110000D02*
X123484000Y-100110000D01*
X119608000Y-102270000D02*
X121642000Y-102270000D01*
X123722000Y-101270000D02*
X125230000Y-101270000D01*
X123722000Y-101350000D02*
X125289000Y-101350000D01*
X120018000Y-101430000D02*
X121642000Y-101430000D01*
X120046000Y-101390000D02*
X121642000Y-101390000D01*
X123722000Y-102230000D02*
X125743000Y-102230000D01*
X123722000Y-102110000D02*
X125700000Y-102110000D01*
X119940000Y-101550000D02*
X121642000Y-101550000D01*
X123722000Y-101190000D02*
X125166000Y-101190000D01*
X123722000Y-101910000D02*
X125616000Y-101910000D01*
X119452000Y-103271000D02*
X125912000Y-103271000D01*
X119460000Y-103031000D02*
X121642000Y-103031000D01*
X119464000Y-102991000D02*
X121642000Y-102991000D01*
X121173000Y-100390000D02*
X124191000Y-100390000D01*
X119848000Y-101710000D02*
X121642000Y-101710000D01*
X123722000Y-102711000D02*
X125864000Y-102711000D01*
X119532000Y-102550000D02*
X121642000Y-102550000D01*
X119523000Y-102591000D02*
X121642000Y-102591000D01*
X120687000Y-100710000D02*
X124677000Y-100710000D01*
X123722000Y-102150000D02*
X125715000Y-102150000D01*
X123722000Y-101390000D02*
X125318000Y-101390000D01*
X123722000Y-101590000D02*
X125448000Y-101590000D01*
X123722000Y-102631000D02*
X125849000Y-102631000D01*
X122682000Y-106238000D02*
X122682000Y-105608000D01*
X123722000Y-102510000D02*
X125823000Y-102510000D01*
X119584000Y-102350000D02*
X121642000Y-102350000D01*
X119730000Y-101950000D02*
X121642000Y-101950000D01*
X119748000Y-101910000D02*
X121642000Y-101910000D01*
X119806000Y-101790000D02*
X121642000Y-101790000D01*
X120266000Y-101110000D02*
X121642000Y-101110000D01*
X119664000Y-102110000D02*
X121642000Y-102110000D01*
X120339000Y-101030000D02*
X121642000Y-101030000D01*
X120104000Y-101310000D02*
X121642000Y-101310000D01*
X123722000Y-102310000D02*
X125768000Y-102310000D01*
X120302000Y-101070000D02*
X121642000Y-101070000D01*
X119712000Y-101990000D02*
X121642000Y-101990000D01*
X123722000Y-102751000D02*
X125871000Y-102751000D01*
X123722000Y-101830000D02*
X125578000Y-101830000D01*
X121623000Y-100190000D02*
X123741000Y-100190000D01*
X123722000Y-102991000D02*
X125900000Y-102991000D01*
X120545000Y-100830000D02*
X124819000Y-100830000D01*
X123722000Y-102190000D02*
X125729000Y-102190000D01*
X123722000Y-101030000D02*
X125025000Y-101030000D01*
X123722000Y-101510000D02*
X125398000Y-101510000D01*
X123722000Y-102591000D02*
X125841000Y-102591000D01*
X119551000Y-102470000D02*
X121642000Y-102470000D01*
X123722000Y-101110000D02*
X125098000Y-101110000D01*
X123722000Y-102831000D02*
X125883000Y-102831000D01*
X122049000Y-100070000D02*
X123315000Y-100070000D01*
X119481000Y-102831000D02*
X121642000Y-102831000D01*
X123722000Y-102430000D02*
X125803000Y-102430000D01*
X119458000Y-103071000D02*
X125906000Y-103071000D01*
X121332000Y-100310000D02*
X124032000Y-100310000D01*
X119826000Y-101750000D02*
X121642000Y-101750000D01*
X119507000Y-102671000D02*
X121642000Y-102671000D01*
X121032000Y-100470000D02*
X124332000Y-100470000D01*
X123722000Y-101750000D02*
X125538000Y-101750000D01*
X123722000Y-101550000D02*
X125424000Y-101550000D01*
X123722000Y-102350000D02*
X125780000Y-102350000D01*
X121517000Y-100230000D02*
X123847000Y-100230000D01*
X123722000Y-101670000D02*
X125494000Y-101670000D01*
X119500000Y-102711000D02*
X121642000Y-102711000D01*
X120500000Y-100870000D02*
X124864000Y-100870000D01*
X119487000Y-102791000D02*
X121642000Y-102791000D01*
X123722000Y-102791000D02*
X125877000Y-102791000D01*
X119786000Y-101830000D02*
X121642000Y-101830000D01*
X123722000Y-101950000D02*
X125634000Y-101950000D01*
X123722000Y-101470000D02*
X125372000Y-101470000D01*
X123722000Y-102871000D02*
X125888000Y-102871000D01*
X123722000Y-102390000D02*
X125792000Y-102390000D01*
X122367000Y-105923000D02*
X122997000Y-105923000D01*
X120075000Y-101350000D02*
X121642000Y-101350000D01*
X119452000Y-103191000D02*
X125912000Y-103191000D01*
X123722000Y-101070000D02*
X125062000Y-101070000D01*
X121742000Y-100150000D02*
X123622000Y-100150000D01*
X120232000Y-101150000D02*
X121642000Y-101150000D01*
X123722000Y-102470000D02*
X125813000Y-102470000D01*
X120590000Y-100790000D02*
X124774000Y-100790000D01*
X123722000Y-101990000D02*
X125652000Y-101990000D01*
X123722000Y-101710000D02*
X125516000Y-101710000D01*
X123722000Y-102070000D02*
X125684000Y-102070000D01*
X119596000Y-102310000D02*
X121642000Y-102310000D01*
X120738000Y-100670000D02*
X124626000Y-100670000D01*
X123722000Y-102951000D02*
X125897000Y-102951000D01*
X119892000Y-101630000D02*
X121642000Y-101630000D01*
X123722000Y-101230000D02*
X125198000Y-101230000D01*
X123722000Y-102550000D02*
X125832000Y-102550000D01*
X119635000Y-102190000D02*
X121642000Y-102190000D01*
X119621000Y-102230000D02*
X121642000Y-102230000D01*
X123722000Y-101870000D02*
X125598000Y-101870000D01*
X122280000Y-100030000D02*
X123084000Y-100030000D01*
X123722000Y-101150000D02*
X125132000Y-101150000D01*
X123722000Y-102671000D02*
X125857000Y-102671000D01*
X119680000Y-102070000D02*
X121642000Y-102070000D01*
X123722000Y-102270000D02*
X125756000Y-102270000D01*
X119467000Y-102951000D02*
X121642000Y-102951000D01*
X120198000Y-101190000D02*
X121642000Y-101190000D01*
X123722000Y-100990000D02*
X124987000Y-100990000D01*
X119541000Y-102510000D02*
X121642000Y-102510000D01*
X123722000Y-102911000D02*
X125893000Y-102911000D01*
X119561000Y-102430000D02*
X121642000Y-102430000D01*
X123722000Y-102030000D02*
X125668000Y-102030000D01*
X119766000Y-101870000D02*
X121642000Y-101870000D01*
X119870000Y-101670000D02*
X121642000Y-101670000D01*
X119992000Y-101470000D02*
X121642000Y-101470000D01*
X120166000Y-101230000D02*
X121642000Y-101230000D01*
X120458000Y-100910000D02*
X124906000Y-100910000D01*
X121420000Y-100270000D02*
X123944000Y-100270000D01*
X119916000Y-101590000D02*
X121642000Y-101590000D01*
X123722000Y-101790000D02*
X125558000Y-101790000D01*
X120134000Y-101270000D02*
X121642000Y-101270000D01*
X120638000Y-100750000D02*
X124726000Y-100750000D01*
X119515000Y-102631000D02*
X121642000Y-102631000D01*
X119572000Y-102390000D02*
X121642000Y-102390000D01*
X120417000Y-100950000D02*
X124947000Y-100950000D01*
X119966000Y-101510000D02*
X121642000Y-101510000D01*
X123722000Y-101630000D02*
X125472000Y-101630000D01*
X123722000Y-103031000D02*
X125904000Y-103031000D01*
X119696000Y-102030000D02*
X121642000Y-102030000D01*
X120792000Y-100630000D02*
X124572000Y-100630000D01*
X119452000Y-103231000D02*
X125912000Y-103231000D01*
X125952000Y-103271000D02*
G75*
G03*
X125952000Y-103271000I-3270000J0D01*
G01*
%TO.C,R4*%
X127405000Y-107728000D02*
X127735000Y-107728000D01*
X125325000Y-107728000D02*
X124995000Y-107728000D01*
X127735000Y-114268000D02*
X127405000Y-114268000D01*
X124995000Y-114268000D02*
X125325000Y-114268000D01*
X127735000Y-107728000D02*
X127735000Y-114268000D01*
X124995000Y-107728000D02*
X124995000Y-114268000D01*
%TO.C,D1*%
X113489000Y-84636000D02*
X113489000Y-87576000D01*
X118929000Y-86106000D02*
X117909000Y-86106000D01*
X117909000Y-87576000D02*
X117909000Y-84636000D01*
X111449000Y-86106000D02*
X112469000Y-86106000D01*
X113249000Y-84636000D02*
X113249000Y-87576000D01*
X112469000Y-84636000D02*
X112469000Y-87576000D01*
X112469000Y-87576000D02*
X117909000Y-87576000D01*
X113369000Y-84636000D02*
X113369000Y-87576000D01*
X117909000Y-84636000D02*
X112469000Y-84636000D01*
%TO.C,R2*%
X117570000Y-102259000D02*
X117570000Y-102589000D01*
X117570000Y-102589000D02*
X111030000Y-102589000D01*
X117570000Y-100179000D02*
X117570000Y-99849000D01*
X117570000Y-99849000D02*
X111030000Y-99849000D01*
X111030000Y-102589000D02*
X111030000Y-102259000D01*
X111030000Y-99849000D02*
X111030000Y-100179000D01*
%TO.C,C3*%
X109604000Y-93171000D02*
X109604000Y-87931000D01*
X117044000Y-93171000D02*
X109604000Y-93171000D01*
X117044000Y-87931000D02*
X109604000Y-87931000D01*
X117044000Y-93171000D02*
X117044000Y-87931000D01*
D12*
%TO.C,J3*%
X114554000Y-115951000D02*
X114554000Y-113411000D01*
X124714000Y-115951000D02*
X114554000Y-115951000D01*
X124714000Y-115951000D02*
X124714000Y-113411000D01*
X124714000Y-113411000D02*
X124714000Y-112141000D01*
X114554000Y-113411000D02*
X124714000Y-113411000D01*
X124714000Y-112141000D02*
X114554000Y-112141000D01*
X114554000Y-113411000D02*
X114554000Y-112141000D01*
D11*
%TO.C,C1*%
X111810000Y-109120000D02*
X111810000Y-111860000D01*
X111810000Y-109120000D02*
X119250000Y-109120000D01*
X119250000Y-109120000D02*
X119250000Y-111860000D01*
X111810000Y-111860000D02*
X119250000Y-111860000D01*
%TO.C,R6*%
X111030000Y-99211000D02*
X111030000Y-99541000D01*
X117570000Y-96801000D02*
X117570000Y-97131000D01*
X117570000Y-99541000D02*
X117570000Y-99211000D01*
X111030000Y-97131000D02*
X111030000Y-96801000D01*
X111030000Y-96801000D02*
X117570000Y-96801000D01*
X111030000Y-99541000D02*
X117570000Y-99541000D01*
D12*
%TO.C,J1*%
X121793000Y-88392000D02*
X121793000Y-87122000D01*
X121793000Y-87122000D02*
X121793000Y-84582000D01*
X126873000Y-87122000D02*
X126873000Y-84582000D01*
X126873000Y-88392000D02*
X121793000Y-88392000D01*
X126873000Y-88392000D02*
X126873000Y-87122000D01*
X121793000Y-84582000D02*
X126873000Y-84582000D01*
X126873000Y-87122000D02*
X121793000Y-87122000D01*
D11*
%TO.C,U5*%
X118226000Y-93050000D02*
X120676000Y-93050000D01*
X120026000Y-89830000D02*
X118226000Y-89830000D01*
D12*
%TO.C,J2*%
X114300000Y-115951000D02*
X109220000Y-115951000D01*
X109220000Y-115951000D02*
X109220000Y-113411000D01*
X109220000Y-113411000D02*
X109220000Y-112141000D01*
X114300000Y-112141000D02*
X109220000Y-112141000D01*
X114300000Y-115951000D02*
X114300000Y-113411000D01*
X109220000Y-113411000D02*
X114300000Y-113411000D01*
X114300000Y-113411000D02*
X114300000Y-112141000D01*
D11*
%TO.C,R5*%
X111030000Y-96366000D02*
X117570000Y-96366000D01*
X111030000Y-93626000D02*
X117570000Y-93626000D01*
X111030000Y-93956000D02*
X111030000Y-93626000D01*
X111030000Y-96036000D02*
X111030000Y-96366000D01*
X117570000Y-96366000D02*
X117570000Y-96036000D01*
X117570000Y-93626000D02*
X117570000Y-93956000D01*
%TO.C,R1*%
X111030000Y-106275000D02*
X111030000Y-105945000D01*
X117570000Y-108685000D02*
X117570000Y-108355000D01*
X117570000Y-105945000D02*
X117570000Y-106275000D01*
X111030000Y-105945000D02*
X117570000Y-105945000D01*
X111030000Y-108685000D02*
X117570000Y-108685000D01*
X111030000Y-108355000D02*
X111030000Y-108685000D01*
%TO.C,C4*%
X121716000Y-88693000D02*
X129156000Y-88693000D01*
X129156000Y-88693000D02*
X129156000Y-93933000D01*
X121716000Y-88693000D02*
X121716000Y-93933000D01*
X121716000Y-93933000D02*
X129156000Y-93933000D01*
%TO.C,Q1*%
X122865000Y-107698000D02*
X122865000Y-109158000D01*
X122865000Y-107698000D02*
X121935000Y-107698000D01*
X119705000Y-107698000D02*
X119705000Y-109858000D01*
X119705000Y-107698000D02*
X120635000Y-107698000D01*
%TO.C,R3*%
X117570000Y-102897000D02*
X117570000Y-103227000D01*
X111030000Y-102897000D02*
X117570000Y-102897000D01*
X117570000Y-105637000D02*
X117570000Y-105307000D01*
X111030000Y-103227000D02*
X111030000Y-102897000D01*
X111030000Y-105307000D02*
X111030000Y-105637000D01*
X111030000Y-105637000D02*
X117570000Y-105637000D01*
%TD*%
%LPC*%
D13*
%TO.C,C2*%
X125603000Y-97028000D03*
X120603000Y-97028000D03*
%TD*%
%TO.C,R7*%
X128524000Y-105029000D03*
D14*
X128524000Y-97409000D03*
%TD*%
D15*
%TO.C,C5*%
X122682000Y-104521000D03*
D13*
X122682000Y-102021000D03*
%TD*%
%TO.C,R4*%
X126365000Y-107188000D03*
D14*
X126365000Y-114808000D03*
%TD*%
D16*
%TO.C,D1*%
X110109000Y-86106000D03*
D17*
X120269000Y-86106000D03*
%TD*%
D13*
%TO.C,R2*%
X118110000Y-101219000D03*
D14*
X110490000Y-101219000D03*
%TD*%
D13*
%TO.C,C3*%
X115824000Y-90551000D03*
X110824000Y-90551000D03*
%TD*%
D18*
%TO.C,J3*%
X115824000Y-114681000D03*
D19*
X118364000Y-114681000D03*
X120904000Y-114681000D03*
X123444000Y-114681000D03*
%TD*%
D13*
%TO.C,C1*%
X113030000Y-110490000D03*
X118030000Y-110490000D03*
%TD*%
%TO.C,R6*%
X110490000Y-98171000D03*
D14*
X118110000Y-98171000D03*
%TD*%
D18*
%TO.C,J1*%
X123063000Y-85852000D03*
D19*
X125603000Y-85852000D03*
%TD*%
D20*
%TO.C,U5*%
X120226000Y-92390000D03*
X120226000Y-91440000D03*
X120226000Y-90490000D03*
X118026000Y-90490000D03*
X118026000Y-92390000D03*
%TD*%
D18*
%TO.C,J2*%
X110490000Y-114681000D03*
D19*
X113030000Y-114681000D03*
%TD*%
D13*
%TO.C,R5*%
X110490000Y-94996000D03*
D14*
X118110000Y-94996000D03*
%TD*%
D13*
%TO.C,R1*%
X110490000Y-107315000D03*
D14*
X118110000Y-107315000D03*
%TD*%
D13*
%TO.C,C4*%
X122936000Y-91313000D03*
X127936000Y-91313000D03*
%TD*%
D21*
%TO.C,Q1*%
X120335000Y-109458000D03*
X122235000Y-109458000D03*
X121285000Y-107458000D03*
%TD*%
D13*
%TO.C,R3*%
X110490000Y-104267000D03*
D14*
X118110000Y-104267000D03*
%TD*%
M02*
