%TF.GenerationSoftware,KiCad,Pcbnew,6.0.0+dfsg1-2*%
%TF.CreationDate,2022-01-11T21:19:39+02:00*%
%TF.ProjectId,campanero-lima,63616d70-616e-4657-926f-2d6c696d612e,rev?*%
%TF.SameCoordinates,Original*%
%TF.FileFunction,Soldermask,Top*%
%TF.FilePolarity,Negative*%
%FSLAX46Y46*%
G04 Gerber Fmt 4.6, Leading zero omitted, Abs format (unit mm)*
G04 Created by KiCad (PCBNEW 6.0.0+dfsg1-2) date 2022-01-11 21:19:39*
%MOMM*%
%LPD*%
G01*
G04 APERTURE LIST*
%ADD10C,1.600000*%
%ADD11O,1.600000X1.600000*%
%ADD12R,1.600000X1.600000*%
%ADD13R,2.200000X2.200000*%
%ADD14O,2.200000X2.200000*%
%ADD15R,1.930400X1.930400*%
%ADD16O,1.930400X1.930400*%
%ADD17R,1.060000X0.650000*%
%ADD18R,0.800000X0.900000*%
G04 APERTURE END LIST*
D10*
%TO.C,C2*%
X125603000Y-97028000D03*
X120603000Y-97028000D03*
%TD*%
%TO.C,R7*%
X128524000Y-105029000D03*
D11*
X128524000Y-97409000D03*
%TD*%
D12*
%TO.C,C5*%
X122682000Y-104521000D03*
D10*
X122682000Y-102021000D03*
%TD*%
%TO.C,R4*%
X126365000Y-107188000D03*
D11*
X126365000Y-114808000D03*
%TD*%
D13*
%TO.C,D1*%
X110109000Y-86106000D03*
D14*
X120269000Y-86106000D03*
%TD*%
D10*
%TO.C,R2*%
X118110000Y-101219000D03*
D11*
X110490000Y-101219000D03*
%TD*%
D10*
%TO.C,C3*%
X115824000Y-90551000D03*
X110824000Y-90551000D03*
%TD*%
D15*
%TO.C,J3*%
X115824000Y-114681000D03*
D16*
X118364000Y-114681000D03*
X120904000Y-114681000D03*
X123444000Y-114681000D03*
%TD*%
D10*
%TO.C,C1*%
X113030000Y-110490000D03*
X118030000Y-110490000D03*
%TD*%
%TO.C,R6*%
X110490000Y-98171000D03*
D11*
X118110000Y-98171000D03*
%TD*%
D15*
%TO.C,J1*%
X123063000Y-85852000D03*
D16*
X125603000Y-85852000D03*
%TD*%
D17*
%TO.C,U5*%
X120226000Y-92390000D03*
X120226000Y-91440000D03*
X120226000Y-90490000D03*
X118026000Y-90490000D03*
X118026000Y-92390000D03*
%TD*%
D15*
%TO.C,J2*%
X110490000Y-114681000D03*
D16*
X113030000Y-114681000D03*
%TD*%
D10*
%TO.C,R5*%
X110490000Y-94996000D03*
D11*
X118110000Y-94996000D03*
%TD*%
D10*
%TO.C,R1*%
X110490000Y-107315000D03*
D11*
X118110000Y-107315000D03*
%TD*%
D10*
%TO.C,C4*%
X122936000Y-91313000D03*
X127936000Y-91313000D03*
%TD*%
D18*
%TO.C,Q1*%
X120335000Y-109458000D03*
X122235000Y-109458000D03*
X121285000Y-107458000D03*
%TD*%
D10*
%TO.C,R3*%
X110490000Y-104267000D03*
D11*
X118110000Y-104267000D03*
%TD*%
M02*
