%TF.GenerationSoftware,KiCad,Pcbnew,6.0.0+dfsg1-2*%
%TF.CreationDate,2022-01-11T21:19:37+02:00*%
%TF.ProjectId,campanero-lima,63616d70-616e-4657-926f-2d6c696d612e,rev?*%
%TF.SameCoordinates,Original*%
%TF.FileFunction,Copper,L2,Bot*%
%TF.FilePolarity,Positive*%
%FSLAX46Y46*%
G04 Gerber Fmt 4.6, Leading zero omitted, Abs format (unit mm)*
G04 Created by KiCad (PCBNEW 6.0.0+dfsg1-2) date 2022-01-11 21:19:37*
%MOMM*%
%LPD*%
G01*
G04 APERTURE LIST*
%TA.AperFunction,ComponentPad*%
%ADD10C,1.600000*%
%TD*%
%TA.AperFunction,ComponentPad*%
%ADD11O,1.600000X1.600000*%
%TD*%
%TA.AperFunction,ComponentPad*%
%ADD12R,1.600000X1.600000*%
%TD*%
%TA.AperFunction,ComponentPad*%
%ADD13R,2.200000X2.200000*%
%TD*%
%TA.AperFunction,ComponentPad*%
%ADD14O,2.200000X2.200000*%
%TD*%
%TA.AperFunction,ComponentPad*%
%ADD15R,1.930400X1.930400*%
%TD*%
%TA.AperFunction,ComponentPad*%
%ADD16O,1.930400X1.930400*%
%TD*%
%TA.AperFunction,Conductor*%
%ADD17C,0.381000*%
%TD*%
G04 APERTURE END LIST*
D10*
%TO.P,C2,1*%
%TO.N,Net-(R4-Pad1)*%
X125603000Y-97028000D03*
%TO.P,C2,2*%
%TO.N,Net-(R5-Pad2)*%
X120603000Y-97028000D03*
%TD*%
%TO.P,R7,1*%
%TO.N,OUT*%
X128524000Y-105029000D03*
D11*
%TO.P,R7,2*%
%TO.N,GND*%
X128524000Y-97409000D03*
%TD*%
D12*
%TO.P,C5,1*%
%TO.N,VCC*%
X122682000Y-104521000D03*
D10*
%TO.P,C5,2*%
%TO.N,GND*%
X122682000Y-102021000D03*
%TD*%
%TO.P,R4,1*%
%TO.N,Net-(R4-Pad1)*%
X126365000Y-107188000D03*
D11*
%TO.P,R4,2*%
%TO.N,GND*%
X126365000Y-114808000D03*
%TD*%
D13*
%TO.P,D1,1,K*%
%TO.N,VCC*%
X110109000Y-86106000D03*
D14*
%TO.P,D1,2,A*%
%TO.N,+9V*%
X120269000Y-86106000D03*
%TD*%
D10*
%TO.P,R2,1*%
%TO.N,VCC*%
X118110000Y-101219000D03*
D11*
%TO.P,R2,2*%
%TO.N,Net-(R2-Pad2)*%
X110490000Y-101219000D03*
%TD*%
D10*
%TO.P,C3,1*%
%TO.N,Net-(R6-Pad2)*%
X115824000Y-90551000D03*
%TO.P,C3,2*%
%TO.N,GND*%
X110824000Y-90551000D03*
%TD*%
D15*
%TO.P,J3,1,Pin_1*%
%TO.N,IN*%
X115824000Y-114681000D03*
D16*
%TO.P,J3,2,Pin_2*%
%TO.N,GND*%
X118364000Y-114681000D03*
%TO.P,J3,3,Pin_3*%
%TO.N,Net-(J3-Pad3)*%
X120904000Y-114681000D03*
%TO.P,J3,4,Pin_4*%
%TO.N,OUT*%
X123444000Y-114681000D03*
%TD*%
D10*
%TO.P,C1,1*%
%TO.N,IN*%
X113030000Y-110490000D03*
%TO.P,C1,2*%
%TO.N,Net-(C1-Pad2)*%
X118030000Y-110490000D03*
%TD*%
%TO.P,R6,1*%
%TO.N,VCC*%
X110490000Y-98171000D03*
D11*
%TO.P,R6,2*%
%TO.N,Net-(R6-Pad2)*%
X118110000Y-98171000D03*
%TD*%
D15*
%TO.P,J1,1,Pin_1*%
%TO.N,+9V*%
X123063000Y-85852000D03*
D16*
%TO.P,J1,2,Pin_2*%
%TO.N,GND*%
X125603000Y-85852000D03*
%TD*%
D15*
%TO.P,J2,1,Pin_1*%
%TO.N,+9V*%
X110490000Y-114681000D03*
D16*
%TO.P,J2,2,Pin_2*%
%TO.N,GND*%
X113030000Y-114681000D03*
%TD*%
D10*
%TO.P,R5,1*%
%TO.N,VCC*%
X110490000Y-94996000D03*
D11*
%TO.P,R5,2*%
%TO.N,Net-(R5-Pad2)*%
X118110000Y-94996000D03*
%TD*%
D10*
%TO.P,R1,1*%
%TO.N,IN*%
X110490000Y-107315000D03*
D11*
%TO.P,R1,2*%
%TO.N,GND*%
X118110000Y-107315000D03*
%TD*%
D10*
%TO.P,C4,1*%
%TO.N,Net-(C4-Pad1)*%
X122936000Y-91313000D03*
%TO.P,C4,2*%
%TO.N,OUT*%
X127936000Y-91313000D03*
%TD*%
%TO.P,R3,1*%
%TO.N,Net-(R2-Pad2)*%
X110490000Y-104267000D03*
D11*
%TO.P,R3,2*%
%TO.N,GND*%
X118110000Y-104267000D03*
%TD*%
D17*
%TO.N,Net-(R5-Pad2)*%
X120603000Y-97790000D02*
X118110000Y-95297000D01*
X118110000Y-95297000D02*
X118110000Y-94996000D01*
%TO.N,VCC*%
X112014501Y-88392501D02*
X112014501Y-93471499D01*
X112014501Y-93471499D02*
X110490000Y-94996000D01*
X110490000Y-86868000D02*
X112014501Y-88392501D01*
%TD*%
%TA.AperFunction,Conductor*%
%TO.N,GND*%
G36*
X118926386Y-84983002D02*
G01*
X118972879Y-85036658D01*
X118982983Y-85106932D01*
X118962662Y-85157005D01*
X118963672Y-85157624D01*
X118831384Y-85373498D01*
X118734495Y-85607409D01*
X118675391Y-85853597D01*
X118655526Y-86106000D01*
X118675391Y-86358403D01*
X118676545Y-86363210D01*
X118676546Y-86363216D01*
X118714179Y-86519968D01*
X118734495Y-86604591D01*
X118736388Y-86609162D01*
X118736389Y-86609164D01*
X118817873Y-86805883D01*
X118831384Y-86838502D01*
X118963672Y-87054376D01*
X119128102Y-87246898D01*
X119320624Y-87411328D01*
X119536498Y-87543616D01*
X119541068Y-87545509D01*
X119541072Y-87545511D01*
X119765836Y-87638611D01*
X119770409Y-87640505D01*
X119855032Y-87660821D01*
X120011784Y-87698454D01*
X120011790Y-87698455D01*
X120016597Y-87699609D01*
X120269000Y-87719474D01*
X120521403Y-87699609D01*
X120526210Y-87698455D01*
X120526216Y-87698454D01*
X120682968Y-87660821D01*
X120767591Y-87640505D01*
X120772164Y-87638611D01*
X120996928Y-87545511D01*
X120996932Y-87545509D01*
X121001502Y-87543616D01*
X121217376Y-87411328D01*
X121409898Y-87246898D01*
X121507097Y-87133093D01*
X121566548Y-87094284D01*
X121637542Y-87093778D01*
X121697541Y-87131734D01*
X121703733Y-87139358D01*
X121729156Y-87173279D01*
X121734539Y-87180461D01*
X121851095Y-87267815D01*
X121987484Y-87318945D01*
X122049666Y-87325700D01*
X124076334Y-87325700D01*
X124138516Y-87318945D01*
X124274905Y-87267815D01*
X124391461Y-87180461D01*
X124478815Y-87063905D01*
X124481966Y-87055498D01*
X124481970Y-87055492D01*
X124482504Y-87054067D01*
X124483411Y-87052860D01*
X124486277Y-87047625D01*
X124487033Y-87048039D01*
X124525147Y-86997304D01*
X124591710Y-86972607D01*
X124661058Y-86987817D01*
X124680969Y-87001357D01*
X124751131Y-87059606D01*
X124759578Y-87065521D01*
X124959809Y-87182526D01*
X124969096Y-87186976D01*
X125185751Y-87269708D01*
X125195653Y-87272585D01*
X125331248Y-87300172D01*
X125345300Y-87298977D01*
X125349000Y-87288632D01*
X125349000Y-87286665D01*
X125857000Y-87286665D01*
X125861064Y-87300507D01*
X125874478Y-87302541D01*
X125905216Y-87298603D01*
X125915297Y-87296460D01*
X126137426Y-87229818D01*
X126147024Y-87226056D01*
X126355289Y-87124029D01*
X126364134Y-87118756D01*
X126552935Y-86984086D01*
X126560810Y-86977430D01*
X126725083Y-86813730D01*
X126731761Y-86805883D01*
X126867089Y-86617556D01*
X126872398Y-86608719D01*
X126975147Y-86400821D01*
X126978946Y-86391226D01*
X127046360Y-86169343D01*
X127048539Y-86159262D01*
X127053186Y-86123961D01*
X127050975Y-86109779D01*
X127037817Y-86106000D01*
X125875115Y-86106000D01*
X125859876Y-86110475D01*
X125858671Y-86111865D01*
X125857000Y-86119548D01*
X125857000Y-87286665D01*
X125349000Y-87286665D01*
X125349000Y-85724000D01*
X125369002Y-85655879D01*
X125422658Y-85609386D01*
X125475000Y-85598000D01*
X127040128Y-85598000D01*
X127053659Y-85594027D01*
X127054964Y-85584947D01*
X127003642Y-85380622D01*
X127000324Y-85370874D01*
X126907846Y-85158191D01*
X126902674Y-85148545D01*
X126888109Y-85079059D01*
X126913423Y-85012729D01*
X126970580Y-84970614D01*
X127013716Y-84963000D01*
X129541000Y-84963000D01*
X129609121Y-84983002D01*
X129655614Y-85036658D01*
X129667000Y-85089000D01*
X129667000Y-96398019D01*
X129646998Y-96466140D01*
X129593342Y-96512633D01*
X129523068Y-96522737D01*
X129458488Y-96493243D01*
X129451905Y-96487114D01*
X129371875Y-96407084D01*
X129363467Y-96400028D01*
X129185007Y-96275069D01*
X129175511Y-96269586D01*
X128978053Y-96177510D01*
X128967761Y-96173764D01*
X128795497Y-96127606D01*
X128781401Y-96127942D01*
X128778000Y-96135884D01*
X128778000Y-98676967D01*
X128781973Y-98690498D01*
X128790522Y-98691727D01*
X128967761Y-98644236D01*
X128978053Y-98640490D01*
X129175511Y-98548414D01*
X129185007Y-98542931D01*
X129363467Y-98417972D01*
X129371875Y-98410916D01*
X129451905Y-98330886D01*
X129514217Y-98296860D01*
X129585032Y-98301925D01*
X129641868Y-98344472D01*
X129666679Y-98410992D01*
X129667000Y-98419981D01*
X129667000Y-104017312D01*
X129646998Y-104085433D01*
X129593342Y-104131926D01*
X129523068Y-104142030D01*
X129458488Y-104112536D01*
X129451905Y-104106407D01*
X129368300Y-104022802D01*
X129363792Y-104019645D01*
X129363789Y-104019643D01*
X129285611Y-103964902D01*
X129180749Y-103891477D01*
X129175767Y-103889154D01*
X129175762Y-103889151D01*
X128978225Y-103797039D01*
X128978224Y-103797039D01*
X128973243Y-103794716D01*
X128967935Y-103793294D01*
X128967933Y-103793293D01*
X128757402Y-103736881D01*
X128757400Y-103736881D01*
X128752087Y-103735457D01*
X128524000Y-103715502D01*
X128295913Y-103735457D01*
X128290600Y-103736881D01*
X128290598Y-103736881D01*
X128080067Y-103793293D01*
X128080065Y-103793294D01*
X128074757Y-103794716D01*
X128069776Y-103797039D01*
X128069775Y-103797039D01*
X127872238Y-103889151D01*
X127872233Y-103889154D01*
X127867251Y-103891477D01*
X127762389Y-103964902D01*
X127684211Y-104019643D01*
X127684208Y-104019645D01*
X127679700Y-104022802D01*
X127517802Y-104184700D01*
X127386477Y-104372251D01*
X127384154Y-104377233D01*
X127384151Y-104377238D01*
X127292039Y-104574775D01*
X127289716Y-104579757D01*
X127288294Y-104585065D01*
X127288293Y-104585067D01*
X127251809Y-104721225D01*
X127230457Y-104800913D01*
X127210502Y-105029000D01*
X127230457Y-105257087D01*
X127231881Y-105262400D01*
X127231881Y-105262402D01*
X127269963Y-105404523D01*
X127289716Y-105478243D01*
X127292039Y-105483224D01*
X127292039Y-105483225D01*
X127384151Y-105680762D01*
X127384154Y-105680767D01*
X127386477Y-105685749D01*
X127389634Y-105690257D01*
X127480461Y-105819971D01*
X127517802Y-105873300D01*
X127679700Y-106035198D01*
X127684208Y-106038355D01*
X127684211Y-106038357D01*
X127706029Y-106053634D01*
X127867251Y-106166523D01*
X127872233Y-106168846D01*
X127872238Y-106168849D01*
X128069775Y-106260961D01*
X128074757Y-106263284D01*
X128080065Y-106264706D01*
X128080067Y-106264707D01*
X128290598Y-106321119D01*
X128290600Y-106321119D01*
X128295913Y-106322543D01*
X128524000Y-106342498D01*
X128752087Y-106322543D01*
X128757400Y-106321119D01*
X128757402Y-106321119D01*
X128967933Y-106264707D01*
X128967935Y-106264706D01*
X128973243Y-106263284D01*
X128978225Y-106260961D01*
X129175762Y-106168849D01*
X129175767Y-106168846D01*
X129180749Y-106166523D01*
X129341971Y-106053634D01*
X129363789Y-106038357D01*
X129363792Y-106038355D01*
X129368300Y-106035198D01*
X129451905Y-105951593D01*
X129514217Y-105917567D01*
X129585032Y-105922632D01*
X129641868Y-105965179D01*
X129666679Y-106031699D01*
X129667000Y-106040688D01*
X129667000Y-115444000D01*
X129646998Y-115512121D01*
X129593342Y-115558614D01*
X129541000Y-115570000D01*
X127650672Y-115570000D01*
X127582551Y-115549998D01*
X127536058Y-115496342D01*
X127525954Y-115426068D01*
X127536477Y-115390750D01*
X127596490Y-115262053D01*
X127600236Y-115251761D01*
X127646394Y-115079497D01*
X127646058Y-115065401D01*
X127638116Y-115062000D01*
X126237000Y-115062000D01*
X126168879Y-115041998D01*
X126122386Y-114988342D01*
X126111000Y-114936000D01*
X126111000Y-114535885D01*
X126619000Y-114535885D01*
X126623475Y-114551124D01*
X126624865Y-114552329D01*
X126632548Y-114554000D01*
X127632967Y-114554000D01*
X127646498Y-114550027D01*
X127647727Y-114541478D01*
X127600236Y-114364239D01*
X127596490Y-114353947D01*
X127504414Y-114156489D01*
X127498931Y-114146993D01*
X127373972Y-113968533D01*
X127366916Y-113960125D01*
X127212875Y-113806084D01*
X127204467Y-113799028D01*
X127026007Y-113674069D01*
X127016511Y-113668586D01*
X126819053Y-113576510D01*
X126808761Y-113572764D01*
X126636497Y-113526606D01*
X126622401Y-113526942D01*
X126619000Y-113534884D01*
X126619000Y-114535885D01*
X126111000Y-114535885D01*
X126111000Y-113540033D01*
X126107027Y-113526502D01*
X126098478Y-113525273D01*
X125921239Y-113572764D01*
X125910947Y-113576510D01*
X125713489Y-113668586D01*
X125703993Y-113674069D01*
X125525533Y-113799028D01*
X125517125Y-113806084D01*
X125363084Y-113960125D01*
X125356028Y-113968533D01*
X125231069Y-114146993D01*
X125225586Y-114156489D01*
X125133510Y-114353947D01*
X125129763Y-114364243D01*
X125128557Y-114368743D01*
X125091607Y-114429366D01*
X125027747Y-114460389D01*
X124957252Y-114451962D01*
X124902504Y-114406760D01*
X124884646Y-114366829D01*
X124845118Y-114209462D01*
X124843859Y-114204449D01*
X124747228Y-113982215D01*
X124646694Y-113826812D01*
X124618407Y-113783087D01*
X124618405Y-113783084D01*
X124615599Y-113778747D01*
X124452506Y-113599510D01*
X124262328Y-113449317D01*
X124181498Y-113404696D01*
X124054705Y-113334702D01*
X124054702Y-113334701D01*
X124050174Y-113332201D01*
X123905674Y-113281031D01*
X123826613Y-113253034D01*
X123826610Y-113253033D01*
X123821741Y-113251309D01*
X123816652Y-113250402D01*
X123816650Y-113250402D01*
X123714598Y-113232224D01*
X123583163Y-113208812D01*
X123489625Y-113207669D01*
X123346018Y-113205914D01*
X123346016Y-113205914D01*
X123340848Y-113205851D01*
X123101303Y-113242507D01*
X122870961Y-113317794D01*
X122656009Y-113429691D01*
X122651876Y-113432794D01*
X122651873Y-113432796D01*
X122482875Y-113559683D01*
X122462218Y-113575193D01*
X122294795Y-113750392D01*
X122279234Y-113773204D01*
X122224324Y-113818205D01*
X122153799Y-113826376D01*
X122090052Y-113795122D01*
X122076987Y-113780893D01*
X122075599Y-113778747D01*
X122070555Y-113773203D01*
X121915981Y-113603329D01*
X121912506Y-113599510D01*
X121722328Y-113449317D01*
X121641498Y-113404696D01*
X121514705Y-113334702D01*
X121514702Y-113334701D01*
X121510174Y-113332201D01*
X121365674Y-113281031D01*
X121286613Y-113253034D01*
X121286610Y-113253033D01*
X121281741Y-113251309D01*
X121276652Y-113250402D01*
X121276650Y-113250402D01*
X121174598Y-113232224D01*
X121043163Y-113208812D01*
X120949625Y-113207669D01*
X120806018Y-113205914D01*
X120806016Y-113205914D01*
X120800848Y-113205851D01*
X120561303Y-113242507D01*
X120330961Y-113317794D01*
X120116009Y-113429691D01*
X120111876Y-113432794D01*
X120111873Y-113432796D01*
X119942875Y-113559683D01*
X119922218Y-113575193D01*
X119754795Y-113750392D01*
X119751884Y-113754660D01*
X119751878Y-113754667D01*
X119738935Y-113773640D01*
X119684023Y-113818642D01*
X119613498Y-113826812D01*
X119549751Y-113795556D01*
X119535021Y-113779515D01*
X119531718Y-113775227D01*
X119375641Y-113603700D01*
X119368108Y-113596674D01*
X119186104Y-113452936D01*
X119177532Y-113447240D01*
X118974492Y-113335156D01*
X118965095Y-113330933D01*
X118746480Y-113253518D01*
X118736530Y-113250889D01*
X118635836Y-113232953D01*
X118622540Y-113234412D01*
X118618000Y-113248968D01*
X118618000Y-114809000D01*
X118597998Y-114877121D01*
X118544342Y-114923614D01*
X118492000Y-114935000D01*
X118236000Y-114935000D01*
X118167879Y-114914998D01*
X118121386Y-114861342D01*
X118110000Y-114809000D01*
X118110000Y-113247555D01*
X118106082Y-113234211D01*
X118091806Y-113232224D01*
X118026532Y-113242213D01*
X118016504Y-113244602D01*
X117796073Y-113316650D01*
X117786564Y-113320647D01*
X117580865Y-113427727D01*
X117572140Y-113433221D01*
X117436881Y-113534777D01*
X117370396Y-113559683D01*
X117301001Y-113544691D01*
X117250727Y-113494560D01*
X117243246Y-113478247D01*
X117242967Y-113477503D01*
X117239815Y-113469095D01*
X117152461Y-113352539D01*
X117035905Y-113265185D01*
X116899516Y-113214055D01*
X116837334Y-113207300D01*
X114810666Y-113207300D01*
X114748484Y-113214055D01*
X114612095Y-113265185D01*
X114495539Y-113352539D01*
X114408185Y-113469095D01*
X114357055Y-113605484D01*
X114356202Y-113613339D01*
X114353796Y-113635483D01*
X114326554Y-113701045D01*
X114268190Y-113741470D01*
X114197236Y-113743925D01*
X114135339Y-113706673D01*
X114041641Y-113603699D01*
X114034108Y-113596674D01*
X113852104Y-113452936D01*
X113843532Y-113447240D01*
X113640492Y-113335156D01*
X113631095Y-113330933D01*
X113412480Y-113253518D01*
X113402530Y-113250889D01*
X113301836Y-113232953D01*
X113288540Y-113234412D01*
X113284000Y-113248968D01*
X113284000Y-114809000D01*
X113263998Y-114877121D01*
X113210342Y-114923614D01*
X113158000Y-114935000D01*
X112902000Y-114935000D01*
X112833879Y-114914998D01*
X112787386Y-114861342D01*
X112776000Y-114809000D01*
X112776000Y-113247555D01*
X112772082Y-113234211D01*
X112757806Y-113232224D01*
X112692532Y-113242213D01*
X112682504Y-113244602D01*
X112462073Y-113316650D01*
X112452564Y-113320647D01*
X112246865Y-113427727D01*
X112238140Y-113433221D01*
X112102881Y-113534777D01*
X112036396Y-113559683D01*
X111967001Y-113544691D01*
X111916727Y-113494560D01*
X111909246Y-113478247D01*
X111908967Y-113477503D01*
X111905815Y-113469095D01*
X111818461Y-113352539D01*
X111701905Y-113265185D01*
X111565516Y-113214055D01*
X111503334Y-113207300D01*
X109476666Y-113207300D01*
X109414484Y-113214055D01*
X109278095Y-113265185D01*
X109276239Y-113266576D01*
X109210155Y-113281031D01*
X109143606Y-113256297D01*
X109100995Y-113199510D01*
X109093000Y-113155342D01*
X109093000Y-110490000D01*
X111716502Y-110490000D01*
X111736457Y-110718087D01*
X111795716Y-110939243D01*
X111798039Y-110944224D01*
X111798039Y-110944225D01*
X111890151Y-111141762D01*
X111890154Y-111141767D01*
X111892477Y-111146749D01*
X112023802Y-111334300D01*
X112185700Y-111496198D01*
X112190208Y-111499355D01*
X112190211Y-111499357D01*
X112268389Y-111554098D01*
X112373251Y-111627523D01*
X112378233Y-111629846D01*
X112378238Y-111629849D01*
X112575775Y-111721961D01*
X112580757Y-111724284D01*
X112586065Y-111725706D01*
X112586067Y-111725707D01*
X112796598Y-111782119D01*
X112796600Y-111782119D01*
X112801913Y-111783543D01*
X113030000Y-111803498D01*
X113258087Y-111783543D01*
X113263400Y-111782119D01*
X113263402Y-111782119D01*
X113473933Y-111725707D01*
X113473935Y-111725706D01*
X113479243Y-111724284D01*
X113484225Y-111721961D01*
X113681762Y-111629849D01*
X113681767Y-111629846D01*
X113686749Y-111627523D01*
X113791611Y-111554098D01*
X113869789Y-111499357D01*
X113869792Y-111499355D01*
X113874300Y-111496198D01*
X114036198Y-111334300D01*
X114167523Y-111146749D01*
X114169846Y-111141767D01*
X114169849Y-111141762D01*
X114261961Y-110944225D01*
X114261961Y-110944224D01*
X114264284Y-110939243D01*
X114323543Y-110718087D01*
X114343498Y-110490000D01*
X116716502Y-110490000D01*
X116736457Y-110718087D01*
X116795716Y-110939243D01*
X116798039Y-110944224D01*
X116798039Y-110944225D01*
X116890151Y-111141762D01*
X116890154Y-111141767D01*
X116892477Y-111146749D01*
X117023802Y-111334300D01*
X117185700Y-111496198D01*
X117190208Y-111499355D01*
X117190211Y-111499357D01*
X117268389Y-111554098D01*
X117373251Y-111627523D01*
X117378233Y-111629846D01*
X117378238Y-111629849D01*
X117575775Y-111721961D01*
X117580757Y-111724284D01*
X117586065Y-111725706D01*
X117586067Y-111725707D01*
X117796598Y-111782119D01*
X117796600Y-111782119D01*
X117801913Y-111783543D01*
X118030000Y-111803498D01*
X118258087Y-111783543D01*
X118263400Y-111782119D01*
X118263402Y-111782119D01*
X118473933Y-111725707D01*
X118473935Y-111725706D01*
X118479243Y-111724284D01*
X118484225Y-111721961D01*
X118681762Y-111629849D01*
X118681767Y-111629846D01*
X118686749Y-111627523D01*
X118791611Y-111554098D01*
X118869789Y-111499357D01*
X118869792Y-111499355D01*
X118874300Y-111496198D01*
X119036198Y-111334300D01*
X119167523Y-111146749D01*
X119169846Y-111141767D01*
X119169849Y-111141762D01*
X119261961Y-110944225D01*
X119261961Y-110944224D01*
X119264284Y-110939243D01*
X119323543Y-110718087D01*
X119343498Y-110490000D01*
X119323543Y-110261913D01*
X119264284Y-110040757D01*
X119261961Y-110035775D01*
X119169849Y-109838238D01*
X119169846Y-109838233D01*
X119167523Y-109833251D01*
X119036198Y-109645700D01*
X118874300Y-109483802D01*
X118869792Y-109480645D01*
X118869789Y-109480643D01*
X118791611Y-109425902D01*
X118686749Y-109352477D01*
X118681767Y-109350154D01*
X118681762Y-109350151D01*
X118484225Y-109258039D01*
X118484224Y-109258039D01*
X118479243Y-109255716D01*
X118473935Y-109254294D01*
X118473933Y-109254293D01*
X118263402Y-109197881D01*
X118263400Y-109197881D01*
X118258087Y-109196457D01*
X118030000Y-109176502D01*
X117801913Y-109196457D01*
X117796600Y-109197881D01*
X117796598Y-109197881D01*
X117586067Y-109254293D01*
X117586065Y-109254294D01*
X117580757Y-109255716D01*
X117575776Y-109258039D01*
X117575775Y-109258039D01*
X117378238Y-109350151D01*
X117378233Y-109350154D01*
X117373251Y-109352477D01*
X117268389Y-109425902D01*
X117190211Y-109480643D01*
X117190208Y-109480645D01*
X117185700Y-109483802D01*
X117023802Y-109645700D01*
X116892477Y-109833251D01*
X116890154Y-109838233D01*
X116890151Y-109838238D01*
X116798039Y-110035775D01*
X116795716Y-110040757D01*
X116736457Y-110261913D01*
X116716502Y-110490000D01*
X114343498Y-110490000D01*
X114323543Y-110261913D01*
X114264284Y-110040757D01*
X114261961Y-110035775D01*
X114169849Y-109838238D01*
X114169846Y-109838233D01*
X114167523Y-109833251D01*
X114036198Y-109645700D01*
X113874300Y-109483802D01*
X113869792Y-109480645D01*
X113869789Y-109480643D01*
X113791611Y-109425902D01*
X113686749Y-109352477D01*
X113681767Y-109350154D01*
X113681762Y-109350151D01*
X113484225Y-109258039D01*
X113484224Y-109258039D01*
X113479243Y-109255716D01*
X113473935Y-109254294D01*
X113473933Y-109254293D01*
X113263402Y-109197881D01*
X113263400Y-109197881D01*
X113258087Y-109196457D01*
X113030000Y-109176502D01*
X112801913Y-109196457D01*
X112796600Y-109197881D01*
X112796598Y-109197881D01*
X112586067Y-109254293D01*
X112586065Y-109254294D01*
X112580757Y-109255716D01*
X112575776Y-109258039D01*
X112575775Y-109258039D01*
X112378238Y-109350151D01*
X112378233Y-109350154D01*
X112373251Y-109352477D01*
X112268389Y-109425902D01*
X112190211Y-109480643D01*
X112190208Y-109480645D01*
X112185700Y-109483802D01*
X112023802Y-109645700D01*
X111892477Y-109833251D01*
X111890154Y-109838233D01*
X111890151Y-109838238D01*
X111798039Y-110035775D01*
X111795716Y-110040757D01*
X111736457Y-110261913D01*
X111716502Y-110490000D01*
X109093000Y-110490000D01*
X109093000Y-107983648D01*
X109113002Y-107915527D01*
X109166658Y-107869034D01*
X109236932Y-107858930D01*
X109301512Y-107888424D01*
X109333195Y-107930399D01*
X109350149Y-107966758D01*
X109350153Y-107966764D01*
X109352477Y-107971749D01*
X109483802Y-108159300D01*
X109645700Y-108321198D01*
X109650208Y-108324355D01*
X109650211Y-108324357D01*
X109728389Y-108379098D01*
X109833251Y-108452523D01*
X109838233Y-108454846D01*
X109838238Y-108454849D01*
X110034765Y-108546490D01*
X110040757Y-108549284D01*
X110046065Y-108550706D01*
X110046067Y-108550707D01*
X110256598Y-108607119D01*
X110256600Y-108607119D01*
X110261913Y-108608543D01*
X110490000Y-108628498D01*
X110718087Y-108608543D01*
X110723400Y-108607119D01*
X110723402Y-108607119D01*
X110933933Y-108550707D01*
X110933935Y-108550706D01*
X110939243Y-108549284D01*
X110945235Y-108546490D01*
X111141762Y-108454849D01*
X111141767Y-108454846D01*
X111146749Y-108452523D01*
X111251611Y-108379098D01*
X111329789Y-108324357D01*
X111329792Y-108324355D01*
X111334300Y-108321198D01*
X111496198Y-108159300D01*
X111627523Y-107971749D01*
X111629846Y-107966767D01*
X111629849Y-107966762D01*
X111721961Y-107769225D01*
X111721961Y-107769224D01*
X111724284Y-107764243D01*
X111772970Y-107582548D01*
X111773245Y-107581522D01*
X116827273Y-107581522D01*
X116874764Y-107758761D01*
X116878510Y-107769053D01*
X116970586Y-107966511D01*
X116976069Y-107976007D01*
X117101028Y-108154467D01*
X117108084Y-108162875D01*
X117262125Y-108316916D01*
X117270533Y-108323972D01*
X117448993Y-108448931D01*
X117458489Y-108454414D01*
X117655947Y-108546490D01*
X117666239Y-108550236D01*
X117838503Y-108596394D01*
X117852599Y-108596058D01*
X117856000Y-108588116D01*
X117856000Y-108582967D01*
X118364000Y-108582967D01*
X118367973Y-108596498D01*
X118376522Y-108597727D01*
X118553761Y-108550236D01*
X118564053Y-108546490D01*
X118761511Y-108454414D01*
X118771007Y-108448931D01*
X118949467Y-108323972D01*
X118957875Y-108316916D01*
X119111916Y-108162875D01*
X119118972Y-108154467D01*
X119243931Y-107976007D01*
X119249414Y-107966511D01*
X119341490Y-107769053D01*
X119345236Y-107758761D01*
X119391394Y-107586497D01*
X119391058Y-107572401D01*
X119383116Y-107569000D01*
X118382115Y-107569000D01*
X118366876Y-107573475D01*
X118365671Y-107574865D01*
X118364000Y-107582548D01*
X118364000Y-108582967D01*
X117856000Y-108582967D01*
X117856000Y-107587115D01*
X117851525Y-107571876D01*
X117850135Y-107570671D01*
X117842452Y-107569000D01*
X116842033Y-107569000D01*
X116828502Y-107572973D01*
X116827273Y-107581522D01*
X111773245Y-107581522D01*
X111782119Y-107548402D01*
X111782119Y-107548400D01*
X111783543Y-107543087D01*
X111803498Y-107315000D01*
X111792387Y-107188000D01*
X125051502Y-107188000D01*
X125071457Y-107416087D01*
X125072881Y-107421400D01*
X125072881Y-107421402D01*
X125117119Y-107586497D01*
X125130716Y-107637243D01*
X125133039Y-107642224D01*
X125133039Y-107642225D01*
X125225151Y-107839762D01*
X125225154Y-107839767D01*
X125227477Y-107844749D01*
X125358802Y-108032300D01*
X125520700Y-108194198D01*
X125525208Y-108197355D01*
X125525211Y-108197357D01*
X125603389Y-108252098D01*
X125708251Y-108325523D01*
X125713233Y-108327846D01*
X125713238Y-108327849D01*
X125910775Y-108419961D01*
X125915757Y-108422284D01*
X125921065Y-108423706D01*
X125921067Y-108423707D01*
X126131598Y-108480119D01*
X126131600Y-108480119D01*
X126136913Y-108481543D01*
X126365000Y-108501498D01*
X126593087Y-108481543D01*
X126598400Y-108480119D01*
X126598402Y-108480119D01*
X126808933Y-108423707D01*
X126808935Y-108423706D01*
X126814243Y-108422284D01*
X126819225Y-108419961D01*
X127016762Y-108327849D01*
X127016767Y-108327846D01*
X127021749Y-108325523D01*
X127126611Y-108252098D01*
X127204789Y-108197357D01*
X127204792Y-108197355D01*
X127209300Y-108194198D01*
X127371198Y-108032300D01*
X127502523Y-107844749D01*
X127504846Y-107839767D01*
X127504849Y-107839762D01*
X127596961Y-107642225D01*
X127596961Y-107642224D01*
X127599284Y-107637243D01*
X127612882Y-107586497D01*
X127657119Y-107421402D01*
X127657119Y-107421400D01*
X127658543Y-107416087D01*
X127678498Y-107188000D01*
X127658543Y-106959913D01*
X127599284Y-106738757D01*
X127596961Y-106733775D01*
X127504849Y-106536238D01*
X127504846Y-106536233D01*
X127502523Y-106531251D01*
X127371198Y-106343700D01*
X127209300Y-106181802D01*
X127204792Y-106178645D01*
X127204789Y-106178643D01*
X127068252Y-106083039D01*
X127021749Y-106050477D01*
X127016767Y-106048154D01*
X127016762Y-106048151D01*
X126819225Y-105956039D01*
X126819224Y-105956039D01*
X126814243Y-105953716D01*
X126808935Y-105952294D01*
X126808933Y-105952293D01*
X126598402Y-105895881D01*
X126598400Y-105895881D01*
X126593087Y-105894457D01*
X126365000Y-105874502D01*
X126136913Y-105894457D01*
X126131600Y-105895881D01*
X126131598Y-105895881D01*
X125921067Y-105952293D01*
X125921065Y-105952294D01*
X125915757Y-105953716D01*
X125910776Y-105956039D01*
X125910775Y-105956039D01*
X125713238Y-106048151D01*
X125713233Y-106048154D01*
X125708251Y-106050477D01*
X125661748Y-106083039D01*
X125525211Y-106178643D01*
X125525208Y-106178645D01*
X125520700Y-106181802D01*
X125358802Y-106343700D01*
X125227477Y-106531251D01*
X125225154Y-106536233D01*
X125225151Y-106536238D01*
X125133039Y-106733775D01*
X125130716Y-106738757D01*
X125071457Y-106959913D01*
X125051502Y-107188000D01*
X111792387Y-107188000D01*
X111783543Y-107086913D01*
X111773244Y-107048478D01*
X111771911Y-107043503D01*
X116828606Y-107043503D01*
X116828942Y-107057599D01*
X116836884Y-107061000D01*
X117837885Y-107061000D01*
X117853124Y-107056525D01*
X117854329Y-107055135D01*
X117856000Y-107047452D01*
X117856000Y-107042885D01*
X118364000Y-107042885D01*
X118368475Y-107058124D01*
X118369865Y-107059329D01*
X118377548Y-107061000D01*
X119377967Y-107061000D01*
X119391498Y-107057027D01*
X119392727Y-107048478D01*
X119345236Y-106871239D01*
X119341490Y-106860947D01*
X119249414Y-106663489D01*
X119243931Y-106653993D01*
X119118972Y-106475533D01*
X119111916Y-106467125D01*
X118957875Y-106313084D01*
X118949467Y-106306028D01*
X118771007Y-106181069D01*
X118761511Y-106175586D01*
X118564053Y-106083510D01*
X118553761Y-106079764D01*
X118381497Y-106033606D01*
X118367401Y-106033942D01*
X118364000Y-106041884D01*
X118364000Y-107042885D01*
X117856000Y-107042885D01*
X117856000Y-106047033D01*
X117852027Y-106033502D01*
X117843478Y-106032273D01*
X117666239Y-106079764D01*
X117655947Y-106083510D01*
X117458489Y-106175586D01*
X117448993Y-106181069D01*
X117270533Y-106306028D01*
X117262125Y-106313084D01*
X117108084Y-106467125D01*
X117101028Y-106475533D01*
X116976069Y-106653993D01*
X116970586Y-106663489D01*
X116878510Y-106860947D01*
X116874764Y-106871239D01*
X116828606Y-107043503D01*
X111771911Y-107043503D01*
X111725707Y-106871067D01*
X111725706Y-106871065D01*
X111724284Y-106865757D01*
X111680727Y-106772348D01*
X111629849Y-106663238D01*
X111629846Y-106663233D01*
X111627523Y-106658251D01*
X111496198Y-106470700D01*
X111334300Y-106308802D01*
X111329792Y-106305645D01*
X111329789Y-106305643D01*
X111158491Y-106185699D01*
X111146749Y-106177477D01*
X111141767Y-106175154D01*
X111141762Y-106175151D01*
X110944225Y-106083039D01*
X110944224Y-106083039D01*
X110939243Y-106080716D01*
X110933935Y-106079294D01*
X110933933Y-106079293D01*
X110723402Y-106022881D01*
X110723400Y-106022881D01*
X110718087Y-106021457D01*
X110490000Y-106001502D01*
X110261913Y-106021457D01*
X110256600Y-106022881D01*
X110256598Y-106022881D01*
X110046067Y-106079293D01*
X110046065Y-106079294D01*
X110040757Y-106080716D01*
X110035776Y-106083039D01*
X110035775Y-106083039D01*
X109838238Y-106175151D01*
X109838233Y-106175154D01*
X109833251Y-106177477D01*
X109821509Y-106185699D01*
X109650211Y-106305643D01*
X109650208Y-106305645D01*
X109645700Y-106308802D01*
X109483802Y-106470700D01*
X109352477Y-106658251D01*
X109350153Y-106663236D01*
X109350149Y-106663242D01*
X109333195Y-106699601D01*
X109286278Y-106752887D01*
X109218001Y-106772348D01*
X109150041Y-106751807D01*
X109103975Y-106697784D01*
X109093000Y-106646352D01*
X109093000Y-104935648D01*
X109113002Y-104867527D01*
X109166658Y-104821034D01*
X109236932Y-104810930D01*
X109301512Y-104840424D01*
X109333195Y-104882399D01*
X109350149Y-104918758D01*
X109350153Y-104918764D01*
X109352477Y-104923749D01*
X109483802Y-105111300D01*
X109645700Y-105273198D01*
X109650208Y-105276355D01*
X109650211Y-105276357D01*
X109728389Y-105331098D01*
X109833251Y-105404523D01*
X109838233Y-105406846D01*
X109838238Y-105406849D01*
X109991345Y-105478243D01*
X110040757Y-105501284D01*
X110046065Y-105502706D01*
X110046067Y-105502707D01*
X110256598Y-105559119D01*
X110256600Y-105559119D01*
X110261913Y-105560543D01*
X110490000Y-105580498D01*
X110718087Y-105560543D01*
X110723400Y-105559119D01*
X110723402Y-105559119D01*
X110933933Y-105502707D01*
X110933935Y-105502706D01*
X110939243Y-105501284D01*
X110988655Y-105478243D01*
X111141762Y-105406849D01*
X111141767Y-105406846D01*
X111146749Y-105404523D01*
X111251611Y-105331098D01*
X111329789Y-105276357D01*
X111329792Y-105276355D01*
X111334300Y-105273198D01*
X111496198Y-105111300D01*
X111627523Y-104923749D01*
X111629846Y-104918767D01*
X111629849Y-104918762D01*
X111721961Y-104721225D01*
X111721961Y-104721224D01*
X111724284Y-104716243D01*
X111772970Y-104534548D01*
X111773245Y-104533522D01*
X116827273Y-104533522D01*
X116874764Y-104710761D01*
X116878510Y-104721053D01*
X116970586Y-104918511D01*
X116976069Y-104928007D01*
X117101028Y-105106467D01*
X117108084Y-105114875D01*
X117262125Y-105268916D01*
X117270533Y-105275972D01*
X117448993Y-105400931D01*
X117458489Y-105406414D01*
X117655947Y-105498490D01*
X117666239Y-105502236D01*
X117838503Y-105548394D01*
X117852599Y-105548058D01*
X117856000Y-105540116D01*
X117856000Y-105534967D01*
X118364000Y-105534967D01*
X118367973Y-105548498D01*
X118376522Y-105549727D01*
X118553761Y-105502236D01*
X118564053Y-105498490D01*
X118761511Y-105406414D01*
X118771007Y-105400931D01*
X118816418Y-105369134D01*
X121373500Y-105369134D01*
X121380255Y-105431316D01*
X121431385Y-105567705D01*
X121518739Y-105684261D01*
X121635295Y-105771615D01*
X121771684Y-105822745D01*
X121833866Y-105829500D01*
X123530134Y-105829500D01*
X123592316Y-105822745D01*
X123728705Y-105771615D01*
X123845261Y-105684261D01*
X123932615Y-105567705D01*
X123983745Y-105431316D01*
X123990500Y-105369134D01*
X123990500Y-103672866D01*
X123983745Y-103610684D01*
X123932615Y-103474295D01*
X123845261Y-103357739D01*
X123728705Y-103270385D01*
X123592316Y-103219255D01*
X123548748Y-103214522D01*
X123533514Y-103212867D01*
X123533511Y-103212867D01*
X123530134Y-103212500D01*
X123526815Y-103212500D01*
X123459890Y-103188847D01*
X123424196Y-103142844D01*
X123422266Y-103143859D01*
X123416558Y-103133000D01*
X123416368Y-103132755D01*
X123416347Y-103132597D01*
X123396356Y-103094566D01*
X122694812Y-102393022D01*
X122680868Y-102385408D01*
X122679035Y-102385539D01*
X122672420Y-102389790D01*
X121966923Y-103095287D01*
X121944129Y-103137029D01*
X121941953Y-103147029D01*
X121891747Y-103197227D01*
X121838186Y-103212451D01*
X121837281Y-103212500D01*
X121833866Y-103212500D01*
X121830470Y-103212869D01*
X121830468Y-103212869D01*
X121818121Y-103214210D01*
X121771684Y-103219255D01*
X121635295Y-103270385D01*
X121518739Y-103357739D01*
X121431385Y-103474295D01*
X121380255Y-103610684D01*
X121373500Y-103672866D01*
X121373500Y-105369134D01*
X118816418Y-105369134D01*
X118949467Y-105275972D01*
X118957875Y-105268916D01*
X119111916Y-105114875D01*
X119118972Y-105106467D01*
X119243931Y-104928007D01*
X119249414Y-104918511D01*
X119341490Y-104721053D01*
X119345236Y-104710761D01*
X119391394Y-104538497D01*
X119391058Y-104524401D01*
X119383116Y-104521000D01*
X118382115Y-104521000D01*
X118366876Y-104525475D01*
X118365671Y-104526865D01*
X118364000Y-104534548D01*
X118364000Y-105534967D01*
X117856000Y-105534967D01*
X117856000Y-104539115D01*
X117851525Y-104523876D01*
X117850135Y-104522671D01*
X117842452Y-104521000D01*
X116842033Y-104521000D01*
X116828502Y-104524973D01*
X116827273Y-104533522D01*
X111773245Y-104533522D01*
X111782119Y-104500402D01*
X111782119Y-104500400D01*
X111783543Y-104495087D01*
X111803498Y-104267000D01*
X111783543Y-104038913D01*
X111773244Y-104000478D01*
X111771911Y-103995503D01*
X116828606Y-103995503D01*
X116828942Y-104009599D01*
X116836884Y-104013000D01*
X117837885Y-104013000D01*
X117853124Y-104008525D01*
X117854329Y-104007135D01*
X117856000Y-103999452D01*
X117856000Y-103994885D01*
X118364000Y-103994885D01*
X118368475Y-104010124D01*
X118369865Y-104011329D01*
X118377548Y-104013000D01*
X119377967Y-104013000D01*
X119391498Y-104009027D01*
X119392727Y-104000478D01*
X119345236Y-103823239D01*
X119341490Y-103812947D01*
X119249414Y-103615489D01*
X119243931Y-103605993D01*
X119118972Y-103427533D01*
X119111916Y-103419125D01*
X118957875Y-103265084D01*
X118949467Y-103258028D01*
X118771007Y-103133069D01*
X118761511Y-103127586D01*
X118564053Y-103035510D01*
X118553761Y-103031764D01*
X118381497Y-102985606D01*
X118367401Y-102985942D01*
X118364000Y-102993884D01*
X118364000Y-103994885D01*
X117856000Y-103994885D01*
X117856000Y-102999033D01*
X117852027Y-102985502D01*
X117843478Y-102984273D01*
X117666239Y-103031764D01*
X117655947Y-103035510D01*
X117458489Y-103127586D01*
X117448993Y-103133069D01*
X117270533Y-103258028D01*
X117262125Y-103265084D01*
X117108084Y-103419125D01*
X117101028Y-103427533D01*
X116976069Y-103605993D01*
X116970586Y-103615489D01*
X116878510Y-103812947D01*
X116874764Y-103823239D01*
X116828606Y-103995503D01*
X111771911Y-103995503D01*
X111725707Y-103823067D01*
X111725706Y-103823065D01*
X111724284Y-103817757D01*
X111680727Y-103724348D01*
X111629849Y-103615238D01*
X111629846Y-103615233D01*
X111627523Y-103610251D01*
X111496198Y-103422700D01*
X111334300Y-103260802D01*
X111329792Y-103257645D01*
X111329789Y-103257643D01*
X111231538Y-103188847D01*
X111146749Y-103129477D01*
X111141767Y-103127154D01*
X111141762Y-103127151D01*
X110944225Y-103035039D01*
X110944224Y-103035039D01*
X110939243Y-103032716D01*
X110933935Y-103031294D01*
X110933933Y-103031293D01*
X110723402Y-102974881D01*
X110723400Y-102974881D01*
X110718087Y-102973457D01*
X110490000Y-102953502D01*
X110261913Y-102973457D01*
X110256600Y-102974881D01*
X110256598Y-102974881D01*
X110046067Y-103031293D01*
X110046065Y-103031294D01*
X110040757Y-103032716D01*
X110035776Y-103035039D01*
X110035775Y-103035039D01*
X109838238Y-103127151D01*
X109838233Y-103127154D01*
X109833251Y-103129477D01*
X109748462Y-103188847D01*
X109650211Y-103257643D01*
X109650208Y-103257645D01*
X109645700Y-103260802D01*
X109483802Y-103422700D01*
X109352477Y-103610251D01*
X109350153Y-103615236D01*
X109350149Y-103615242D01*
X109333195Y-103651601D01*
X109286278Y-103704887D01*
X109218001Y-103724348D01*
X109150041Y-103703807D01*
X109103975Y-103649784D01*
X109093000Y-103598352D01*
X109093000Y-101887648D01*
X109113002Y-101819527D01*
X109166658Y-101773034D01*
X109236932Y-101762930D01*
X109301512Y-101792424D01*
X109333195Y-101834399D01*
X109350149Y-101870758D01*
X109350153Y-101870764D01*
X109352477Y-101875749D01*
X109483802Y-102063300D01*
X109645700Y-102225198D01*
X109650208Y-102228355D01*
X109650211Y-102228357D01*
X109671865Y-102243519D01*
X109833251Y-102356523D01*
X109838233Y-102358846D01*
X109838238Y-102358849D01*
X110035775Y-102450961D01*
X110040757Y-102453284D01*
X110046065Y-102454706D01*
X110046067Y-102454707D01*
X110256598Y-102511119D01*
X110256600Y-102511119D01*
X110261913Y-102512543D01*
X110490000Y-102532498D01*
X110718087Y-102512543D01*
X110723400Y-102511119D01*
X110723402Y-102511119D01*
X110933933Y-102454707D01*
X110933935Y-102454706D01*
X110939243Y-102453284D01*
X110944225Y-102450961D01*
X111141762Y-102358849D01*
X111141767Y-102358846D01*
X111146749Y-102356523D01*
X111308135Y-102243519D01*
X111329789Y-102228357D01*
X111329792Y-102228355D01*
X111334300Y-102225198D01*
X111496198Y-102063300D01*
X111627523Y-101875749D01*
X111629846Y-101870767D01*
X111629849Y-101870762D01*
X111721961Y-101673225D01*
X111721961Y-101673224D01*
X111724284Y-101668243D01*
X111751427Y-101566947D01*
X111782119Y-101452402D01*
X111782119Y-101452400D01*
X111783543Y-101447087D01*
X111803498Y-101219000D01*
X116796502Y-101219000D01*
X116816457Y-101447087D01*
X116817881Y-101452400D01*
X116817881Y-101452402D01*
X116848574Y-101566947D01*
X116875716Y-101668243D01*
X116878039Y-101673224D01*
X116878039Y-101673225D01*
X116970151Y-101870762D01*
X116970154Y-101870767D01*
X116972477Y-101875749D01*
X117103802Y-102063300D01*
X117265700Y-102225198D01*
X117270208Y-102228355D01*
X117270211Y-102228357D01*
X117291865Y-102243519D01*
X117453251Y-102356523D01*
X117458233Y-102358846D01*
X117458238Y-102358849D01*
X117655775Y-102450961D01*
X117660757Y-102453284D01*
X117666065Y-102454706D01*
X117666067Y-102454707D01*
X117876598Y-102511119D01*
X117876600Y-102511119D01*
X117881913Y-102512543D01*
X118110000Y-102532498D01*
X118338087Y-102512543D01*
X118343400Y-102511119D01*
X118343402Y-102511119D01*
X118553933Y-102454707D01*
X118553935Y-102454706D01*
X118559243Y-102453284D01*
X118564225Y-102450961D01*
X118761762Y-102358849D01*
X118761767Y-102358846D01*
X118766749Y-102356523D01*
X118928135Y-102243519D01*
X118949789Y-102228357D01*
X118949792Y-102228355D01*
X118954300Y-102225198D01*
X119116198Y-102063300D01*
X119141983Y-102026475D01*
X121369483Y-102026475D01*
X121388472Y-102243519D01*
X121390375Y-102254312D01*
X121446764Y-102464761D01*
X121450510Y-102475053D01*
X121542586Y-102672511D01*
X121548069Y-102682006D01*
X121584509Y-102734048D01*
X121594988Y-102742424D01*
X121608434Y-102735356D01*
X122309978Y-102033812D01*
X122316356Y-102022132D01*
X123046408Y-102022132D01*
X123046539Y-102023965D01*
X123050790Y-102030580D01*
X123756287Y-102736077D01*
X123768062Y-102742507D01*
X123780077Y-102733211D01*
X123815931Y-102682006D01*
X123821414Y-102672511D01*
X123913490Y-102475053D01*
X123917236Y-102464761D01*
X123973625Y-102254312D01*
X123975528Y-102243519D01*
X123994517Y-102026475D01*
X123994517Y-102015525D01*
X123975528Y-101798481D01*
X123973625Y-101787688D01*
X123917236Y-101577239D01*
X123913490Y-101566947D01*
X123821414Y-101369489D01*
X123815931Y-101359994D01*
X123779491Y-101307952D01*
X123769012Y-101299576D01*
X123755566Y-101306644D01*
X123054022Y-102008188D01*
X123046408Y-102022132D01*
X122316356Y-102022132D01*
X122317592Y-102019868D01*
X122317461Y-102018035D01*
X122313210Y-102011420D01*
X121607713Y-101305923D01*
X121595938Y-101299493D01*
X121583923Y-101308789D01*
X121548069Y-101359994D01*
X121542586Y-101369489D01*
X121450510Y-101566947D01*
X121446764Y-101577239D01*
X121390375Y-101787688D01*
X121388472Y-101798481D01*
X121369483Y-102015525D01*
X121369483Y-102026475D01*
X119141983Y-102026475D01*
X119247523Y-101875749D01*
X119249846Y-101870767D01*
X119249849Y-101870762D01*
X119341961Y-101673225D01*
X119341961Y-101673224D01*
X119344284Y-101668243D01*
X119371427Y-101566947D01*
X119402119Y-101452402D01*
X119402119Y-101452400D01*
X119403543Y-101447087D01*
X119423498Y-101219000D01*
X119403543Y-100990913D01*
X119391700Y-100946713D01*
X119388290Y-100933988D01*
X121960576Y-100933988D01*
X121967644Y-100947434D01*
X122669188Y-101648978D01*
X122683132Y-101656592D01*
X122684965Y-101656461D01*
X122691580Y-101652210D01*
X123397077Y-100946713D01*
X123403507Y-100934938D01*
X123394211Y-100922923D01*
X123343006Y-100887069D01*
X123333511Y-100881586D01*
X123136053Y-100789510D01*
X123125761Y-100785764D01*
X122915312Y-100729375D01*
X122904519Y-100727472D01*
X122687475Y-100708483D01*
X122676525Y-100708483D01*
X122459481Y-100727472D01*
X122448688Y-100729375D01*
X122238239Y-100785764D01*
X122227947Y-100789510D01*
X122030489Y-100881586D01*
X122020994Y-100887069D01*
X121968952Y-100923509D01*
X121960576Y-100933988D01*
X119388290Y-100933988D01*
X119345707Y-100775067D01*
X119345706Y-100775065D01*
X119344284Y-100769757D01*
X119325454Y-100729375D01*
X119249849Y-100567238D01*
X119249846Y-100567233D01*
X119247523Y-100562251D01*
X119116198Y-100374700D01*
X118954300Y-100212802D01*
X118949792Y-100209645D01*
X118949789Y-100209643D01*
X118871611Y-100154902D01*
X118766749Y-100081477D01*
X118761767Y-100079154D01*
X118761762Y-100079151D01*
X118564225Y-99987039D01*
X118564224Y-99987039D01*
X118559243Y-99984716D01*
X118553935Y-99983294D01*
X118553933Y-99983293D01*
X118343402Y-99926881D01*
X118343400Y-99926881D01*
X118338087Y-99925457D01*
X118110000Y-99905502D01*
X117881913Y-99925457D01*
X117876600Y-99926881D01*
X117876598Y-99926881D01*
X117666067Y-99983293D01*
X117666065Y-99983294D01*
X117660757Y-99984716D01*
X117655776Y-99987039D01*
X117655775Y-99987039D01*
X117458238Y-100079151D01*
X117458233Y-100079154D01*
X117453251Y-100081477D01*
X117348389Y-100154902D01*
X117270211Y-100209643D01*
X117270208Y-100209645D01*
X117265700Y-100212802D01*
X117103802Y-100374700D01*
X116972477Y-100562251D01*
X116970154Y-100567233D01*
X116970151Y-100567238D01*
X116894546Y-100729375D01*
X116875716Y-100769757D01*
X116874294Y-100775065D01*
X116874293Y-100775067D01*
X116828300Y-100946713D01*
X116816457Y-100990913D01*
X116796502Y-101219000D01*
X111803498Y-101219000D01*
X111783543Y-100990913D01*
X111771700Y-100946713D01*
X111725707Y-100775067D01*
X111725706Y-100775065D01*
X111724284Y-100769757D01*
X111705454Y-100729375D01*
X111629849Y-100567238D01*
X111629846Y-100567233D01*
X111627523Y-100562251D01*
X111496198Y-100374700D01*
X111334300Y-100212802D01*
X111329792Y-100209645D01*
X111329789Y-100209643D01*
X111251611Y-100154902D01*
X111146749Y-100081477D01*
X111141767Y-100079154D01*
X111141762Y-100079151D01*
X110944225Y-99987039D01*
X110944224Y-99987039D01*
X110939243Y-99984716D01*
X110933935Y-99983294D01*
X110933933Y-99983293D01*
X110723402Y-99926881D01*
X110723400Y-99926881D01*
X110718087Y-99925457D01*
X110490000Y-99905502D01*
X110261913Y-99925457D01*
X110256600Y-99926881D01*
X110256598Y-99926881D01*
X110046067Y-99983293D01*
X110046065Y-99983294D01*
X110040757Y-99984716D01*
X110035776Y-99987039D01*
X110035775Y-99987039D01*
X109838238Y-100079151D01*
X109838233Y-100079154D01*
X109833251Y-100081477D01*
X109728389Y-100154902D01*
X109650211Y-100209643D01*
X109650208Y-100209645D01*
X109645700Y-100212802D01*
X109483802Y-100374700D01*
X109352477Y-100562251D01*
X109350153Y-100567236D01*
X109350149Y-100567242D01*
X109333195Y-100603601D01*
X109286278Y-100656887D01*
X109218001Y-100676348D01*
X109150041Y-100655807D01*
X109103975Y-100601784D01*
X109093000Y-100550352D01*
X109093000Y-98839648D01*
X109113002Y-98771527D01*
X109166658Y-98725034D01*
X109236932Y-98714930D01*
X109301512Y-98744424D01*
X109333195Y-98786399D01*
X109350149Y-98822758D01*
X109350153Y-98822764D01*
X109352477Y-98827749D01*
X109483802Y-99015300D01*
X109645700Y-99177198D01*
X109650208Y-99180355D01*
X109650211Y-99180357D01*
X109728389Y-99235098D01*
X109833251Y-99308523D01*
X109838233Y-99310846D01*
X109838238Y-99310849D01*
X110035775Y-99402961D01*
X110040757Y-99405284D01*
X110046065Y-99406706D01*
X110046067Y-99406707D01*
X110256598Y-99463119D01*
X110256600Y-99463119D01*
X110261913Y-99464543D01*
X110490000Y-99484498D01*
X110718087Y-99464543D01*
X110723400Y-99463119D01*
X110723402Y-99463119D01*
X110933933Y-99406707D01*
X110933935Y-99406706D01*
X110939243Y-99405284D01*
X110944225Y-99402961D01*
X111141762Y-99310849D01*
X111141767Y-99310846D01*
X111146749Y-99308523D01*
X111251611Y-99235098D01*
X111329789Y-99180357D01*
X111329792Y-99180355D01*
X111334300Y-99177198D01*
X111496198Y-99015300D01*
X111627523Y-98827749D01*
X111629846Y-98822767D01*
X111629849Y-98822762D01*
X111721961Y-98625225D01*
X111721961Y-98625224D01*
X111724284Y-98620243D01*
X111758819Y-98491360D01*
X111782119Y-98404402D01*
X111782119Y-98404400D01*
X111783543Y-98399087D01*
X111803498Y-98171000D01*
X116796502Y-98171000D01*
X116816457Y-98399087D01*
X116817881Y-98404400D01*
X116817881Y-98404402D01*
X116841182Y-98491360D01*
X116875716Y-98620243D01*
X116878039Y-98625224D01*
X116878039Y-98625225D01*
X116970151Y-98822762D01*
X116970154Y-98822767D01*
X116972477Y-98827749D01*
X117103802Y-99015300D01*
X117265700Y-99177198D01*
X117270208Y-99180355D01*
X117270211Y-99180357D01*
X117348389Y-99235098D01*
X117453251Y-99308523D01*
X117458233Y-99310846D01*
X117458238Y-99310849D01*
X117655775Y-99402961D01*
X117660757Y-99405284D01*
X117666065Y-99406706D01*
X117666067Y-99406707D01*
X117876598Y-99463119D01*
X117876600Y-99463119D01*
X117881913Y-99464543D01*
X118110000Y-99484498D01*
X118338087Y-99464543D01*
X118343400Y-99463119D01*
X118343402Y-99463119D01*
X118553933Y-99406707D01*
X118553935Y-99406706D01*
X118559243Y-99405284D01*
X118564225Y-99402961D01*
X118761762Y-99310849D01*
X118761767Y-99310846D01*
X118766749Y-99308523D01*
X118871611Y-99235098D01*
X118949789Y-99180357D01*
X118949792Y-99180355D01*
X118954300Y-99177198D01*
X119116198Y-99015300D01*
X119247523Y-98827749D01*
X119249846Y-98822767D01*
X119249849Y-98822762D01*
X119341961Y-98625225D01*
X119341961Y-98625224D01*
X119344284Y-98620243D01*
X119378819Y-98491360D01*
X119402119Y-98404402D01*
X119402119Y-98404400D01*
X119403543Y-98399087D01*
X119423498Y-98171000D01*
X119422743Y-98162366D01*
X119408416Y-97998606D01*
X119422405Y-97929002D01*
X119471805Y-97878009D01*
X119540931Y-97861819D01*
X119607836Y-97885572D01*
X119623032Y-97898530D01*
X119758700Y-98034198D01*
X119763208Y-98037355D01*
X119763211Y-98037357D01*
X119809840Y-98070007D01*
X119946251Y-98165523D01*
X119957997Y-98171000D01*
X120008067Y-98194348D01*
X120043913Y-98219448D01*
X120138732Y-98314267D01*
X120238239Y-98392291D01*
X120245159Y-98395416D01*
X120245160Y-98395416D01*
X120385513Y-98458787D01*
X120385516Y-98458788D01*
X120392435Y-98461912D01*
X120558786Y-98492744D01*
X120566366Y-98492307D01*
X120566367Y-98492307D01*
X120600913Y-98490315D01*
X120727691Y-98483005D01*
X120889397Y-98433258D01*
X121034569Y-98346375D01*
X121154825Y-98227371D01*
X121155085Y-98227634D01*
X121196218Y-98195148D01*
X121254758Y-98167851D01*
X121254764Y-98167847D01*
X121259749Y-98165523D01*
X121396160Y-98070007D01*
X121442789Y-98037357D01*
X121442792Y-98037355D01*
X121447300Y-98034198D01*
X121609198Y-97872300D01*
X121622880Y-97852761D01*
X121667098Y-97789611D01*
X121740523Y-97684749D01*
X121742846Y-97679767D01*
X121742849Y-97679762D01*
X121834961Y-97482225D01*
X121834961Y-97482224D01*
X121837284Y-97477243D01*
X121876414Y-97331211D01*
X121895119Y-97261402D01*
X121895119Y-97261400D01*
X121896543Y-97256087D01*
X121916498Y-97028000D01*
X124289502Y-97028000D01*
X124309457Y-97256087D01*
X124310881Y-97261400D01*
X124310881Y-97261402D01*
X124329587Y-97331211D01*
X124368716Y-97477243D01*
X124371039Y-97482224D01*
X124371039Y-97482225D01*
X124463151Y-97679762D01*
X124463154Y-97679767D01*
X124465477Y-97684749D01*
X124538902Y-97789611D01*
X124583121Y-97852761D01*
X124596802Y-97872300D01*
X124758700Y-98034198D01*
X124763208Y-98037355D01*
X124763211Y-98037357D01*
X124809840Y-98070007D01*
X124946251Y-98165523D01*
X124951233Y-98167846D01*
X124951238Y-98167849D01*
X125061894Y-98219448D01*
X125153757Y-98262284D01*
X125159065Y-98263706D01*
X125159067Y-98263707D01*
X125369598Y-98320119D01*
X125369600Y-98320119D01*
X125374913Y-98321543D01*
X125603000Y-98341498D01*
X125831087Y-98321543D01*
X125836400Y-98320119D01*
X125836402Y-98320119D01*
X126046933Y-98263707D01*
X126046935Y-98263706D01*
X126052243Y-98262284D01*
X126144106Y-98219448D01*
X126254762Y-98167849D01*
X126254767Y-98167846D01*
X126259749Y-98165523D01*
X126396160Y-98070007D01*
X126442789Y-98037357D01*
X126442792Y-98037355D01*
X126447300Y-98034198D01*
X126609198Y-97872300D01*
X126622880Y-97852761D01*
X126667098Y-97789611D01*
X126740523Y-97684749D01*
X126742846Y-97679767D01*
X126742849Y-97679762D01*
X126744826Y-97675522D01*
X127241273Y-97675522D01*
X127288764Y-97852761D01*
X127292510Y-97863053D01*
X127384586Y-98060511D01*
X127390069Y-98070007D01*
X127515028Y-98248467D01*
X127522084Y-98256875D01*
X127676125Y-98410916D01*
X127684533Y-98417972D01*
X127862993Y-98542931D01*
X127872489Y-98548414D01*
X128069947Y-98640490D01*
X128080239Y-98644236D01*
X128252503Y-98690394D01*
X128266599Y-98690058D01*
X128270000Y-98682116D01*
X128270000Y-97681115D01*
X128265525Y-97665876D01*
X128264135Y-97664671D01*
X128256452Y-97663000D01*
X127256033Y-97663000D01*
X127242502Y-97666973D01*
X127241273Y-97675522D01*
X126744826Y-97675522D01*
X126834961Y-97482225D01*
X126834961Y-97482224D01*
X126837284Y-97477243D01*
X126876414Y-97331211D01*
X126895119Y-97261402D01*
X126895119Y-97261400D01*
X126896543Y-97256087D01*
X126906918Y-97137503D01*
X127242606Y-97137503D01*
X127242942Y-97151599D01*
X127250884Y-97155000D01*
X128251885Y-97155000D01*
X128267124Y-97150525D01*
X128268329Y-97149135D01*
X128270000Y-97141452D01*
X128270000Y-96141033D01*
X128266027Y-96127502D01*
X128257478Y-96126273D01*
X128080239Y-96173764D01*
X128069947Y-96177510D01*
X127872489Y-96269586D01*
X127862993Y-96275069D01*
X127684533Y-96400028D01*
X127676125Y-96407084D01*
X127522084Y-96561125D01*
X127515028Y-96569533D01*
X127390069Y-96747993D01*
X127384586Y-96757489D01*
X127292510Y-96954947D01*
X127288764Y-96965239D01*
X127242606Y-97137503D01*
X126906918Y-97137503D01*
X126916498Y-97028000D01*
X126896543Y-96799913D01*
X126895119Y-96794598D01*
X126838707Y-96584067D01*
X126838706Y-96584065D01*
X126837284Y-96578757D01*
X126806450Y-96512633D01*
X126742849Y-96376238D01*
X126742846Y-96376233D01*
X126740523Y-96371251D01*
X126609198Y-96183700D01*
X126447300Y-96021802D01*
X126442792Y-96018645D01*
X126442789Y-96018643D01*
X126355079Y-95957228D01*
X126259749Y-95890477D01*
X126254767Y-95888154D01*
X126254762Y-95888151D01*
X126057225Y-95796039D01*
X126057224Y-95796039D01*
X126052243Y-95793716D01*
X126046935Y-95792294D01*
X126046933Y-95792293D01*
X125836402Y-95735881D01*
X125836400Y-95735881D01*
X125831087Y-95734457D01*
X125603000Y-95714502D01*
X125374913Y-95734457D01*
X125369600Y-95735881D01*
X125369598Y-95735881D01*
X125159067Y-95792293D01*
X125159065Y-95792294D01*
X125153757Y-95793716D01*
X125148776Y-95796039D01*
X125148775Y-95796039D01*
X124951238Y-95888151D01*
X124951233Y-95888154D01*
X124946251Y-95890477D01*
X124850921Y-95957228D01*
X124763211Y-96018643D01*
X124763208Y-96018645D01*
X124758700Y-96021802D01*
X124596802Y-96183700D01*
X124465477Y-96371251D01*
X124463154Y-96376233D01*
X124463151Y-96376238D01*
X124399550Y-96512633D01*
X124368716Y-96578757D01*
X124367294Y-96584065D01*
X124367293Y-96584067D01*
X124310881Y-96794598D01*
X124309457Y-96799913D01*
X124289502Y-97028000D01*
X121916498Y-97028000D01*
X121896543Y-96799913D01*
X121895119Y-96794598D01*
X121838707Y-96584067D01*
X121838706Y-96584065D01*
X121837284Y-96578757D01*
X121806450Y-96512633D01*
X121742849Y-96376238D01*
X121742846Y-96376233D01*
X121740523Y-96371251D01*
X121609198Y-96183700D01*
X121447300Y-96021802D01*
X121442792Y-96018645D01*
X121442789Y-96018643D01*
X121355079Y-95957228D01*
X121259749Y-95890477D01*
X121254767Y-95888154D01*
X121254762Y-95888151D01*
X121057225Y-95796039D01*
X121057224Y-95796039D01*
X121052243Y-95793716D01*
X121046935Y-95792294D01*
X121046933Y-95792293D01*
X120836402Y-95735881D01*
X120836400Y-95735881D01*
X120831087Y-95734457D01*
X120603000Y-95714502D01*
X120374913Y-95734457D01*
X120369600Y-95735881D01*
X120369598Y-95735881D01*
X120159067Y-95792293D01*
X120159065Y-95792294D01*
X120153757Y-95793716D01*
X120148776Y-95796039D01*
X120148775Y-95796039D01*
X119951238Y-95888151D01*
X119951233Y-95888154D01*
X119946251Y-95890477D01*
X119883323Y-95934540D01*
X119816049Y-95957228D01*
X119747189Y-95939943D01*
X119721957Y-95920422D01*
X119374651Y-95573116D01*
X119340625Y-95510804D01*
X119345041Y-95445446D01*
X119344284Y-95445243D01*
X119345315Y-95441396D01*
X119345315Y-95441395D01*
X119403543Y-95224087D01*
X119423498Y-94996000D01*
X119403543Y-94767913D01*
X119402119Y-94762598D01*
X119345707Y-94552067D01*
X119345706Y-94552065D01*
X119344284Y-94546757D01*
X119300727Y-94453348D01*
X119249849Y-94344238D01*
X119249846Y-94344233D01*
X119247523Y-94339251D01*
X119116198Y-94151700D01*
X118954300Y-93989802D01*
X118949792Y-93986645D01*
X118949789Y-93986643D01*
X118809510Y-93888419D01*
X118766749Y-93858477D01*
X118761767Y-93856154D01*
X118761762Y-93856151D01*
X118564225Y-93764039D01*
X118564224Y-93764039D01*
X118559243Y-93761716D01*
X118553935Y-93760294D01*
X118553933Y-93760293D01*
X118343402Y-93703881D01*
X118343400Y-93703881D01*
X118338087Y-93702457D01*
X118110000Y-93682502D01*
X117881913Y-93702457D01*
X117876600Y-93703881D01*
X117876598Y-93703881D01*
X117666067Y-93760293D01*
X117666065Y-93760294D01*
X117660757Y-93761716D01*
X117655776Y-93764039D01*
X117655775Y-93764039D01*
X117458238Y-93856151D01*
X117458233Y-93856154D01*
X117453251Y-93858477D01*
X117410490Y-93888419D01*
X117270211Y-93986643D01*
X117270208Y-93986645D01*
X117265700Y-93989802D01*
X117103802Y-94151700D01*
X116972477Y-94339251D01*
X116970154Y-94344233D01*
X116970151Y-94344238D01*
X116919273Y-94453348D01*
X116875716Y-94546757D01*
X116874294Y-94552065D01*
X116874293Y-94552067D01*
X116817881Y-94762598D01*
X116816457Y-94767913D01*
X116796502Y-94996000D01*
X116816457Y-95224087D01*
X116875716Y-95445243D01*
X116878039Y-95450224D01*
X116878039Y-95450225D01*
X116970151Y-95647762D01*
X116970154Y-95647767D01*
X116972477Y-95652749D01*
X117103802Y-95840300D01*
X117265700Y-96002198D01*
X117270208Y-96005355D01*
X117270211Y-96005357D01*
X117348389Y-96060098D01*
X117453251Y-96133523D01*
X117458233Y-96135846D01*
X117458238Y-96135849D01*
X117655775Y-96227961D01*
X117660757Y-96230284D01*
X117666065Y-96231706D01*
X117666067Y-96231707D01*
X117876598Y-96288119D01*
X117876600Y-96288119D01*
X117881913Y-96289543D01*
X118009548Y-96300710D01*
X118090577Y-96307799D01*
X118156695Y-96333663D01*
X118168690Y-96344225D01*
X118502587Y-96678122D01*
X118536613Y-96740434D01*
X118531548Y-96811249D01*
X118489001Y-96868085D01*
X118422481Y-96892896D01*
X118380880Y-96888923D01*
X118343409Y-96878882D01*
X118343398Y-96878880D01*
X118338087Y-96877457D01*
X118110000Y-96857502D01*
X117881913Y-96877457D01*
X117876600Y-96878881D01*
X117876598Y-96878881D01*
X117666067Y-96935293D01*
X117666065Y-96935294D01*
X117660757Y-96936716D01*
X117655776Y-96939039D01*
X117655775Y-96939039D01*
X117458238Y-97031151D01*
X117458233Y-97031154D01*
X117453251Y-97033477D01*
X117348389Y-97106902D01*
X117270211Y-97161643D01*
X117270208Y-97161645D01*
X117265700Y-97164802D01*
X117103802Y-97326700D01*
X116972477Y-97514251D01*
X116970154Y-97519233D01*
X116970151Y-97519238D01*
X116892973Y-97684749D01*
X116875716Y-97721757D01*
X116874294Y-97727065D01*
X116874293Y-97727067D01*
X116828349Y-97898530D01*
X116816457Y-97942913D01*
X116796502Y-98171000D01*
X111803498Y-98171000D01*
X111783543Y-97942913D01*
X111771651Y-97898530D01*
X111725707Y-97727067D01*
X111725706Y-97727065D01*
X111724284Y-97721757D01*
X111707027Y-97684749D01*
X111629849Y-97519238D01*
X111629846Y-97519233D01*
X111627523Y-97514251D01*
X111496198Y-97326700D01*
X111334300Y-97164802D01*
X111329792Y-97161645D01*
X111329789Y-97161643D01*
X111251611Y-97106902D01*
X111146749Y-97033477D01*
X111141767Y-97031154D01*
X111141762Y-97031151D01*
X110944225Y-96939039D01*
X110944224Y-96939039D01*
X110939243Y-96936716D01*
X110933935Y-96935294D01*
X110933933Y-96935293D01*
X110723402Y-96878881D01*
X110723400Y-96878881D01*
X110718087Y-96877457D01*
X110490000Y-96857502D01*
X110261913Y-96877457D01*
X110256600Y-96878881D01*
X110256598Y-96878881D01*
X110046067Y-96935293D01*
X110046065Y-96935294D01*
X110040757Y-96936716D01*
X110035776Y-96939039D01*
X110035775Y-96939039D01*
X109838238Y-97031151D01*
X109838233Y-97031154D01*
X109833251Y-97033477D01*
X109728389Y-97106902D01*
X109650211Y-97161643D01*
X109650208Y-97161645D01*
X109645700Y-97164802D01*
X109483802Y-97326700D01*
X109352477Y-97514251D01*
X109350153Y-97519236D01*
X109350149Y-97519242D01*
X109333195Y-97555601D01*
X109286278Y-97608887D01*
X109218001Y-97628348D01*
X109150041Y-97607807D01*
X109103975Y-97553784D01*
X109093000Y-97502352D01*
X109093000Y-95664648D01*
X109113002Y-95596527D01*
X109166658Y-95550034D01*
X109236932Y-95539930D01*
X109301512Y-95569424D01*
X109333195Y-95611399D01*
X109350149Y-95647758D01*
X109350153Y-95647764D01*
X109352477Y-95652749D01*
X109483802Y-95840300D01*
X109645700Y-96002198D01*
X109650208Y-96005355D01*
X109650211Y-96005357D01*
X109728389Y-96060098D01*
X109833251Y-96133523D01*
X109838233Y-96135846D01*
X109838238Y-96135849D01*
X110035775Y-96227961D01*
X110040757Y-96230284D01*
X110046065Y-96231706D01*
X110046067Y-96231707D01*
X110256598Y-96288119D01*
X110256600Y-96288119D01*
X110261913Y-96289543D01*
X110490000Y-96309498D01*
X110718087Y-96289543D01*
X110723400Y-96288119D01*
X110723402Y-96288119D01*
X110933933Y-96231707D01*
X110933935Y-96231706D01*
X110939243Y-96230284D01*
X110944225Y-96227961D01*
X111141762Y-96135849D01*
X111141767Y-96135846D01*
X111146749Y-96133523D01*
X111251611Y-96060098D01*
X111329789Y-96005357D01*
X111329792Y-96005355D01*
X111334300Y-96002198D01*
X111496198Y-95840300D01*
X111627523Y-95652749D01*
X111629846Y-95647767D01*
X111629849Y-95647762D01*
X111721961Y-95450225D01*
X111721961Y-95450224D01*
X111724284Y-95445243D01*
X111783543Y-95224087D01*
X111803498Y-94996000D01*
X111802996Y-94990264D01*
X111784022Y-94773386D01*
X111784022Y-94773384D01*
X111783543Y-94767913D01*
X111783122Y-94766340D01*
X111790859Y-94696969D01*
X111817980Y-94656555D01*
X112488539Y-93985996D01*
X112494805Y-93980142D01*
X112532050Y-93947651D01*
X112537775Y-93942657D01*
X112573995Y-93891121D01*
X112577928Y-93885825D01*
X112612107Y-93842236D01*
X112612109Y-93842233D01*
X112616793Y-93836259D01*
X112619919Y-93829335D01*
X112621757Y-93826300D01*
X112629001Y-93813601D01*
X112630689Y-93810453D01*
X112635057Y-93804238D01*
X112657939Y-93745549D01*
X112660479Y-93739504D01*
X112686414Y-93682064D01*
X112687799Y-93674591D01*
X112688870Y-93671173D01*
X112692855Y-93657184D01*
X112693752Y-93653692D01*
X112696513Y-93646610D01*
X112704734Y-93584169D01*
X112705766Y-93577656D01*
X112715862Y-93523181D01*
X112715862Y-93523179D01*
X112717246Y-93515712D01*
X112713710Y-93454386D01*
X112713501Y-93447134D01*
X112713501Y-90551000D01*
X114510502Y-90551000D01*
X114530457Y-90779087D01*
X114589716Y-91000243D01*
X114592039Y-91005224D01*
X114592039Y-91005225D01*
X114684151Y-91202762D01*
X114684154Y-91202767D01*
X114686477Y-91207749D01*
X114817802Y-91395300D01*
X114979700Y-91557198D01*
X114984208Y-91560355D01*
X114984211Y-91560357D01*
X115062389Y-91615098D01*
X115167251Y-91688523D01*
X115172233Y-91690846D01*
X115172238Y-91690849D01*
X115325345Y-91762243D01*
X115374757Y-91785284D01*
X115380065Y-91786706D01*
X115380067Y-91786707D01*
X115590598Y-91843119D01*
X115590600Y-91843119D01*
X115595913Y-91844543D01*
X115824000Y-91864498D01*
X116052087Y-91844543D01*
X116057400Y-91843119D01*
X116057402Y-91843119D01*
X116267933Y-91786707D01*
X116267935Y-91786706D01*
X116273243Y-91785284D01*
X116322655Y-91762243D01*
X116475762Y-91690849D01*
X116475767Y-91690846D01*
X116480749Y-91688523D01*
X116585611Y-91615098D01*
X116663789Y-91560357D01*
X116663792Y-91560355D01*
X116668300Y-91557198D01*
X116830198Y-91395300D01*
X116887825Y-91313000D01*
X121622502Y-91313000D01*
X121642457Y-91541087D01*
X121643881Y-91546400D01*
X121643881Y-91546402D01*
X121681963Y-91688523D01*
X121701716Y-91762243D01*
X121704039Y-91767224D01*
X121704039Y-91767225D01*
X121796151Y-91964762D01*
X121796154Y-91964767D01*
X121798477Y-91969749D01*
X121929802Y-92157300D01*
X122091700Y-92319198D01*
X122096208Y-92322355D01*
X122096211Y-92322357D01*
X122174389Y-92377098D01*
X122279251Y-92450523D01*
X122284233Y-92452846D01*
X122284238Y-92452849D01*
X122481775Y-92544961D01*
X122486757Y-92547284D01*
X122492065Y-92548706D01*
X122492067Y-92548707D01*
X122702598Y-92605119D01*
X122702600Y-92605119D01*
X122707913Y-92606543D01*
X122936000Y-92626498D01*
X123164087Y-92606543D01*
X123169400Y-92605119D01*
X123169402Y-92605119D01*
X123379933Y-92548707D01*
X123379935Y-92548706D01*
X123385243Y-92547284D01*
X123390225Y-92544961D01*
X123587762Y-92452849D01*
X123587767Y-92452846D01*
X123592749Y-92450523D01*
X123697611Y-92377098D01*
X123775789Y-92322357D01*
X123775792Y-92322355D01*
X123780300Y-92319198D01*
X123942198Y-92157300D01*
X124073523Y-91969749D01*
X124075846Y-91964767D01*
X124075849Y-91964762D01*
X124167961Y-91767225D01*
X124167961Y-91767224D01*
X124170284Y-91762243D01*
X124190038Y-91688523D01*
X124228119Y-91546402D01*
X124228119Y-91546400D01*
X124229543Y-91541087D01*
X124249498Y-91313000D01*
X126622502Y-91313000D01*
X126642457Y-91541087D01*
X126643881Y-91546400D01*
X126643881Y-91546402D01*
X126681963Y-91688523D01*
X126701716Y-91762243D01*
X126704039Y-91767224D01*
X126704039Y-91767225D01*
X126796151Y-91964762D01*
X126796154Y-91964767D01*
X126798477Y-91969749D01*
X126929802Y-92157300D01*
X127091700Y-92319198D01*
X127096208Y-92322355D01*
X127096211Y-92322357D01*
X127174389Y-92377098D01*
X127279251Y-92450523D01*
X127284233Y-92452846D01*
X127284238Y-92452849D01*
X127481775Y-92544961D01*
X127486757Y-92547284D01*
X127492065Y-92548706D01*
X127492067Y-92548707D01*
X127702598Y-92605119D01*
X127702600Y-92605119D01*
X127707913Y-92606543D01*
X127936000Y-92626498D01*
X128164087Y-92606543D01*
X128169400Y-92605119D01*
X128169402Y-92605119D01*
X128379933Y-92548707D01*
X128379935Y-92548706D01*
X128385243Y-92547284D01*
X128390225Y-92544961D01*
X128587762Y-92452849D01*
X128587767Y-92452846D01*
X128592749Y-92450523D01*
X128697611Y-92377098D01*
X128775789Y-92322357D01*
X128775792Y-92322355D01*
X128780300Y-92319198D01*
X128942198Y-92157300D01*
X129073523Y-91969749D01*
X129075846Y-91964767D01*
X129075849Y-91964762D01*
X129167961Y-91767225D01*
X129167961Y-91767224D01*
X129170284Y-91762243D01*
X129190038Y-91688523D01*
X129228119Y-91546402D01*
X129228119Y-91546400D01*
X129229543Y-91541087D01*
X129249498Y-91313000D01*
X129229543Y-91084913D01*
X129208191Y-91005225D01*
X129171707Y-90869067D01*
X129171706Y-90869065D01*
X129170284Y-90863757D01*
X129167961Y-90858775D01*
X129075849Y-90661238D01*
X129075846Y-90661233D01*
X129073523Y-90656251D01*
X128942198Y-90468700D01*
X128780300Y-90306802D01*
X128775792Y-90303645D01*
X128775789Y-90303643D01*
X128697611Y-90248902D01*
X128592749Y-90175477D01*
X128587767Y-90173154D01*
X128587762Y-90173151D01*
X128390225Y-90081039D01*
X128390224Y-90081039D01*
X128385243Y-90078716D01*
X128379935Y-90077294D01*
X128379933Y-90077293D01*
X128169402Y-90020881D01*
X128169400Y-90020881D01*
X128164087Y-90019457D01*
X127936000Y-89999502D01*
X127707913Y-90019457D01*
X127702600Y-90020881D01*
X127702598Y-90020881D01*
X127492067Y-90077293D01*
X127492065Y-90077294D01*
X127486757Y-90078716D01*
X127481776Y-90081039D01*
X127481775Y-90081039D01*
X127284238Y-90173151D01*
X127284233Y-90173154D01*
X127279251Y-90175477D01*
X127174389Y-90248902D01*
X127096211Y-90303643D01*
X127096208Y-90303645D01*
X127091700Y-90306802D01*
X126929802Y-90468700D01*
X126798477Y-90656251D01*
X126796154Y-90661233D01*
X126796151Y-90661238D01*
X126704039Y-90858775D01*
X126701716Y-90863757D01*
X126700294Y-90869065D01*
X126700293Y-90869067D01*
X126663809Y-91005225D01*
X126642457Y-91084913D01*
X126622502Y-91313000D01*
X124249498Y-91313000D01*
X124229543Y-91084913D01*
X124208191Y-91005225D01*
X124171707Y-90869067D01*
X124171706Y-90869065D01*
X124170284Y-90863757D01*
X124167961Y-90858775D01*
X124075849Y-90661238D01*
X124075846Y-90661233D01*
X124073523Y-90656251D01*
X123942198Y-90468700D01*
X123780300Y-90306802D01*
X123775792Y-90303645D01*
X123775789Y-90303643D01*
X123697611Y-90248902D01*
X123592749Y-90175477D01*
X123587767Y-90173154D01*
X123587762Y-90173151D01*
X123390225Y-90081039D01*
X123390224Y-90081039D01*
X123385243Y-90078716D01*
X123379935Y-90077294D01*
X123379933Y-90077293D01*
X123169402Y-90020881D01*
X123169400Y-90020881D01*
X123164087Y-90019457D01*
X122936000Y-89999502D01*
X122707913Y-90019457D01*
X122702600Y-90020881D01*
X122702598Y-90020881D01*
X122492067Y-90077293D01*
X122492065Y-90077294D01*
X122486757Y-90078716D01*
X122481776Y-90081039D01*
X122481775Y-90081039D01*
X122284238Y-90173151D01*
X122284233Y-90173154D01*
X122279251Y-90175477D01*
X122174389Y-90248902D01*
X122096211Y-90303643D01*
X122096208Y-90303645D01*
X122091700Y-90306802D01*
X121929802Y-90468700D01*
X121798477Y-90656251D01*
X121796154Y-90661233D01*
X121796151Y-90661238D01*
X121704039Y-90858775D01*
X121701716Y-90863757D01*
X121700294Y-90869065D01*
X121700293Y-90869067D01*
X121663809Y-91005225D01*
X121642457Y-91084913D01*
X121622502Y-91313000D01*
X116887825Y-91313000D01*
X116961523Y-91207749D01*
X116963846Y-91202767D01*
X116963849Y-91202762D01*
X117055961Y-91005225D01*
X117055961Y-91005224D01*
X117058284Y-91000243D01*
X117117543Y-90779087D01*
X117137498Y-90551000D01*
X117117543Y-90322913D01*
X117078883Y-90178634D01*
X117059707Y-90107067D01*
X117059706Y-90107065D01*
X117058284Y-90101757D01*
X117019684Y-90018978D01*
X116963849Y-89899238D01*
X116963846Y-89899233D01*
X116961523Y-89894251D01*
X116830198Y-89706700D01*
X116668300Y-89544802D01*
X116663792Y-89541645D01*
X116663789Y-89541643D01*
X116537920Y-89453509D01*
X116480749Y-89413477D01*
X116475767Y-89411154D01*
X116475762Y-89411151D01*
X116278225Y-89319039D01*
X116278224Y-89319039D01*
X116273243Y-89316716D01*
X116267935Y-89315294D01*
X116267933Y-89315293D01*
X116057402Y-89258881D01*
X116057400Y-89258881D01*
X116052087Y-89257457D01*
X115824000Y-89237502D01*
X115595913Y-89257457D01*
X115590600Y-89258881D01*
X115590598Y-89258881D01*
X115380067Y-89315293D01*
X115380065Y-89315294D01*
X115374757Y-89316716D01*
X115369776Y-89319039D01*
X115369775Y-89319039D01*
X115172238Y-89411151D01*
X115172233Y-89411154D01*
X115167251Y-89413477D01*
X115110080Y-89453509D01*
X114984211Y-89541643D01*
X114984208Y-89541645D01*
X114979700Y-89544802D01*
X114817802Y-89706700D01*
X114686477Y-89894251D01*
X114684154Y-89899233D01*
X114684151Y-89899238D01*
X114628316Y-90018978D01*
X114589716Y-90101757D01*
X114588294Y-90107065D01*
X114588293Y-90107067D01*
X114569117Y-90178634D01*
X114530457Y-90322913D01*
X114510502Y-90551000D01*
X112713501Y-90551000D01*
X112713501Y-88421100D01*
X112713793Y-88412530D01*
X112717155Y-88363224D01*
X112717155Y-88363220D01*
X112717671Y-88355649D01*
X112716366Y-88348173D01*
X112716366Y-88348169D01*
X112706838Y-88293577D01*
X112705875Y-88287052D01*
X112699223Y-88232083D01*
X112699222Y-88232081D01*
X112698310Y-88224541D01*
X112695626Y-88217439D01*
X112694782Y-88214001D01*
X112690918Y-88199878D01*
X112689888Y-88196467D01*
X112688582Y-88188984D01*
X112663262Y-88131303D01*
X112660771Y-88125197D01*
X112641192Y-88073384D01*
X112641191Y-88073383D01*
X112638507Y-88066279D01*
X112634208Y-88060024D01*
X112632566Y-88056883D01*
X112625468Y-88044129D01*
X112623631Y-88041023D01*
X112620578Y-88034068D01*
X112615953Y-88028041D01*
X112615951Y-88028037D01*
X112582236Y-87984099D01*
X112578372Y-87978781D01*
X112542680Y-87926849D01*
X112496812Y-87885982D01*
X112491537Y-87881002D01*
X111754405Y-87143870D01*
X111720379Y-87081558D01*
X111717500Y-87054775D01*
X111717500Y-85089000D01*
X111737502Y-85020879D01*
X111791158Y-84974386D01*
X111843500Y-84963000D01*
X118858265Y-84963000D01*
X118926386Y-84983002D01*
G37*
%TD.AperFunction*%
%TA.AperFunction,Conductor*%
G36*
X110363896Y-87734502D02*
G01*
X110384870Y-87751405D01*
X111278596Y-88645131D01*
X111312622Y-88707443D01*
X111315501Y-88734226D01*
X111315501Y-89164349D01*
X111295499Y-89232470D01*
X111241843Y-89278963D01*
X111171569Y-89289067D01*
X111156890Y-89286056D01*
X111057313Y-89259375D01*
X111046519Y-89257472D01*
X110829475Y-89238483D01*
X110818525Y-89238483D01*
X110601481Y-89257472D01*
X110590688Y-89259375D01*
X110380239Y-89315764D01*
X110369947Y-89319510D01*
X110172489Y-89411586D01*
X110162994Y-89417069D01*
X110110952Y-89453509D01*
X110102576Y-89463988D01*
X110109644Y-89477434D01*
X111094115Y-90461905D01*
X111128141Y-90524217D01*
X111123076Y-90595032D01*
X111094115Y-90640095D01*
X110108923Y-91625287D01*
X110102493Y-91637062D01*
X110111789Y-91649077D01*
X110162994Y-91684931D01*
X110172489Y-91690414D01*
X110369947Y-91782490D01*
X110380239Y-91786236D01*
X110590688Y-91842625D01*
X110601481Y-91844528D01*
X110818525Y-91863517D01*
X110829475Y-91863517D01*
X111046519Y-91844528D01*
X111057313Y-91842625D01*
X111156890Y-91815944D01*
X111227867Y-91817634D01*
X111286662Y-91857428D01*
X111314610Y-91922693D01*
X111315501Y-91937651D01*
X111315501Y-93129774D01*
X111295499Y-93197895D01*
X111278596Y-93218869D01*
X110829445Y-93668020D01*
X110767133Y-93702046D01*
X110720039Y-93702980D01*
X110718087Y-93702457D01*
X110712616Y-93701978D01*
X110712614Y-93701978D01*
X110495475Y-93682981D01*
X110490000Y-93682502D01*
X110261913Y-93702457D01*
X110256600Y-93703881D01*
X110256598Y-93703881D01*
X110046067Y-93760293D01*
X110046065Y-93760294D01*
X110040757Y-93761716D01*
X110035776Y-93764039D01*
X110035775Y-93764039D01*
X109838238Y-93856151D01*
X109838233Y-93856154D01*
X109833251Y-93858477D01*
X109790490Y-93888419D01*
X109650211Y-93986643D01*
X109650208Y-93986645D01*
X109645700Y-93989802D01*
X109483802Y-94151700D01*
X109352477Y-94339251D01*
X109350153Y-94344236D01*
X109350149Y-94344242D01*
X109333195Y-94380601D01*
X109286278Y-94433887D01*
X109218001Y-94453348D01*
X109150041Y-94432807D01*
X109103975Y-94378784D01*
X109093000Y-94327352D01*
X109093000Y-90556475D01*
X109511483Y-90556475D01*
X109530472Y-90773519D01*
X109532375Y-90784312D01*
X109588764Y-90994761D01*
X109592510Y-91005053D01*
X109684586Y-91202511D01*
X109690069Y-91212006D01*
X109726509Y-91264048D01*
X109736988Y-91272424D01*
X109750434Y-91265356D01*
X110451978Y-90563812D01*
X110459592Y-90549868D01*
X110459461Y-90548035D01*
X110455210Y-90541420D01*
X109749713Y-89835923D01*
X109737938Y-89829493D01*
X109725923Y-89838789D01*
X109690069Y-89889994D01*
X109684586Y-89899489D01*
X109592510Y-90096947D01*
X109588764Y-90107239D01*
X109532375Y-90317688D01*
X109530472Y-90328481D01*
X109511483Y-90545525D01*
X109511483Y-90556475D01*
X109093000Y-90556475D01*
X109093000Y-87840500D01*
X109113002Y-87772379D01*
X109166658Y-87725886D01*
X109219000Y-87714500D01*
X110295775Y-87714500D01*
X110363896Y-87734502D01*
G37*
%TD.AperFunction*%
%TD*%
M02*
